<svg xmlns="http://www.w3.org/2000/svg" xmlns:xlink="http://www.w3.org/1999/xlink" width="258.621" height="62.791" viewBox="0 0 258.621 62.791">
  <defs>
    <clipPath id="clip-path">
      <rect id="Rectangle_7" data-name="Rectangle 7" width="258.621" height="62.791" fill="none"/>
    </clipPath>
  </defs>
  <g id="nl_dalmia_logo" data-name="nl dalmia logo" transform="translate(-159 -61)">
    <g id="Group_3" data-name="Group 3" transform="translate(159 61)">
      <rect id="Rectangle_4" data-name="Rectangle 4" width="4.537" height="0.684" transform="translate(0 35.579) rotate(-17.538)" fill="#7e0b27"/>
      <g id="Group_2" data-name="Group 2" transform="translate(0 0)">
        <g id="Group_1" data-name="Group 1" clip-path="url(#clip-path)">
          <path id="Path_1" data-name="Path 1" d="M64.317,14.865a2.809,2.809,0,1,1,2.809-2.81,2.812,2.812,0,0,1-2.809,2.81m0-5.1A2.287,2.287,0,1,0,66.6,12.055a2.289,2.289,0,0,0-2.286-2.286" transform="translate(-16.201 -2.435)" fill="#7e0b27"/>
          <path id="Path_2" data-name="Path 2" d="M64.327,12.32h.437a2.3,2.3,0,0,0,.531-.035.313.313,0,0,0,.166-.124.387.387,0,0,0,.06-.22.353.353,0,0,0-.079-.239.363.363,0,0,0-.222-.115c-.049-.006-.192-.01-.432-.01h-.46Zm-.592,1.689V11.082h1.244a2.13,2.13,0,0,1,.681.08.678.678,0,0,1,.34.28.841.841,0,0,1,.127.461.786.786,0,0,1-.194.545.93.93,0,0,1-.579.269,1.377,1.377,0,0,1,.317.246,3.3,3.3,0,0,1,.336.475l.358.571H65.66l-.427-.637a4.251,4.251,0,0,0-.312-.43.465.465,0,0,0-.178-.122.991.991,0,0,0-.3-.033h-.119v1.222Z" transform="translate(-16.787 -2.919)" fill="#7e0b27" fill-rule="evenodd"/>
          <path id="Path_3" data-name="Path 3" d="M35.393,32.262a16.19,16.19,0,0,0-.96,15.862l.12.248,1.693-.038.106-.292c1.84-5.3,1.807-11-.959-15.78m.01-1.445c3.071,4.638,4.1,10.175,1.479,17.295l-.06.169-2.843.055-.133-.223q-4.469-8.3,1.557-17.295M33.913,12.986c8.805,8.17,12.846,20.617,5.463,34.439a9.985,9.985,0,0,1-4.756.952,16.981,16.981,0,0,1-2.874-.522c-13.421-22.2,1.433-23.985,2.166-34.87" transform="translate(-6.889 -3.421)" fill="#7e0b27" fill-rule="evenodd"/>
          <path id="Path_4" data-name="Path 4" d="M30.538,7.846A20.123,20.123,0,1,1,10.415,27.969,20.125,20.125,0,0,1,30.538,7.846m0,1.61A18.513,18.513,0,1,1,12.024,27.969,18.515,18.515,0,0,1,30.538,9.456" transform="translate(-2.743 -2.067)" fill="#7e0b27" fill-rule="evenodd"/>
          <path id="Path_5" data-name="Path 5" d="M13.861,63.133l-.945-.806a1.293,1.293,0,0,0,.5-.446l.274-.321q.408.319.829.623Zm-2.974-4.115L9.917,60l-.8-.913,1-.914q.375.43.768.842m-2.463-3-.4.291-.576-.9C6.991,54.7,6.3,54.2,5.428,54.788a2.007,2.007,0,0,0-.77,1.372l-.177.908.77.174.171-.883c.061-.272.132-.72.428-.9.419-.241.729,0,1.04.486l.52.808L5.358,58.249l.461.666L8.9,56.671q.34.452.7.888l-1.007.921-.222-.256c-.251-.289-.607-.1-.633.379l-.037.763c0,.6.26.786.644.435l.249-.228.821.942L8.219,61.728l.561.58,2.672-2.715q.768.757,1.594,1.449l-.292.359c-.055.067-.27.443-.569.371a.369.369,0,0,1-.341-.417l.034-.508-.787-.021-.239,3.765.883.066.032-2.372,1.684,1.438L12.29,65.406l.65.472,2.233-3.237q.318.214.642.421l-1.978,3.448.688.412,1.962-3.443H16.5c.165.1.331.193.5.287l.36-.714q-.357-.2-.706-.411l-.465-2.862-.891.2.7,2.258a25.456,25.456,0,0,1-8.611-9.4l-.658.44a26.3,26.3,0,0,0,1.693,2.742m13.312,9.795-.409,1.409-1.448-.6.5-1.277q.667.253,1.353.468m1.557.434-.927,3.805.773.2.931-3.826c.2.041.395.081.594.118l.152-.788a24.2,24.2,0,0,1-5.831-1.864l-.315.735q.48.223.968.426l-.5,1.266-.31-.128c-.349-.145-.589.182-.4.628l.3.7c.26.535.572.588.765.1l.125-.317,1.506.624-.486,1.628.762.239,1.118-3.745q.388.108.781.2M31.6,68.2l-.03-.745-3.047.128.029.745.488-.021a.789.789,0,0,1,.779.846.74.74,0,0,1-.721.838.751.751,0,0,1-.828-.765l-.011-.272-.744.032.011.272a1.538,1.538,0,0,0,3.072-.13,1.251,1.251,0,0,0-.429-.869Zm6.66-3.8a24.63,24.63,0,0,0,2.664-1.265,9.212,9.212,0,0,0-1.919-.3c-.862-.022-1.361.54-1.143,1.046a1.309,1.309,0,0,0,.4.521M34.9,66.3q-.7.165-1.422.288l.035.208c.172,1.021-.3,1.4-.749,1.54a.979.979,0,0,0,1.12.559,1.619,1.619,0,0,0,1.312-1.37ZM48.04,58.479q-.3.33-.605.65l.935.987.732-.73Zm2.884-3.861q-.313.51-.648,1.005l.218.158c.825.6.754,1.2.53,1.633A.975.975,0,0,0,52.2,57a1.585,1.585,0,0,0,.186-1.5l-1.439-.862Zm.727-1.259c-.1.189-.206.375-.312.561l3.327,1.992-.4.7-1.151-.688a1.927,1.927,0,0,1-.289,1.522c-.648.939-1.727,1.028-2.818.236.561-.583.479-1,.08-1.286l-.235-.17q-.6.832-1.26,1.614l.032.034-.021.02,2.889,2.467-.51.627-1.332-1.137-.786.783.233.245c.359.378.186.649-.4.677l-.745,0c-.473-.006-.667-.363-.4-.633l.24-.238-.934-.984c-.141.137-.282.273-.425.407l.019.025-.425.355,2.459,3.09-.617.516-2.459-3.082c-.179.15-.361.3-.544.445l0,0h0l-.091.071L46.2,63.521c.294.411.106.683-.487.626l-.751-.056c-.5-.085-.63-.452-.312-.691l.3-.228-.819-1.148q-.632.465-1.292.892l1.972,3.353-.683.421L42.844,64.5l-1.1.582c-.5.267-.77.558-.58,1.011.143.32.569.439.827.53l.84.266-.25.767-.863-.275a1.953,1.953,0,0,1-1.251-.928c-.481-.951.077-1.6.815-2l1.166-.619-.292-.5a25.245,25.245,0,0,1-3.326,1.687l1.316,3.739-.75.277-1.309-3.719q-.414.157-.834.3l1.116,3.78-.762.236L36.5,65.871q-.408.124-.821.235l.9,3.757-.773.2-.379-1.575a1.894,1.894,0,0,1-1.413,1.182c-1.106.2-1.931-.522-2.158-1.872.8-.007,1.027-.359.944-.852l-.04-.238a25.068,25.068,0,0,1-3.548.252q-1.181,0-2.337-.109l.083-.8q1.114.1,2.253.1a24.132,24.132,0,0,0,6.727-.952l-2.085-.974.452-.812L36.7,64.968q.38-.124.754-.26a1.727,1.727,0,0,1-.367-.544c-.387-.9.3-2.143,1.923-2.128a12.158,12.158,0,0,1,2.028.339l.242.561a24.9,24.9,0,0,0,3.416-2.355,1.365,1.365,0,0,1-.98-.479A1.317,1.317,0,0,1,44,58.2a2.334,2.334,0,0,1,.456-.258l.5.566a1.142,1.142,0,0,0-.528.242.658.658,0,0,0-.064.96,1.12,1.12,0,0,0,.879.407,25.562,25.562,0,0,0,5.726-7.151Z" transform="translate(-1.18 -13.916)" fill="#7e0b27" fill-rule="evenodd"/>
          <path id="Path_6" data-name="Path 6" d="M1.147,50.915l4.234-1.548-.236-.622L.9,50.278Z" transform="translate(-0.236 -12.839)" fill="#7e0b27" fill-rule="evenodd"/>
          <rect id="Rectangle_5" data-name="Rectangle 5" width="0.677" height="4.498" transform="matrix(0.502, -0.865, 0.865, 0.502, 51.389, 36.382)" fill="#7e0b27"/>
          <path id="Path_7" data-name="Path 7" d="M75.29,48.659l-3.883-2.253-.345.582,3.889,2.257Z" transform="translate(-18.717 -12.223)" fill="#7e0b27" fill-rule="evenodd"/>
          <rect id="Rectangle_6" data-name="Rectangle 6" width="0.639" height="62.566" transform="translate(61.805)" fill="#7e0b27"/>
          <path id="Path_8" data-name="Path 8" d="M247.736,75.31h0a.371.371,0,0,0-.292.135.472.472,0,0,0-.116.323.48.48,0,0,0,.117.321.378.378,0,0,0,.291.136.369.369,0,0,0,.29-.136.468.468,0,0,0,.119-.321.48.48,0,0,0-.116-.323.376.376,0,0,0-.292-.135" transform="translate(-65.144 -19.836)" fill="#7e0b27"/>
          <path id="Path_9" data-name="Path 9" d="M286.867,75.31a.373.373,0,0,0-.293.135.475.475,0,0,0-.116.323.48.48,0,0,0,.118.321.374.374,0,0,0,.292.136.37.37,0,0,0,.289-.136.474.474,0,0,0,.119-.321.48.48,0,0,0-.117-.323.376.376,0,0,0-.292-.135" transform="translate(-75.45 -19.836)" fill="#7e0b27"/>
          <path id="Path_10" data-name="Path 10" d="M324.874,75.31a.376.376,0,0,0-.292.135.5.5,0,0,0,0,.645.375.375,0,0,0,.291.136.369.369,0,0,0,.289-.136.5.5,0,0,0,0-.645.376.376,0,0,0-.292-.135" transform="translate(-85.461 -19.836)" fill="#7e0b27"/>
          <path id="Path_11" data-name="Path 11" d="M168.568,74.686l.018-.067-1.352.256v.242l.052-.008a1.731,1.731,0,0,1,.248-.028.266.266,0,0,1,.184.052.168.168,0,0,1,.056.131,3.863,3.863,0,0,1-.119.537l-.989,3.885a3.288,3.288,0,0,0-.118.624.411.411,0,0,0,.1.277.336.336,0,0,0,.265.123.738.738,0,0,0,.435-.166,2.936,2.936,0,0,0,.65-.787l.017-.027-.172-.2-.031.054a2.187,2.187,0,0,1-.39.516c-.068.061-.132.08-.171.034a.11.11,0,0,1-.024-.074,2.544,2.544,0,0,1,.09-.442Z" transform="translate(-43.867 -19.654)" fill="#7e0b27"/>
          <path id="Path_12" data-name="Path 12" d="M164.417,75.116l.052-.008a1.743,1.743,0,0,1,.248-.028.271.271,0,0,1,.184.052.174.174,0,0,1,.056.132,3.972,3.972,0,0,1-.119.537l-.988,3.885a3.27,3.27,0,0,0-.119.624.412.412,0,0,0,.1.277.337.337,0,0,0,.266.123.746.746,0,0,0,.435-.166,2.964,2.964,0,0,0,.649-.787l.017-.027-.17-.2-.032.054a2.164,2.164,0,0,1-.39.516c-.068.061-.132.08-.171.034a.11.11,0,0,1-.024-.074,2.56,2.56,0,0,1,.09-.442l1.246-4.929.018-.068-1.351.256Z" transform="translate(-43.125 -19.654)" fill="#7e0b27"/>
          <path id="Path_13" data-name="Path 13" d="M156.848,77.543a1.815,1.815,0,0,0-1.061.392,2.913,2.913,0,0,0-1.168,2.278,1.351,1.351,0,0,0,.3.92,1.062,1.062,0,0,0,.841.346,1.576,1.576,0,0,0,.84-.248,2.982,2.982,0,0,0,.777-.772l.023-.031-.167-.169-.032.038a2.454,2.454,0,0,1-.6.568,1.072,1.072,0,0,1-.534.153.678.678,0,0,1-.543-.232.957.957,0,0,1-.2-.639,2.96,2.96,0,0,1,.295-1.257,2.227,2.227,0,0,1,.587-.8,1.075,1.075,0,0,1,.678-.277.44.44,0,0,1,.271.073A.138.138,0,0,1,157.2,78a.181.181,0,0,1-.014.069.567.567,0,0,1-.1.122.648.648,0,0,0-.122.174.451.451,0,0,0-.03.162.34.34,0,0,0,.086.236.292.292,0,0,0,.221.1.345.345,0,0,0,.287-.159.746.746,0,0,0,.149-.466.662.662,0,0,0-.211-.494.872.872,0,0,0-.625-.2" transform="translate(-40.726 -20.424)" fill="#7e0b27"/>
          <path id="Path_14" data-name="Path 14" d="M185.224,79.55a2.242,2.242,0,0,0,.951-.678,1.112,1.112,0,0,0,.25-.686.613.613,0,0,0-.2-.454.849.849,0,0,0-.6-.19,1.831,1.831,0,0,0-1.069.366,3.047,3.047,0,0,0-1.2,2.3,1.469,1.469,0,0,0,.277.866.967.967,0,0,0,.838.4,2.4,2.4,0,0,0,1.682-.988l.022-.025-.122-.192-.039.034a3.983,3.983,0,0,1-.712.534,1.061,1.061,0,0,1-.485.119.671.671,0,0,1-.524-.244.879.879,0,0,1-.219-.6,2.9,2.9,0,0,1,.021-.3,4.617,4.617,0,0,0,1.126-.263m-.849-.731a2.068,2.068,0,0,1,.354-.545,1.115,1.115,0,0,1,.757-.435.3.3,0,0,1,.242.092.363.363,0,0,1,.085.252,1.021,1.021,0,0,1-.216.578,1.749,1.749,0,0,1-.657.53,2.657,2.657,0,0,1-.8.227,3.807,3.807,0,0,1,.235-.7" transform="translate(-48.295 -20.424)" fill="#7e0b27"/>
          <path id="Path_15" data-name="Path 15" d="M171.157,79.55a2.247,2.247,0,0,0,.952-.678,1.106,1.106,0,0,0,.249-.686.613.613,0,0,0-.2-.454.852.852,0,0,0-.6-.19,1.836,1.836,0,0,0-1.07.366,3.047,3.047,0,0,0-1.2,2.3,1.476,1.476,0,0,0,.278.866.967.967,0,0,0,.838.4,2.4,2.4,0,0,0,1.682-.988l.022-.025-.122-.192-.039.034a4,4,0,0,1-.711.534,1.067,1.067,0,0,1-.486.119.67.67,0,0,1-.524-.244.88.88,0,0,1-.219-.6,2.77,2.77,0,0,1,.021-.3,4.6,4.6,0,0,0,1.126-.263m-.848-.731a2.068,2.068,0,0,1,.354-.545,1.115,1.115,0,0,1,.757-.435.3.3,0,0,1,.242.092.36.36,0,0,1,.085.252,1.025,1.025,0,0,1-.215.578,1.757,1.757,0,0,1-.658.53,2.65,2.65,0,0,1-.8.227,3.7,3.7,0,0,1,.235-.7" transform="translate(-44.59 -20.424)" fill="#7e0b27"/>
          <path id="Path_16" data-name="Path 16" d="M197.626,74.635a1.121,1.121,0,0,0-.583.19,2.159,2.159,0,0,0-.579.565,4.257,4.257,0,0,0-.417.779,2.789,2.789,0,0,1-.256.494.482.482,0,0,1-.2.168,1.263,1.263,0,0,1-.407.045h-.037l-.069.362h.633l-.622,2.751c-.147.644-.239,1.029-.273,1.145a2.634,2.634,0,0,1-.25.629.987.987,0,0,1-.294.32.57.57,0,0,1-.306.1.108.108,0,0,1-.075-.021s-.008-.006-.008-.02,0-.017.046-.058a.283.283,0,0,0,.088-.2.274.274,0,0,0-.08-.194.265.265,0,0,0-.2-.082.35.35,0,0,0-.26.11.369.369,0,0,0-.106.262.388.388,0,0,0,.126.3.557.557,0,0,0,.4.162,1.121,1.121,0,0,0,.7-.28,3.233,3.233,0,0,0,.837-1.293,12.013,12.013,0,0,0,.539-1.859l.393-1.776h.533l.085-.362h-.533c.164-.605.28-.993.345-1.152a1.839,1.839,0,0,1,.425-.672.552.552,0,0,1,.382-.155.172.172,0,0,1,.109.029.07.07,0,0,1,.018.055.374.374,0,0,1-.043.111.433.433,0,0,0-.052.184.288.288,0,0,0,.083.208.284.284,0,0,0,.216.089.314.314,0,0,0,.25-.116.412.412,0,0,0,.094-.273.517.517,0,0,0-.181-.377.659.659,0,0,0-.475-.172" transform="translate(-50.933 -19.658)" fill="#7e0b27"/>
          <path id="Path_17" data-name="Path 17" d="M152.719,77.541a.5.5,0,0,0-.213.045,1.292,1.292,0,0,0-.332.254,2.312,2.312,0,0,0-.317.389l-.264.452A5.492,5.492,0,0,0,151.4,78a1.775,1.775,0,0,0-.277-.442l-.017-.02-1.035.206v.234l.048,0c.064-.005.128-.008.19-.008a.564.564,0,0,1,.368.1.757.757,0,0,1,.2.36c.012.038.105.446.241,1.047a7.193,7.193,0,0,1-.379.737,3.076,3.076,0,0,1-.46.667c-.052.051-.076.055-.082.055s-.037,0-.114-.081c-.189-.194-.39-.18-.509-.041a.378.378,0,0,0-.092.257.389.389,0,0,0,.1.277c.21.209.488.164.759-.086a5.521,5.521,0,0,0,.862-1.344,9.759,9.759,0,0,0,.3,1.277.409.409,0,0,0,.365.286.594.594,0,0,0,.368-.194,2.58,2.58,0,0,0,.594-.826l.017-.036-.2-.12-.021.044a1.543,1.543,0,0,1-.333.484.247.247,0,0,1-.148.083c-.021,0-.043-.024-.059-.046a1.3,1.3,0,0,1-.109-.374l-.295-1.41a3.264,3.264,0,0,1,.522-.807.308.308,0,0,1,.178-.1.816.816,0,0,1,.212.063.37.37,0,0,0,.447-.077.351.351,0,0,0,.067-.246.366.366,0,0,0-.106-.263.379.379,0,0,0-.281-.108" transform="translate(-39.374 -20.423)" fill="#7e0b27"/>
          <path id="Path_18" data-name="Path 18" d="M176.843,80.379a2.572,2.572,0,0,1-.415.521c-.041.035-.063.043-.076.043h0c-.006,0-.016-.008-.025-.02a.126.126,0,0,1-.021-.072,2.192,2.192,0,0,1,.076-.359l.444-1.743a2.777,2.777,0,0,0,.108-.674.575.575,0,0,0-.13-.387.428.428,0,0,0-.334-.15,1.075,1.075,0,0,0-.73.376,7.547,7.547,0,0,0-.892,1.266l.425-1.655L173.9,77.8l.033.238.183-.034a1.063,1.063,0,0,1,.147-.016.162.162,0,0,1,.126.056.18.18,0,0,1,.052.128,3.378,3.378,0,0,1-.116.552l-.663,2.594-.014.055h.639l.19-.716a4.321,4.321,0,0,1,.282-.763,9.046,9.046,0,0,1,.613-1.09,2.306,2.306,0,0,1,.55-.6c.134-.094.239-.123.3-.055a.149.149,0,0,1,.037.1,2.04,2.04,0,0,1-.079.474l-.424,1.665a3.226,3.226,0,0,0-.126.694.42.42,0,0,0,.092.28.313.313,0,0,0,.249.108.694.694,0,0,0,.405-.17,3.02,3.02,0,0,0,.653-.8l.023-.036-.186-.128Z" transform="translate(-45.737 -20.42)" fill="#7e0b27"/>
          <path id="Path_19" data-name="Path 19" d="M181.046,77.543a1.814,1.814,0,0,0-1.06.392,2.917,2.917,0,0,0-1.168,2.278,1.35,1.35,0,0,0,.3.92,1.061,1.061,0,0,0,.84.346,1.57,1.57,0,0,0,.84-.248,2.973,2.973,0,0,0,.779-.772l.022-.031-.167-.169-.031.038a2.447,2.447,0,0,1-.605.568,1.072,1.072,0,0,1-.534.153.665.665,0,0,1-.541-.232.95.95,0,0,1-.2-.639,2.95,2.95,0,0,1,.295-1.257,2.242,2.242,0,0,1,.586-.8,1.078,1.078,0,0,1,.679-.277.44.44,0,0,1,.271.073A.14.14,0,0,1,181.4,78a.188.188,0,0,1-.014.069.559.559,0,0,1-.1.122.648.648,0,0,0-.122.174.44.44,0,0,0-.029.162.343.343,0,0,0,.085.236.292.292,0,0,0,.221.1.34.34,0,0,0,.286-.159.744.744,0,0,0,.149-.466.659.659,0,0,0-.211-.494.871.871,0,0,0-.625-.2" transform="translate(-47.099 -20.424)" fill="#7e0b27"/>
          <path id="Path_20" data-name="Path 20" d="M193.4,80.134h0a2.91,2.91,0,0,0,.293-1.249,1.423,1.423,0,0,0-.323-.966,1.048,1.048,0,0,0-.826-.376,1.821,1.821,0,0,0-1.023.364,2.592,2.592,0,0,0-.838.986,2.746,2.746,0,0,0-.312,1.241,1.428,1.428,0,0,0,.326.969,1.074,1.074,0,0,0,.848.377,1.836,1.836,0,0,0,1.033-.364,2.453,2.453,0,0,0,.823-.982m-.846.206c-.291.56-.6.844-.924.844a.5.5,0,0,1-.407-.2.9.9,0,0,1-.165-.578A3.724,3.724,0,0,1,191.5,78.7c.289-.563.608-.849.947-.849a.478.478,0,0,1,.393.189A.884.884,0,0,1,193,78.6a3.549,3.549,0,0,1-.111.877,4.081,4.081,0,0,1-.334.866" transform="translate(-50.142 -20.424)" fill="#7e0b27"/>
          <path id="Path_21" data-name="Path 21" d="M107.051,74.832l-.013.024a.821.821,0,0,1-.168.25.237.237,0,0,1-.153.053.393.393,0,0,1-.1-.011c-.013,0-.088-.037-.231-.1a2.376,2.376,0,0,0-.421-.168,1.606,1.606,0,0,0-.4-.046,1.337,1.337,0,0,0-1.025.432,1.481,1.481,0,0,0-.4,1.036,1.593,1.593,0,0,0,.173.724,3.608,3.608,0,0,0,.468.628,7.538,7.538,0,0,1,.909,1.2,1.119,1.119,0,0,1,.108.5,1.214,1.214,0,0,1-.239.742.8.8,0,0,1-.69.316,1.022,1.022,0,0,1-.8-.342,1.292,1.292,0,0,1-.309-.894c0-.133.008-.3.026-.5l0-.049h-.209l-.426,2.173h.223l.011-.029c.073-.2.172-.3.294-.3a.579.579,0,0,1,.219.059,4.537,4.537,0,0,0,.614.227,1.816,1.816,0,0,0,.418.046,1.631,1.631,0,0,0,.835-.225,1.523,1.523,0,0,0,.589-.639,1.9,1.9,0,0,0,.2-.847,1.66,1.66,0,0,0-.165-.729,4.439,4.439,0,0,0-.713-.939,5.91,5.91,0,0,1-.69-.849,1.054,1.054,0,0,1-.145-.531.789.789,0,0,1,.225-.553.767.767,0,0,1,.583-.239.938.938,0,0,1,.736.306,1.113,1.113,0,0,1,.28.79c0,.1,0,.229-.014.4l0,.047h.206l.4-1.953Z" transform="translate(-27.173 -19.71)" fill="#7e0b27"/>
          <path id="Path_22" data-name="Path 22" d="M116.046,79.614a2.291,2.291,0,0,1-.4.5h0a.133.133,0,0,1-.08.042.048.048,0,0,1-.037-.021.1.1,0,0,1-.021-.059s.029-.138.084-.345l.444-1.735a2.741,2.741,0,0,0,.1-.675.586.586,0,0,0-.127-.393.409.409,0,0,0-.325-.152,1.1,1.1,0,0,0-.742.385,7.13,7.13,0,0,0-.884,1.251L115,74.686l.018-.068-1.366.26v.251l.129-.021a1.306,1.306,0,0,1,.193-.024.211.211,0,0,1,.159.068.232.232,0,0,1,.068.15l-1.342,5.309h.639l.242-.882a3.389,3.389,0,0,1,.247-.624c.341-.622.525-.95.581-1.031a2.574,2.574,0,0,1,.561-.634c.131-.089.245-.11.3-.051a.152.152,0,0,1,.034.1,2.036,2.036,0,0,1-.078.479l-.419,1.657a3.366,3.366,0,0,0-.13.689.406.406,0,0,0,.1.281.325.325,0,0,0,.254.112.581.581,0,0,0,.306-.108,1.865,1.865,0,0,0,.39-.373,3.34,3.34,0,0,0,.35-.491l.02-.036-.186-.127Z" transform="translate(-29.727 -19.654)" fill="#7e0b27"/>
          <path id="Path_23" data-name="Path 23" d="M110.683,77.543a1.811,1.811,0,0,0-1.06.392,2.911,2.911,0,0,0-1.168,2.278,1.35,1.35,0,0,0,.3.92,1.061,1.061,0,0,0,.84.346,1.572,1.572,0,0,0,.84-.248,2.967,2.967,0,0,0,.779-.773l.022-.03-.167-.169-.031.038a2.458,2.458,0,0,1-.605.568,1.074,1.074,0,0,1-.534.153.669.669,0,0,1-.543-.232.958.958,0,0,1-.2-.639,2.955,2.955,0,0,1,.294-1.257,2.234,2.234,0,0,1,.587-.8,1.076,1.076,0,0,1,.678-.277.442.442,0,0,1,.272.073.139.139,0,0,1,.052.111.192.192,0,0,1-.013.069.649.649,0,0,1-.1.122.637.637,0,0,0-.122.174.45.45,0,0,0-.031.162.346.346,0,0,0,.086.236.293.293,0,0,0,.221.1.343.343,0,0,0,.287-.159.747.747,0,0,0,.148-.466.659.659,0,0,0-.211-.494.872.872,0,0,0-.625-.2" transform="translate(-28.566 -20.424)" fill="#7e0b27"/>
          <path id="Path_24" data-name="Path 24" d="M92.453,80.472a8.686,8.686,0,0,1,.337-2.251,8.271,8.271,0,0,1,.867-2.11,5.133,5.133,0,0,1,1.091-1.26l.029-.024-.133-.222-.04.033a8.321,8.321,0,0,0-2.173,2.532,5.213,5.213,0,0,0-.55,2.411,4.582,4.582,0,0,0,.147,1.146,10.568,10.568,0,0,0,.626,1.669l.02.043.2-.108-.015-.037a5.181,5.181,0,0,1-.409-1.822" transform="translate(-24.201 -19.65)" fill="#7e0b27"/>
          <path id="Path_25" data-name="Path 25" d="M98.179,80.371a.4.4,0,0,1-.168-.161h0a.444.444,0,0,1-.048-.23c0-.049.005-.164.029-.427l.376-4.672,0-.048h-.2L95.2,79.417a5.126,5.126,0,0,1-.606.815.693.693,0,0,1-.449.194l-.032,0-.063.239h1.554l.063-.239-.055,0a.42.42,0,0,1-.284-.091.269.269,0,0,1-.081-.2.57.57,0,0,1,.04-.2,2.423,2.423,0,0,1,.211-.367l.49-.754h1.343l-.055.664a3.332,3.332,0,0,1-.074.594.47.47,0,0,1-.15.24.572.572,0,0,1-.359.108h-.118l-.063.242h2.038l.063-.242h-.057a.958.958,0,0,1-.379-.054m-.81-1.945h-1.12l1.293-2Z" transform="translate(-24.773 -19.71)" fill="#7e0b27"/>
          <path id="Path_26" data-name="Path 26" d="M120.216,77.543a1.821,1.821,0,0,0-1.023.364,2.587,2.587,0,0,0-.838.985,2.751,2.751,0,0,0-.312,1.242,1.429,1.429,0,0,0,.326.969,1.078,1.078,0,0,0,.849.376,1.831,1.831,0,0,0,1.031-.363,2.47,2.47,0,0,0,.824-.983,2.9,2.9,0,0,0,.292-1.249,1.431,1.431,0,0,0-.321-.966,1.052,1.052,0,0,0-.827-.375m.343,1.931a4.084,4.084,0,0,1-.334.866c-.289.56-.6.844-.924.844a.5.5,0,0,1-.407-.2.9.9,0,0,1-.165-.578,3.727,3.727,0,0,1,.446-1.713c.29-.563.609-.849.947-.849a.478.478,0,0,1,.393.189.884.884,0,0,1,.155.562,3.568,3.568,0,0,1-.111.877" transform="translate(-31.091 -20.424)" fill="#7e0b27"/>
          <path id="Path_27" data-name="Path 27" d="M136.558,80.134a2.9,2.9,0,0,0,.293-1.249,1.43,1.43,0,0,0-.321-.966,1.05,1.05,0,0,0-.827-.376,1.821,1.821,0,0,0-1.023.364,2.6,2.6,0,0,0-.838.986,2.755,2.755,0,0,0-.312,1.241,1.432,1.432,0,0,0,.326.969,1.077,1.077,0,0,0,.849.377,1.836,1.836,0,0,0,1.033-.364,2.452,2.452,0,0,0,.822-.982m-.846.206c-.29.56-.6.844-.924.844a.5.5,0,0,1-.407-.2.894.894,0,0,1-.165-.578,3.73,3.73,0,0,1,.446-1.713c.291-.563.609-.849.947-.849a.479.479,0,0,1,.393.189.884.884,0,0,1,.155.562,3.52,3.52,0,0,1-.111.877,4.054,4.054,0,0,1-.334.866" transform="translate(-35.17 -20.424)" fill="#7e0b27"/>
          <path id="Path_28" data-name="Path 28" d="M140.785,74.635a1.121,1.121,0,0,0-.583.19,2.182,2.182,0,0,0-.579.565,4.259,4.259,0,0,0-.417.779,2.806,2.806,0,0,1-.256.494.479.479,0,0,1-.2.168,1.253,1.253,0,0,1-.407.045h-.037l-.067.362h.633l-.622,2.751c-.153.67-.24,1.034-.274,1.145a2.578,2.578,0,0,1-.25.629.982.982,0,0,1-.292.319.571.571,0,0,1-.306.105.105.105,0,0,1-.075-.021s-.008-.005-.008-.019,0-.017.046-.058a.286.286,0,0,0,.088-.2.279.279,0,0,0-.08-.194.266.266,0,0,0-.2-.082.35.35,0,0,0-.26.11.369.369,0,0,0-.106.262.389.389,0,0,0,.127.3.557.557,0,0,0,.4.162,1.121,1.121,0,0,0,.7-.28,3.233,3.233,0,0,0,.837-1.293,12.065,12.065,0,0,0,.54-1.859l.392-1.776h.533l.086-.362h-.534c.161-.6.28-.993.344-1.152a1.846,1.846,0,0,1,.426-.672.552.552,0,0,1,.382-.155.171.171,0,0,1,.109.029.07.07,0,0,1,.018.055.375.375,0,0,1-.043.111.444.444,0,0,0-.052.184.288.288,0,0,0,.083.208.284.284,0,0,0,.217.089.316.316,0,0,0,.25-.116.416.416,0,0,0,.094-.273.515.515,0,0,0-.182-.377.659.659,0,0,0-.475-.172" transform="translate(-35.962 -19.658)" fill="#7e0b27"/>
          <path id="Path_29" data-name="Path 29" d="M147.858,76.448h.222L148.407,75h-3.641l-.068.243h.136a.521.521,0,0,1,.347.077.273.273,0,0,1,.083.213,2.808,2.808,0,0,1-.1.614l-.869,3.389a3.238,3.238,0,0,1-.228.7.464.464,0,0,1-.193.172.971.971,0,0,1-.365.055h-.032l-.074.241h3.916l.493-1.651h-.224l-.012.025a2.372,2.372,0,0,1-.752.977,2,2,0,0,1-1.114.278h-.438c-.2,0-.262-.029-.281-.046a.21.21,0,0,1-.076-.158,1.8,1.8,0,0,1,.068-.4l.469-1.825h.435a1.265,1.265,0,0,1,.449.046.351.351,0,0,1,.156.142.515.515,0,0,1,.057.263,1.776,1.776,0,0,1-.065.429l-.013.055h.237l.53-2.128h-.225l-.01.03a1.3,1.3,0,0,1-.367.615,1.15,1.15,0,0,1-.692.164h-.407l.543-2.133h.592a2.623,2.623,0,0,1,.79.071.733.733,0,0,1,.341.273.63.63,0,0,1,.088.345,2.294,2.294,0,0,1-.027.312Z" transform="translate(-37.771 -19.756)" fill="#7e0b27"/>
          <path id="Path_30" data-name="Path 30" d="M125.285,77.543a1.82,1.82,0,0,0-1.023.364,2.58,2.58,0,0,0-.838.985,2.759,2.759,0,0,0-.312,1.242,1.432,1.432,0,0,0,.326.969,1.075,1.075,0,0,0,.849.376,1.831,1.831,0,0,0,1.032-.363,2.457,2.457,0,0,0,.823-.983,2.9,2.9,0,0,0,.294-1.249,1.432,1.432,0,0,0-.323-.966,1.049,1.049,0,0,0-.826-.375m.343,1.931a4.115,4.115,0,0,1-.334.866c-.29.56-.6.844-.925.844a.5.5,0,0,1-.406-.2.9.9,0,0,1-.165-.578,3.718,3.718,0,0,1,.446-1.713c.29-.563.609-.849.947-.849a.479.479,0,0,1,.393.189.882.882,0,0,1,.155.562,3.554,3.554,0,0,1-.111.877" transform="translate(-32.426 -20.424)" fill="#7e0b27"/>
          <path id="Path_31" data-name="Path 31" d="M128.958,75.116l.052-.008a1.743,1.743,0,0,1,.248-.028.27.27,0,0,1,.184.052.171.171,0,0,1,.056.132,3.929,3.929,0,0,1-.119.537l-.989,3.885a3.252,3.252,0,0,0-.119.624.415.415,0,0,0,.1.277.339.339,0,0,0,.265.123.744.744,0,0,0,.435-.166,2.939,2.939,0,0,0,.65-.787l.017-.027-.172-.2-.032.055a2.151,2.151,0,0,1-.388.516c-.069.063-.131.081-.172.033a.108.108,0,0,1-.024-.074,2.572,2.572,0,0,1,.09-.442l1.247-4.929.017-.068-1.352.256Z" transform="translate(-33.786 -19.654)" fill="#7e0b27"/>
          <path id="Path_32" data-name="Path 32" d="M161.025,79.55a2.245,2.245,0,0,0,.952-.678,1.112,1.112,0,0,0,.25-.686.613.613,0,0,0-.2-.454.849.849,0,0,0-.6-.19,1.834,1.834,0,0,0-1.069.366,3.045,3.045,0,0,0-1.2,2.3,1.477,1.477,0,0,0,.277.866.968.968,0,0,0,.839.4,2.4,2.4,0,0,0,1.682-.988l.022-.025-.122-.192-.039.034a4.055,4.055,0,0,1-.711.534,1.064,1.064,0,0,1-.485.119.68.68,0,0,1-.524-.244.879.879,0,0,1-.219-.6,2.781,2.781,0,0,1,.021-.3,4.6,4.6,0,0,0,1.126-.263m-.848-.731a2.081,2.081,0,0,1,.354-.545,1.115,1.115,0,0,1,.757-.435.3.3,0,0,1,.242.092.363.363,0,0,1,.085.252,1.025,1.025,0,0,1-.216.578,1.754,1.754,0,0,1-.657.53,2.651,2.651,0,0,1-.8.227,3.73,3.73,0,0,1,.234-.7" transform="translate(-41.921 -20.424)" fill="#7e0b27"/>
          <path id="Path_33" data-name="Path 33" d="M270.924,77.642h-.646l-.09.348a7.019,7.019,0,0,1-.442,1.3,8.335,8.335,0,0,1-.529.878,2.551,2.551,0,0,1-.506.6c-.188.133-.316.159-.379.1a.137.137,0,0,1-.032-.1,3.957,3.957,0,0,1,.141-.682l.343-1.338a3.917,3.917,0,0,0,.147-.81.419.419,0,0,0-.1-.282c-.156-.175-.428-.138-.71.077a2.267,2.267,0,0,0-.591.723l-.019.033.18.144.027-.04a2.832,2.832,0,0,1,.336-.45.2.2,0,0,1,.126-.052c.007,0,.018,0,.035.021a.073.073,0,0,1,.019.054,3.065,3.065,0,0,1-.116.561L267.8,80a4.489,4.489,0,0,0-.161.964.542.542,0,0,0,.127.366.417.417,0,0,0,.318.146,1.182,1.182,0,0,0,.806-.452,6.8,6.8,0,0,0,.87-1.285c-.121.462-.2.805-.239.984a1.992,1.992,0,0,0-.048.382.392.392,0,0,0,.091.266.326.326,0,0,0,.255.105.676.676,0,0,0,.415-.166,2.643,2.643,0,0,0,.6-.775l.018-.032-.173-.152-.028.042a5.456,5.456,0,0,1-.371.5.177.177,0,0,1-.107.055.031.031,0,0,1-.027-.015.164.164,0,0,1-.017-.086,4.072,4.072,0,0,1,.141-.684Z" transform="translate(-70.461 -20.424)" fill="#7e0b27"/>
          <path id="Path_34" data-name="Path 34" d="M265.53,79.625a3.01,3.01,0,0,1-.407.487h0a.151.151,0,0,1-.085.044s-.01,0-.028-.019a.09.09,0,0,1-.022-.052,2.82,2.82,0,0,1,.1-.511l1.254-4.888.018-.068-1.36.256v.24l.051-.007a2.254,2.254,0,0,1,.272-.027.229.229,0,0,1,.164.057.16.16,0,0,1,.043.114,1.107,1.107,0,0,1-.042.262c-.012.04-.025.09-.041.15l-.359,1.442a.922.922,0,0,0-.237-.234.661.661,0,0,0-.363-.1,1.428,1.428,0,0,0-.852.362,3.261,3.261,0,0,0-.926,1.154,3.031,3.031,0,0,0-.352,1.338,1.3,1.3,0,0,0,.215.787.637.637,0,0,0,.519.3.958.958,0,0,0,.6-.255,4.128,4.128,0,0,0,.8-1.007l-.053.192a2.541,2.541,0,0,0-.111.645.48.48,0,0,0,.091.309.292.292,0,0,0,.239.116.793.793,0,0,0,.532-.268,3.654,3.654,0,0,0,.538-.68l.023-.035-.2-.136Zm-1.193-.4c-.371.605-.678.912-.913.912a.311.311,0,0,1-.253-.145.765.765,0,0,1-.113-.449,3.3,3.3,0,0,1,.492-1.626c.323-.557.631-.839.919-.84a.382.382,0,0,1,.309.146.605.605,0,0,1,.125.4,3.2,3.2,0,0,1-.566,1.6" transform="translate(-69.103 -19.654)" fill="#7e0b27"/>
          <path id="Path_35" data-name="Path 35" d="M274.807,77.543a1.809,1.809,0,0,0-1.06.392,2.8,2.8,0,0,0-.852,1.011,2.771,2.771,0,0,0-.317,1.267,1.353,1.353,0,0,0,.3.92,1.059,1.059,0,0,0,.841.346,1.568,1.568,0,0,0,.84-.248,2.971,2.971,0,0,0,.779-.772l.023-.031-.168-.169-.032.038a2.437,2.437,0,0,1-.6.569,1.06,1.06,0,0,1-.534.154.669.669,0,0,1-.543-.233.955.955,0,0,1-.2-.639,2.962,2.962,0,0,1,.295-1.257,2.228,2.228,0,0,1,.587-.8,1.07,1.07,0,0,1,.678-.277.437.437,0,0,1,.272.074.135.135,0,0,1,.052.111.2.2,0,0,1-.013.069.624.624,0,0,1-.1.122.64.64,0,0,0-.121.173.431.431,0,0,0-.03.162.343.343,0,0,0,.085.236.294.294,0,0,0,.221.1.343.343,0,0,0,.287-.159.744.744,0,0,0,.149-.466.659.659,0,0,0-.211-.494.866.866,0,0,0-.624-.2" transform="translate(-71.795 -20.424)" fill="#7e0b27"/>
          <path id="Path_36" data-name="Path 36" d="M208.007,81.626a.377.377,0,0,0-.293.136.506.506,0,0,0,0,.651.378.378,0,0,0,.293.137.384.384,0,0,0,.3-.136.468.468,0,0,0,.121-.327.478.478,0,0,0-.119-.324.381.381,0,0,0-.3-.137" transform="translate(-54.679 -21.5)" fill="#7e0b27"/>
          <path id="Path_37" data-name="Path 37" d="M257.087,75l-.069.242h.136a.52.52,0,0,1,.347.077.274.274,0,0,1,.083.214,2.785,2.785,0,0,1-.1.614l-.869,3.39a3.174,3.174,0,0,1-.228.7.46.46,0,0,1-.191.173,1.036,1.036,0,0,1-.366.054H255.8l-.073.24h3.914l.493-1.651h-.224l-.012.025a2.376,2.376,0,0,1-.752.977,2,2,0,0,1-1.114.278h-.438c-.2,0-.261-.029-.281-.047a.207.207,0,0,1-.076-.158,1.788,1.788,0,0,1,.068-.4l.469-1.826h.435a1.333,1.333,0,0,1,.45.047.355.355,0,0,1,.156.142.512.512,0,0,1,.057.263,1.783,1.783,0,0,1-.065.429l-.014.055h.238l.516-2.073.013-.055h-.224l-.01.029a1.329,1.329,0,0,1-.367.616,1.165,1.165,0,0,1-.692.163h-.406L258.4,75.4H259a2.461,2.461,0,0,1,.789.071.733.733,0,0,1,.341.273.625.625,0,0,1,.088.345,2.291,2.291,0,0,1-.026.312l-.007.051h.223L260.729,75Z" transform="translate(-67.355 -19.756)" fill="#7e0b27"/>
          <path id="Path_38" data-name="Path 38" d="M251.313,80.4l.727-2.874-.674.116-.1.35a.748.748,0,0,0-.193-.312.574.574,0,0,0-.4-.143,1.321,1.321,0,0,0-.82.358,3.419,3.419,0,0,0-.9,1.184,3.3,3.3,0,0,0-.352,1.409,1.152,1.152,0,0,0,.2.717.614.614,0,0,0,.495.267,1.027,1.027,0,0,0,.591-.21,3.436,3.436,0,0,0,.753-.8l-.019.077a2.441,2.441,0,0,0-.082.544.419.419,0,0,0,.09.289.339.339,0,0,0,.267.1.831.831,0,0,0,.522-.234,2.629,2.629,0,0,0,.527-.669l.02-.034-.193-.155-.026.043a2.344,2.344,0,0,1-.371.488c-.06.051-.088.054-.1.054a.042.042,0,0,1-.038-.018.156.156,0,0,1-.027-.09.372.372,0,0,1,.01-.081Zm-.842-.143c-.3.429-.579.647-.827.647a.314.314,0,0,1-.249-.146.674.674,0,0,1-.116-.418,3.264,3.264,0,0,1,.287-1.234,3.02,3.02,0,0,1,.651-1.028.714.714,0,0,1,.465-.237.347.347,0,0,1,.294.139.816.816,0,0,1,.111.483,3.1,3.1,0,0,1-.616,1.794" transform="translate(-65.481 -20.42)" fill="#7e0b27"/>
          <path id="Path_39" data-name="Path 39" d="M300.582,80.4l.727-2.874-.675.116-.1.351a.746.746,0,0,0-.193-.312.575.575,0,0,0-.4-.143,1.314,1.314,0,0,0-.819.358,3.431,3.431,0,0,0-.9,1.184,3.327,3.327,0,0,0-.351,1.409,1.144,1.144,0,0,0,.2.717.609.609,0,0,0,.494.267,1.029,1.029,0,0,0,.591-.21,3.487,3.487,0,0,0,.753-.8l-.019.078a2.434,2.434,0,0,0-.082.544.424.424,0,0,0,.089.288.337.337,0,0,0,.268.1.843.843,0,0,0,.522-.234,2.677,2.677,0,0,0,.527-.669l.019-.034-.194-.155-.026.043a2.287,2.287,0,0,1-.37.488c-.057.049-.085.054-.1.054a.041.041,0,0,1-.037-.019.145.145,0,0,1-.028-.089.469.469,0,0,1,.01-.081Zm-.842-.143c-.3.429-.58.647-.827.647a.314.314,0,0,1-.25-.146.679.679,0,0,1-.116-.418,3.257,3.257,0,0,1,.287-1.234,3.028,3.028,0,0,1,.652-1.028.714.714,0,0,1,.466-.237.345.345,0,0,1,.292.139.818.818,0,0,1,.111.483,3.1,3.1,0,0,1-.615,1.794" transform="translate(-78.458 -20.42)" fill="#7e0b27"/>
          <path id="Path_40" data-name="Path 40" d="M290.8,77.919a1.049,1.049,0,0,0-.826-.376,1.82,1.82,0,0,0-1.024.364,2.6,2.6,0,0,0-.838.986,2.762,2.762,0,0,0-.311,1.241,1.425,1.425,0,0,0,.325.968,1.074,1.074,0,0,0,.849.377,1.829,1.829,0,0,0,1.032-.364,2.454,2.454,0,0,0,.823-.982,2.9,2.9,0,0,0,.292-1.249,1.7,1.7,0,0,0-.08-.537,1.24,1.24,0,0,0-.242-.429m-.818,2.421c-.29.56-.6.844-.925.844a.5.5,0,0,1-.405-.2.9.9,0,0,1-.166-.578,3.723,3.723,0,0,1,.446-1.713c.29-.563.608-.849.947-.849a.478.478,0,0,1,.393.189.877.877,0,0,1,.156.561,3.765,3.765,0,0,1-.446,1.744" transform="translate(-75.804 -20.424)" fill="#7e0b27"/>
          <path id="Path_41" data-name="Path 41" d="M284.005,76.2l.015-.055h-.245l-.013.023a3.409,3.409,0,0,1-.585.845,1.669,1.669,0,0,1-.651.36l-.024.008-.053.242H283l-.594,2.342a3.124,3.124,0,0,0-.119.694.468.468,0,0,0,.113.323.386.386,0,0,0,.3.127.713.713,0,0,0,.439-.166,2.886,2.886,0,0,0,.646-.8l.019-.032-.186-.16-.029.041a4.59,4.59,0,0,1-.384.5c-.118.116-.183.133-.211.133,0,0-.018,0-.033-.02a.133.133,0,0,1-.021-.082,2.892,2.892,0,0,1,.1-.5l.62-2.41h.569l.083-.351h-.571Z" transform="translate(-74.351 -20.057)" fill="#7e0b27"/>
          <path id="Path_42" data-name="Path 42" d="M286.6,77.593l.017-.067-1.327.245-.036.007v.252l.052-.01a2.09,2.09,0,0,1,.324-.045.16.16,0,0,1,.123.045.156.156,0,0,1,.044.118,3.132,3.132,0,0,1-.116.56l-.474,1.856a2.463,2.463,0,0,0-.093.52.4.4,0,0,0,.108.287.364.364,0,0,0,.276.114.776.776,0,0,0,.5-.23,2.906,2.906,0,0,0,.593-.737l.02-.034-.2-.148-.025.041a2.325,2.325,0,0,1-.41.52c-.057.049-.088.056-.1.056a.062.062,0,0,1-.048-.025.115.115,0,0,1-.024-.08,3.2,3.2,0,0,1,.072-.341Z" transform="translate(-75.098 -20.42)" fill="#7e0b27"/>
          <path id="Path_43" data-name="Path 43" d="M279.7,77.994a.746.746,0,0,0-.193-.312.574.574,0,0,0-.4-.143,1.316,1.316,0,0,0-.82.358,3.411,3.411,0,0,0-.9,1.184,3.291,3.291,0,0,0-.351,1.409,1.147,1.147,0,0,0,.2.717.61.61,0,0,0,.494.267,1.029,1.029,0,0,0,.591-.21,3.5,3.5,0,0,0,.754-.8l-.02.078a2.43,2.43,0,0,0-.082.544.422.422,0,0,0,.089.289.342.342,0,0,0,.269.1.841.841,0,0,0,.522-.234,2.641,2.641,0,0,0,.527-.669l.02-.034-.194-.155-.027.043a2.316,2.316,0,0,1-.371.488c-.058.05-.087.054-.1.054a.04.04,0,0,1-.037-.019.147.147,0,0,1-.027-.089.427.427,0,0,1,.01-.081l.08-.377.709-2.808.017-.066-.674.116Zm-.8,2.264c-.3.429-.579.647-.827.647a.314.314,0,0,1-.249-.146.68.68,0,0,1-.116-.418A3.272,3.272,0,0,1,278,79.108a3.024,3.024,0,0,1,.652-1.028.717.717,0,0,1,.465-.237.348.348,0,0,1,.294.139.816.816,0,0,1,.111.483,3.1,3.1,0,0,1-.616,1.794" transform="translate(-72.97 -20.42)" fill="#7e0b27"/>
          <path id="Path_44" data-name="Path 44" d="M303.783,75.115l.052-.008a1.732,1.732,0,0,1,.247-.027.27.27,0,0,1,.184.051.171.171,0,0,1,.057.133,3.865,3.865,0,0,1-.12.536l-.988,3.886a3.294,3.294,0,0,0-.118.623.409.409,0,0,0,.1.277.333.333,0,0,0,.264.123.746.746,0,0,0,.435-.165,2.912,2.912,0,0,0,.65-.787l.017-.027-.172-.2-.032.055a2.161,2.161,0,0,1-.388.516c-.068.062-.132.08-.171.035a.112.112,0,0,1-.025-.075,2.527,2.527,0,0,1,.091-.441l1.246-4.929.018-.068-1.352.256Z" transform="translate(-79.833 -19.654)" fill="#7e0b27"/>
          <path id="Path_45" data-name="Path 45" d="M233.291,80.4l.728-2.874-.675.116-.1.351a.759.759,0,0,0-.193-.312.575.575,0,0,0-.4-.143,1.314,1.314,0,0,0-.819.358,3.392,3.392,0,0,0-.9,1.184,3.291,3.291,0,0,0-.351,1.409,1.146,1.146,0,0,0,.2.717.609.609,0,0,0,.493.267,1.031,1.031,0,0,0,.592-.21,3.441,3.441,0,0,0,.753-.8l-.019.078a2.428,2.428,0,0,0-.082.544.415.415,0,0,0,.089.288.339.339,0,0,0,.269.1.845.845,0,0,0,.522-.234,2.668,2.668,0,0,0,.527-.669l.019-.034-.194-.155-.026.043a2.307,2.307,0,0,1-.371.488c-.058.05-.086.054-.094.054a.044.044,0,0,1-.038-.018.148.148,0,0,1-.027-.09.407.407,0,0,1,.01-.081Zm-.841-.143c-.3.429-.58.647-.827.647a.312.312,0,0,1-.249-.146.677.677,0,0,1-.116-.418,3.273,3.273,0,0,1,.287-1.234,3.017,3.017,0,0,1,.652-1.028.707.707,0,0,1,.465-.237.346.346,0,0,1,.293.139.814.814,0,0,1,.113.483,3.1,3.1,0,0,1-.617,1.794" transform="translate(-60.735 -20.42)" fill="#7e0b27"/>
          <path id="Path_46" data-name="Path 46" d="M237.075,79.581a2.2,2.2,0,0,1-.388.516c-.071.063-.134.08-.172.034a.106.106,0,0,1-.024-.074,2.635,2.635,0,0,1,.09-.441l1.247-4.929.018-.068-1.352.256v.241l.052-.008a1.86,1.86,0,0,1,.247-.027.27.27,0,0,1,.186.051.173.173,0,0,1,.056.133,3.933,3.933,0,0,1-.119.536l-.989,3.886a3.283,3.283,0,0,0-.118.623.414.414,0,0,0,.1.278.336.336,0,0,0,.264.122.746.746,0,0,0,.435-.165,2.957,2.957,0,0,0,.65-.787l.018-.027-.172-.2Z" transform="translate(-62.11 -19.654)" fill="#7e0b27"/>
          <path id="Path_47" data-name="Path 47" d="M218.714,81.626a.377.377,0,0,0-.294.136.5.5,0,0,0,0,.651.376.376,0,0,0,.294.137.386.386,0,0,0,.3-.136.5.5,0,0,0,0-.651.378.378,0,0,0-.3-.137" transform="translate(-57.499 -21.5)" fill="#7e0b27"/>
          <path id="Path_48" data-name="Path 48" d="M227.208,75.272A3.292,3.292,0,0,0,225.7,75H224.09l-.068.242h.138a.544.544,0,0,1,.343.075.277.277,0,0,1,.081.217,2.662,2.662,0,0,1-.1.617l-.875,3.4a2.963,2.963,0,0,1-.231.688.458.458,0,0,1-.2.174,1.037,1.037,0,0,1-.37.054h-.032l-.074.24h2.154a3.886,3.886,0,0,0,1.28-.182,2.986,2.986,0,0,0,.955-.566,3.721,3.721,0,0,0,.651-.7,3.344,3.344,0,0,0,.38-.844,3.548,3.548,0,0,0,.169-1.084A2.667,2.667,0,0,0,228,76.112a1.916,1.916,0,0,0-.791-.84m-.041,3.516a2.638,2.638,0,0,1-.7,1.043,2.035,2.035,0,0,1-.787.389,3.912,3.912,0,0,1-1.05.135.856.856,0,0,1-.293-.037.138.138,0,0,1-.079-.063.2.2,0,0,1-.032-.1,3.11,3.11,0,0,1,.119-.574l1.064-4.174c.2-.01.349-.015.464-.015a1.448,1.448,0,0,1,1.159.46,2.148,2.148,0,0,1,.4,1.419,4.181,4.181,0,0,1-.262,1.521" transform="translate(-58.658 -19.756)" fill="#7e0b27"/>
          <path id="Path_49" data-name="Path 49" d="M215.908,79.238a4.726,4.726,0,0,1-.354.608,1.27,1.27,0,0,1-.4.325,1.88,1.88,0,0,1-.808.144h-.478c-.167,0-.226-.026-.249-.049a.222.222,0,0,1-.084-.158,2.535,2.535,0,0,1,.1-.52l.857-3.358a3.734,3.734,0,0,1,.211-.686.548.548,0,0,1,.218-.228,1.1,1.1,0,0,1,.461-.069h.036l.049-.242h-2.107l-.065.236.051.007a.969.969,0,0,0,.1,0,.542.542,0,0,1,.348.075.265.265,0,0,1,.086.211,2.775,2.775,0,0,1-.109.61l-.871,3.418a2.973,2.973,0,0,1-.234.676.5.5,0,0,1-.207.178,1.131,1.131,0,0,1-.373.051h-.031l-.08.24h3.759l.508-1.684h-.222Z" transform="translate(-55.832 -19.756)" fill="#7e0b27"/>
          <path id="Path_50" data-name="Path 50" d="M243.23,80.367a2.059,2.059,0,0,1-.383.47.3.3,0,0,1-.1.068.025.025,0,0,1-.024-.013.108.108,0,0,1-.024-.071,5.163,5.163,0,0,1,.131-.574l.4-1.612a2.241,2.241,0,0,0,.067-.519.668.668,0,0,0-.119-.433.382.382,0,0,0-.31-.147.912.912,0,0,0-.614.294,5.341,5.341,0,0,0-.952,1.414l.16-.65a2.3,2.3,0,0,0,.085-.541.539.539,0,0,0-.132-.371.441.441,0,0,0-.335-.146.752.752,0,0,0-.43.14,2.93,2.93,0,0,0-.686.758,6.11,6.11,0,0,0-.357.62L240,77.524l-1.327.275-.043.009.05.242.045-.01a1.714,1.714,0,0,1,.252-.05.212.212,0,0,1,.156.062.175.175,0,0,1,.059.13.364.364,0,0,1-.024.1l-.776,3.089h.63l.009-.032c.236-.849.373-1.312.432-1.458a5.717,5.717,0,0,1,.53-1.008,2.779,2.779,0,0,1,.554-.68.39.39,0,0,1,.228-.091.074.074,0,0,1,.063.038.233.233,0,0,1,.031.138,2.66,2.66,0,0,1-.1.532l-.624,2.506-.014.055h.641l.009-.033a9.827,9.827,0,0,1,.538-1.6,5.37,5.37,0,0,1,.933-1.462.436.436,0,0,1,.292-.165c.007,0,.03,0,.061.038a.249.249,0,0,1,.032.138.922.922,0,0,1-.01.146c0,.027-.038.175-.12.5l-.331,1.331a4.184,4.184,0,0,0-.151.809.4.4,0,0,0,.1.273.31.31,0,0,0,.246.115.618.618,0,0,0,.326-.11,1.89,1.89,0,0,0,.407-.4,3.8,3.8,0,0,0,.328-.463l.018-.035-.19-.138Z" transform="translate(-62.79 -20.419)" fill="#7e0b27"/>
          <path id="Path_51" data-name="Path 51" d="M247.474,77.593l.017-.067-1.327.245-.036.007v.252l.053-.01a2.091,2.091,0,0,1,.324-.045.158.158,0,0,1,.122.045.16.16,0,0,1,.046.118,3.451,3.451,0,0,1-.116.56l-.474,1.856a2.386,2.386,0,0,0-.092.52.407.407,0,0,0,.106.287.372.372,0,0,0,.276.113.776.776,0,0,0,.5-.23,2.911,2.911,0,0,0,.593-.737l.02-.034-.2-.148-.025.041a2.36,2.36,0,0,1-.411.52c-.057.049-.088.056-.1.056a.061.061,0,0,1-.048-.025.121.121,0,0,1-.025-.08,2.3,2.3,0,0,1,.072-.341Z" transform="translate(-64.792 -20.42)" fill="#7e0b27"/>
          <path id="Path_52" data-name="Path 52" d="M206.069,75.247h.064L206.2,75H204.52l-.063.237.052.005c.032,0,.065,0,.094,0a.505.505,0,0,1,.324.074.268.268,0,0,1,.08.208,2.741,2.741,0,0,1-.1.619l-.792,3.145-1.478-4.264L202.628,75h-1.3l-.064.24.056,0a1.125,1.125,0,0,1,.484.1.837.837,0,0,1,.281.31l-.977,3.889a3.1,3.1,0,0,1-.232.692.48.48,0,0,1-.2.178,1.032,1.032,0,0,1-.373.055h-.032l-.079.24h1.649l.057-.237-.052,0a.74.74,0,0,1-.4-.1.26.26,0,0,1-.075-.206,2.732,2.732,0,0,1,.1-.6l.842-3.357,1.6,4.6.01.03h.2l1.171-4.666a2.721,2.721,0,0,1,.231-.666.574.574,0,0,1,.238-.207.7.7,0,0,1,.317-.054" transform="translate(-52.728 -19.756)" fill="#7e0b27"/>
          <path id="Path_53" data-name="Path 53" d="M295.94,80.379a2.636,2.636,0,0,1-.414.521c-.042.035-.065.043-.077.043s-.015-.005-.025-.02a.127.127,0,0,1-.021-.072,2.051,2.051,0,0,1,.076-.359l.444-1.744a2.837,2.837,0,0,0,.107-.674.576.576,0,0,0-.129-.386.43.43,0,0,0-.335-.151,1.073,1.073,0,0,0-.729.377,7.492,7.492,0,0,0-.893,1.266l.426-1.656L293,77.8l.033.238.183-.034a1.139,1.139,0,0,1,.147-.016.168.168,0,0,1,.127.055.183.183,0,0,1,.052.13,3.385,3.385,0,0,1-.116.552l-.662,2.593-.015.055h.639l.19-.715a4.355,4.355,0,0,1,.282-.763,8.882,8.882,0,0,1,.614-1.091,2.3,2.3,0,0,1,.548-.6c.138-.1.238-.126.3-.055a.151.151,0,0,1,.035.1,2.081,2.081,0,0,1-.078.474l-.424,1.665a3.166,3.166,0,0,0-.125.694.415.415,0,0,0,.091.28.315.315,0,0,0,.25.108.693.693,0,0,0,.406-.17,3.065,3.065,0,0,0,.653-.8l.022-.036-.186-.127Z" transform="translate(-77.106 -20.419)" fill="#7e0b27"/>
          <path id="Path_54" data-name="Path 54" d="M320.7,77.543a1.786,1.786,0,0,0-1.06.392,2.915,2.915,0,0,0-1.169,2.278,1.357,1.357,0,0,0,.3.92,1.066,1.066,0,0,0,.842.346,1.576,1.576,0,0,0,.84-.248,2.963,2.963,0,0,0,.777-.773l.023-.03-.168-.169-.031.038a2.472,2.472,0,0,1-.6.568,1.076,1.076,0,0,1-.534.153.676.676,0,0,1-.543-.232.952.952,0,0,1-.2-.639,2.961,2.961,0,0,1,.295-1.257,2.236,2.236,0,0,1,.587-.8,1.075,1.075,0,0,1,.678-.277.437.437,0,0,1,.271.073.138.138,0,0,1,.053.111.191.191,0,0,1-.014.069.569.569,0,0,1-.1.122.642.642,0,0,0-.122.173.427.427,0,0,0-.031.163.34.34,0,0,0,.086.236.292.292,0,0,0,.222.1.345.345,0,0,0,.286-.158.745.745,0,0,0,.149-.466.661.661,0,0,0-.211-.494.872.872,0,0,0-.625-.2" transform="translate(-83.882 -20.424)" fill="#7e0b27"/>
          <path id="Path_55" data-name="Path 55" d="M327.193,79.7a3.225,3.225,0,0,0,.5-.154,2.247,2.247,0,0,0,.952-.678,1.113,1.113,0,0,0,.25-.686.613.613,0,0,0-.2-.454.849.849,0,0,0-.6-.19,1.837,1.837,0,0,0-1.07.366,2.814,2.814,0,0,0-.855,1.019,2.774,2.774,0,0,0-.34,1.285,1.48,1.48,0,0,0,.277.866.969.969,0,0,0,.839.4,2.4,2.4,0,0,0,1.681-.988l.022-.025-.122-.192-.039.034a4.016,4.016,0,0,1-.71.534,1.057,1.057,0,0,1-.486.119.67.67,0,0,1-.524-.244.88.88,0,0,1-.219-.6,2.9,2.9,0,0,1,.021-.3c.232-.03.443-.067.627-.109m-.349-.885a2.069,2.069,0,0,1,.354-.545,1.115,1.115,0,0,1,.757-.435.306.306,0,0,1,.242.092.365.365,0,0,1,.085.252,1.029,1.029,0,0,1-.215.578,1.763,1.763,0,0,1-.658.53,2.635,2.635,0,0,1-.8.227,3.7,3.7,0,0,1,.235-.7" transform="translate(-85.82 -20.424)" fill="#7e0b27"/>
          <path id="Path_56" data-name="Path 56" d="M324.612,77.594l.017-.067-1.327.245-.036.007v.252l.052-.01a2.171,2.171,0,0,1,.324-.046.161.161,0,0,1,.124.046.154.154,0,0,1,.044.116,3.479,3.479,0,0,1-.116.561l-.474,1.856a2.378,2.378,0,0,0-.093.521.408.408,0,0,0,.107.287.368.368,0,0,0,.276.114.777.777,0,0,0,.5-.23,2.9,2.9,0,0,0,.593-.737l.02-.035-.2-.147-.025.041a2.351,2.351,0,0,1-.41.52c-.053.046-.084.055-.1.055a.061.061,0,0,1-.048-.024.121.121,0,0,1-.025-.08,2.642,2.642,0,0,1,.072-.342Z" transform="translate(-85.109 -20.42)" fill="#7e0b27"/>
          <path id="Path_57" data-name="Path 57" d="M312,74.832l-.013.024a.863.863,0,0,1-.168.25.237.237,0,0,1-.154.053.417.417,0,0,1-.1-.01c-.014-.006-.091-.039-.231-.1a2.354,2.354,0,0,0-.42-.168,1.607,1.607,0,0,0-.4-.046,1.336,1.336,0,0,0-1.024.432,1.487,1.487,0,0,0-.4,1.036,1.6,1.6,0,0,0,.173.725,3.591,3.591,0,0,0,.469.627,7.568,7.568,0,0,1,.908,1.2,1.12,1.12,0,0,1,.109.5,1.214,1.214,0,0,1-.239.742.8.8,0,0,1-.69.316,1.027,1.027,0,0,1-.8-.342,1.3,1.3,0,0,1-.309-.894c0-.132.01-.3.027-.5l0-.049h-.21l-.426,2.173h.224l.01-.029c.073-.2.172-.3.293-.3a.579.579,0,0,1,.22.059,4.427,4.427,0,0,0,.614.227,1.816,1.816,0,0,0,.418.046,1.629,1.629,0,0,0,.835-.225,1.518,1.518,0,0,0,.589-.639,1.907,1.907,0,0,0,.2-.847,1.643,1.643,0,0,0-.166-.729,4.4,4.4,0,0,0-.712-.94,5.889,5.889,0,0,1-.689-.849,1.055,1.055,0,0,1-.147-.531.791.791,0,0,1,.226-.553.767.767,0,0,1,.583-.239.937.937,0,0,1,.736.3,1.124,1.124,0,0,1,.28.79c0,.1,0,.228-.013.4l0,.047h.207l.4-1.953Z" transform="translate(-81.154 -19.71)" fill="#7e0b27"/>
          <path id="Path_58" data-name="Path 58" d="M335.555,77.788a.709.709,0,0,0-.122-.443.376.376,0,0,0-.309-.169.315.315,0,0,0-.251.119.451.451,0,0,0-.1.3.473.473,0,0,0,.078.268.409.409,0,0,0,.2.161.4.4,0,0,1,.116.055.062.062,0,0,1,.014.046.4.4,0,0,1-.02.124,2.89,2.89,0,0,1-.215.456c-.194.357-.36.645-.493.854-.239.372-.425.65-.562.844l-.152-1.917a7.345,7.345,0,0,0-.1-.829,2.03,2.03,0,0,0-.176-.459l-.016-.032-1.05.293.044-.186h-.572l.27-1.072.015-.055h-.244l-.013.023a3.4,3.4,0,0,1-.586.844,1.681,1.681,0,0,1-.65.361l-.025.007-.054.242h.548l-.594,2.343a3.15,3.15,0,0,0-.118.694.465.465,0,0,0,.113.323.386.386,0,0,0,.3.127.713.713,0,0,0,.439-.166,2.889,2.889,0,0,0,.647-.8l.019-.032-.186-.16-.028.04a4.9,4.9,0,0,1-.385.5c-.112.11-.176.133-.21.133a.041.041,0,0,1-.034-.021.134.134,0,0,1-.021-.081,2.8,2.8,0,0,1,.1-.5l.619-2.41h.544l.021.1.04-.005a2.361,2.361,0,0,1,.269-.025.356.356,0,0,1,.306.124,1.885,1.885,0,0,1,.144.769l.2,2.61a6.59,6.59,0,0,1-.5.646,2.642,2.642,0,0,1-.461.44.238.238,0,0,1-.049.032l-.01,0a.444.444,0,0,1-.055-.115.291.291,0,0,0-.078-.139.23.23,0,0,0-.148-.046.381.381,0,0,0-.289.147.473.473,0,0,0-.13.323.376.376,0,0,0,.1.255.3.3,0,0,0,.233.113.886.886,0,0,0,.481-.192,4.786,4.786,0,0,0,.828-.9c.548-.706.993-1.328,1.361-1.9a12.819,12.819,0,0,0,.762-1.295,1.866,1.866,0,0,0,.2-.767" transform="translate(-87.031 -20.057)" fill="#7e0b27"/>
          <path id="Path_59" data-name="Path 59" d="M338.945,76.317a10.059,10.059,0,0,0-.622-1.664l-.021-.046-.2.126.013.034a5.2,5.2,0,0,1,.409,1.822,8.729,8.729,0,0,1-.337,2.253,8.291,8.291,0,0,1-.868,2.113,5.21,5.21,0,0,1-1.09,1.26l-.031.026.136.2.038-.031a8.346,8.346,0,0,0,2.174-2.537,5.2,5.2,0,0,0,.548-2.41,4.425,4.425,0,0,0-.15-1.147" transform="translate(-88.552 -19.651)" fill="#7e0b27"/>
          <path id="Path_60" data-name="Path 60" d="M316.422,77.919a1.049,1.049,0,0,0-.826-.376,1.823,1.823,0,0,0-1.024.365,2.6,2.6,0,0,0-.839.985,2.766,2.766,0,0,0-.311,1.242,1.428,1.428,0,0,0,.325.968,1.077,1.077,0,0,0,.849.377,1.832,1.832,0,0,0,1.032-.364,2.45,2.45,0,0,0,.823-.982,2.9,2.9,0,0,0,.293-1.249,1.688,1.688,0,0,0-.08-.537,1.242,1.242,0,0,0-.242-.429m-.4.966c-.008.05-.017.1-.024.151a3.865,3.865,0,0,1-.389,1.3c-.292.56-.6.844-.925.844a.5.5,0,0,1-.406-.2.9.9,0,0,1-.166-.579,3.723,3.723,0,0,1,.446-1.713c.29-.563.609-.848.947-.848a.478.478,0,0,1,.393.188.885.885,0,0,1,.156.562,1.71,1.71,0,0,1-.033.288" transform="translate(-82.553 -20.424)" fill="#7e0b27"/>
          <path id="Path_61" data-name="Path 61" d="M333.644,11.85a5.386,5.386,0,0,0,0-2.06,3.023,3.023,0,0,0-.826-1.663,4.417,4.417,0,0,0-2.384-1.119,24.5,24.5,0,0,0-4.091-.268,19.877,19.877,0,0,0-3.034.223,8.616,8.616,0,0,0-2.3.629,6.435,6.435,0,0,0-1.951,1.324,7,7,0,0,0-1.316,2.1l5.375.535a3.084,3.084,0,0,1,1.138-1.226,4.784,4.784,0,0,1,2.2-.419,2.005,2.005,0,0,1,1.461.393,1.576,1.576,0,0,1,.158,1.373c-.764.259-1.486.473-2.154.633s-2.126.442-4.363.843a8.6,8.6,0,0,0-4,1.516,4.438,4.438,0,0,0-1.525,2.6,2.932,2.932,0,0,0,.818,2.831,5.325,5.325,0,0,0,3.84,1.15,10.972,10.972,0,0,0,3.654-.575,9.6,9.6,0,0,0,2.532-1.435,5.426,5.426,0,0,0,.021.882,4.122,4.122,0,0,0,.259.816h5.388a5.538,5.538,0,0,1-.3-1.417,7.025,7.025,0,0,1,.173-1.535Zm-6.286,3.343a3.911,3.911,0,0,1-.666,1.615,3.72,3.72,0,0,1-1.381,1.053,4.38,4.38,0,0,1-1.872.428,1.81,1.81,0,0,1-1.312-.4,1.078,1.078,0,0,1-.264-1.025,1.645,1.645,0,0,1,.678-.981,7.291,7.291,0,0,1,2.384-.848q1.339-.3,2.6-.7Z" transform="translate(-83.219 -1.775)" fill="#7e0b27" fill-rule="evenodd"/>
          <path id="Path_62" data-name="Path 62" d="M307.6,7.169h5.743l-2.79,13.872h-5.744Z" transform="translate(-80.283 -1.888)" fill="#7e0b27" fill-rule="evenodd"/>
          <path id="Path_63" data-name="Path 63" d="M309.778,0h5.743l-.729,3.621h-5.743Z" transform="translate(-81.401 -0.001)" fill="#7e0b27" fill-rule="evenodd"/>
          <path id="Path_64" data-name="Path 64" d="M268.549,7.055h5.357L273.5,9.08a9.928,9.928,0,0,1,2.7-1.806,7.644,7.644,0,0,1,2.952-.536,5.089,5.089,0,0,1,2.713.589,3.386,3.386,0,0,1,1.356,1.753,11.246,11.246,0,0,1,2.842-1.85,7.577,7.577,0,0,1,2.847-.491,4.253,4.253,0,0,1,3.5,1.329c.728.883.9,2.266.519,4.147l-1.752,8.713h-5.753l1.59-7.9a1.871,1.871,0,0,0-.113-1.4,1.42,1.42,0,0,0-1.295-.718,2.587,2.587,0,0,0-1.772.678,3.881,3.881,0,0,0-1.056,2.185l-1.44,7.157h-5.757l1.537-7.643a4.588,4.588,0,0,0,.138-1.24,1.331,1.331,0,0,0-.466-.843,1.512,1.512,0,0,0-.994-.32,2.574,2.574,0,0,0-1.761.691,4.05,4.05,0,0,0-1.092,2.274l-1.425,7.081h-5.753Z" transform="translate(-69.998 -1.775)" fill="#7e0b27" fill-rule="evenodd"/>
          <path id="Path_65" data-name="Path 65" d="M256.762,0h5.758l-3.853,19.151H252.91Z" transform="translate(-66.614 -0.001)" fill="#7e0b27" fill-rule="evenodd"/>
          <path id="Path_66" data-name="Path 66" d="M244.121,11.85a5.357,5.357,0,0,0,0-2.06,3.013,3.013,0,0,0-.826-1.663,4.412,4.412,0,0,0-2.384-1.119,24.51,24.51,0,0,0-4.092-.268,19.884,19.884,0,0,0-3.034.223,8.6,8.6,0,0,0-2.3.629,6.426,6.426,0,0,0-1.951,1.324,7,7,0,0,0-1.317,2.1l5.375.535a3.088,3.088,0,0,1,1.137-1.226,4.79,4.79,0,0,1,2.2-.419,2.007,2.007,0,0,1,1.461.393,1.583,1.583,0,0,1,.158,1.373c-.765.259-1.487.473-2.155.633s-2.125.442-4.362.843a8.6,8.6,0,0,0-4,1.516,4.441,4.441,0,0,0-1.525,2.6,2.932,2.932,0,0,0,.818,2.831,5.325,5.325,0,0,0,3.84,1.15,10.968,10.968,0,0,0,3.654-.575,9.608,9.608,0,0,0,2.533-1.435,5.455,5.455,0,0,0,.02.882,4.087,4.087,0,0,0,.26.816h5.386a5.6,5.6,0,0,1-.3-1.417,6.989,6.989,0,0,1,.174-1.535Zm-6.285,3.343a3.922,3.922,0,0,1-.667,1.615,3.707,3.707,0,0,1-1.381,1.053,4.375,4.375,0,0,1-1.872.428,1.807,1.807,0,0,1-1.312-.4,1.076,1.076,0,0,1-.265-1.025,1.648,1.648,0,0,1,.678-.981,7.3,7.3,0,0,1,2.384-.848q1.339-.3,2.605-.7Z" transform="translate(-59.64 -1.775)" fill="#7e0b27"/>
          <path id="Path_67" data-name="Path 67" d="M236.153,13.265Z" transform="translate(-62.201 -3.494)" fill="#7e0b27"/>
          <path id="Path_68" data-name="Path 68" d="M220.177,5.8a6.638,6.638,0,0,0-1.018-3.072A5.54,5.54,0,0,0,216.711.706a11.128,11.128,0,0,0-4.393-.7h-9.493l-3.852,19.151h9.493a17.251,17.251,0,0,0,3.914-.522,8.855,8.855,0,0,0,3.181-1.525,10.451,10.451,0,0,0,2.664-2.832,13.867,13.867,0,0,0,1.714-4.763,12.971,12.971,0,0,0,.24-3.709M213.5,9.629a9.744,9.744,0,0,1-1.146,3.327,3.858,3.858,0,0,1-1.618,1.436,7.688,7.688,0,0,1-2.932.41h-1.566L208.34,4.341h1.593q2.485,0,3.332,1.123t.231,4.165" transform="translate(-52.408 -0.001)" fill="#7e0b27" fill-rule="evenodd"/>
          <path id="Path_69" data-name="Path 69" d="M177.406,18.768h6.138L182.472,24.1h-6.137Z" transform="translate(-46.445 -4.943)" fill="#7e0b27" fill-rule="evenodd"/>
          <path id="Path_70" data-name="Path 70" d="M152.771,0h6.392l-2.9,14.435h9.97l-.949,4.717H148.918Z" transform="translate(-39.224 -0.001)" fill="#7e0b27" fill-rule="evenodd"/>
          <path id="Path_71" data-name="Path 71" d="M125.064,18.768H131.2L130.13,24.1h-6.138Z" transform="translate(-32.658 -4.943)" fill="#7e0b27" fill-rule="evenodd"/>
          <path id="Path_72" data-name="Path 72" d="M95.735,0H101.7L107.357,10.6,109.489,0h6.023l-3.853,19.151h-6.022L100.006,8.638,97.891,19.153H91.883Z" transform="translate(-24.201 -0.001)" fill="#7e0b27" fill-rule="evenodd"/>
          <path id="Path_73" data-name="Path 73" d="M345.724,6.778a3.133,3.133,0,1,1,3.132-3.134,3.135,3.135,0,0,1-3.132,3.134m0-5.683a2.55,2.55,0,1,0,2.549,2.549,2.552,2.552,0,0,0-2.549-2.549" transform="translate(-90.236 -0.135)" fill="#7e0b27"/>
          <path id="Path_74" data-name="Path 74" d="M345.735,3.94h.487a2.568,2.568,0,0,0,.593-.039A.357.357,0,0,0,347,3.762a.433.433,0,0,0,.066-.245.389.389,0,0,0-.088-.266.4.4,0,0,0-.248-.128c-.053-.007-.214-.011-.48-.011h-.514Zm-.659,1.884V2.56h1.387a2.383,2.383,0,0,1,.76.088.754.754,0,0,1,.379.312.94.94,0,0,1,.142.514.876.876,0,0,1-.216.608,1.041,1.041,0,0,1-.645.3,1.513,1.513,0,0,1,.353.274,3.7,3.7,0,0,1,.375.529l.4.637h-.787l-.477-.71a4.646,4.646,0,0,0-.348-.48.509.509,0,0,0-.2-.136,1.124,1.124,0,0,0-.332-.036h-.133V5.823Z" transform="translate(-90.89 -0.674)" fill="#7e0b27" fill-rule="evenodd"/>
          <path id="Path_75" data-name="Path 75" d="M97.474,33.114l-1.92,8.964H92.747l1.92-8.964Z" transform="translate(-24.429 -8.722)" fill="#7e0b27"/>
          <path id="Path_76" data-name="Path 76" d="M102.149,37.427a3.236,3.236,0,0,1,2.507-1.15,1.773,1.773,0,0,1,1.321.449,1.515,1.515,0,0,1,.44,1.1,9.332,9.332,0,0,1-.245,1.541l-.752,3.54h-2.495l.642-3.013a12.428,12.428,0,0,0,.232-1.266q0-.539-.489-.538a1.2,1.2,0,0,0-.96.516,3.6,3.6,0,0,0-.617,1.489l-.612,2.812H98.615l1.394-6.487h2.329l-.214.978Z" transform="translate(-25.974 -9.555)" fill="#7e0b27"/>
          <path id="Path_77" data-name="Path 77" d="M116.776,37.976l-2.33.251q-.1-.587-.874-.587a1.18,1.18,0,0,0-.684.165.471.471,0,0,0-.233.385.452.452,0,0,0,.2.376,3.16,3.16,0,0,0,1.1.278,3.851,3.851,0,0,1,1.911.645,1.482,1.482,0,0,1,.474,1.152,2.1,2.1,0,0,1-.93,1.712,4.641,4.641,0,0,1-2.831.709,4.412,4.412,0,0,1-2.275-.452,1.909,1.909,0,0,1-.844-1.492l2.458-.214a.932.932,0,0,0,1.039.788,1.455,1.455,0,0,0,.725-.177.556.556,0,0,0,.315-.508.4.4,0,0,0-.226-.4,3.756,3.756,0,0,0-.856-.2,4.014,4.014,0,0,1-1.962-.685,1.483,1.483,0,0,1-.514-1.156,1.909,1.909,0,0,1,.385-1.112,2.546,2.546,0,0,1,1.165-.86,5.138,5.138,0,0,1,1.917-.315,4.208,4.208,0,0,1,2,.382,1.783,1.783,0,0,1,.871,1.317" transform="translate(-28.832 -9.555)" fill="#7e0b27"/>
          <path id="Path_78" data-name="Path 78" d="M125.3,35.618l-.379,1.779h-1.3l-.477,2.292A.97.97,0,0,0,123.1,40q0,.441.581.44a5.183,5.183,0,0,0,.77-.116l-.373,1.78a13.757,13.757,0,0,1-1.651.152,1.883,1.883,0,0,1-1.482-.5,1.631,1.631,0,0,1-.438-1.095,7.685,7.685,0,0,1,.178-1.046l.464-2.219h-.892l.367-1.779h.91l.214-1.016,2.782-1.388-.513,2.4Z" transform="translate(-31.674 -8.748)" fill="#7e0b27"/>
          <path id="Path_79" data-name="Path 79" d="M130.7,35.59,129.3,42.078h-2.5l1.388-6.487Zm.513-2.476-.354,1.712h-2.489l.348-1.712Z" transform="translate(-33.399 -8.722)" fill="#7e0b27"/>
          <path id="Path_80" data-name="Path 80" d="M137.729,35.618,137.35,37.4h-1.3l-.477,2.292a.97.97,0,0,0-.049.312q0,.441.581.44a5.182,5.182,0,0,0,.77-.116L136.5,42.1a13.757,13.757,0,0,1-1.651.152,1.883,1.883,0,0,1-1.482-.5,1.631,1.631,0,0,1-.438-1.095,7.684,7.684,0,0,1,.178-1.046l.464-2.219h-.892l.367-1.779h.91l.214-1.016,2.782-1.388-.513,2.4Z" transform="translate(-34.946 -8.748)" fill="#7e0b27"/>
          <path id="Path_81" data-name="Path 81" d="M147.514,36.477l-1.388,6.487h-2.342l.226-.991-.031-.024a3.187,3.187,0,0,1-2.5,1.168,1.785,1.785,0,0,1-1.335-.455,1.517,1.517,0,0,1-.443-1.1,9.483,9.483,0,0,1,.256-1.614l.759-3.473H143.2l-.685,3.167q-.147.7-.168.81a1.556,1.556,0,0,0-.021.278v.018c0,.35.159.526.477.526a1.221,1.221,0,0,0,.975-.514,3.527,3.527,0,0,0,.621-1.473l.605-2.812Z" transform="translate(-36.796 -9.608)" fill="#7e0b27"/>
          <path id="Path_82" data-name="Path 82" d="M155.831,35.618l-.379,1.779h-1.3l-.477,2.292a.97.97,0,0,0-.049.312q0,.441.581.44a5.183,5.183,0,0,0,.771-.116L154.6,42.1a13.756,13.756,0,0,1-1.651.152,1.883,1.883,0,0,1-1.482-.5,1.631,1.631,0,0,1-.437-1.095,7.687,7.687,0,0,1,.177-1.046l.464-2.219h-.892l.367-1.779h.91l.214-1.016,2.782-1.388-.513,2.4Z" transform="translate(-39.714 -8.748)" fill="#7e0b27"/>
          <path id="Path_83" data-name="Path 83" d="M164.912,41.248a3.266,3.266,0,0,1-1.421,1.391,5.041,5.041,0,0,1-2.2.424,3.616,3.616,0,0,1-2.73-.865,2.986,2.986,0,0,1-.81-2.119,3.637,3.637,0,0,1,.379-1.635,3.766,3.766,0,0,1,1.027-1.287,3.7,3.7,0,0,1,1.278-.7,5.389,5.389,0,0,1,1.474-.18,3.587,3.587,0,0,1,2.6.788A2.635,2.635,0,0,1,165.3,39a8.607,8.607,0,0,1-.166,1.3h-4.946q.1,1.3,1.168,1.3a1.35,1.35,0,0,0,1.149-.587ZM162.833,39.1a1.27,1.27,0,0,0,.043-.373.928.928,0,0,0-.3-.748,1.081,1.081,0,0,0-.73-.254,1.238,1.238,0,0,0-.844.345,2.172,2.172,0,0,0-.587,1.03Z" transform="translate(-41.551 -9.555)" fill="#7e0b27"/>
          <path id="Path_84" data-name="Path 84" d="M178.049,36.277a3.275,3.275,0,0,1,2.541.881,2.969,2.969,0,0,1,.8,2.06,4.115,4.115,0,0,1-.459,1.828,3.464,3.464,0,0,1-1.379,1.473,4.386,4.386,0,0,1-2.265.544,3.366,3.366,0,0,1-2.519-.84,2.894,2.894,0,0,1-.813-2.095,4.008,4.008,0,0,1,.486-1.9,3.484,3.484,0,0,1,1.409-1.433,4.437,4.437,0,0,1,2.2-.517m-.6,5.105a1.238,1.238,0,0,0,1.106-.712,3.111,3.111,0,0,0,.41-1.58,1.083,1.083,0,0,0-.312-.884,1.068,1.068,0,0,0-.691-.254,1.273,1.273,0,0,0-1.183.715,3,3,0,0,0-.394,1.461,1.323,1.323,0,0,0,.309.9.961.961,0,0,0,.755.357" transform="translate(-45.818 -9.555)" fill="#7e0b27"/>
          <path id="Path_85" data-name="Path 85" d="M190.69,33.181l-.4,1.48a2.836,2.836,0,0,0-.868-.166.7.7,0,0,0-.443.132,1.9,1.9,0,0,0-.334.908h1.18l-.379,1.779h-1.173l-.991,4.708h-2.507l1.015-4.708h-.924l.373-1.779h.93a13.559,13.559,0,0,1,.345-1.467,1.678,1.678,0,0,1,.391-.615,1.65,1.65,0,0,1,.685-.412,3.22,3.22,0,0,1,.994-.136,9.924,9.924,0,0,1,2.1.275" transform="translate(-48.669 -8.667)" fill="#7e0b27"/>
          <path id="Path_86" data-name="Path 86" d="M210.962,33.114l-1.932,8.964h-2.3l1.657-6.848h-.037l-3.32,6.848h-2.042L202.6,35.23h-.025l-1.29,6.848h-2.306l1.914-8.964h3.381l.337,5.681h.024l2.843-5.681Z" transform="translate(-52.409 -8.722)" fill="#7e0b27"/>
          <path id="Path_87" data-name="Path 87" d="M215.563,38.2a2.251,2.251,0,0,1,1.031-1.425,6.814,6.814,0,0,1,5.075-.021,1.612,1.612,0,0,1,.67,1.4A9.946,9.946,0,0,1,222,40.167a9.574,9.574,0,0,0-.312,1.846,2.714,2.714,0,0,0,.159.9h-2.428a3.424,3.424,0,0,1-.085-.74,3.16,3.16,0,0,1-2.183.892,2.334,2.334,0,0,1-1.768-.574,1.894,1.894,0,0,1-.538-1.333,1.726,1.726,0,0,1,.479-1.315,2.519,2.519,0,0,1,1.184-.614,16.189,16.189,0,0,1,1.92-.284,9.506,9.506,0,0,0,1.443-.227,1.955,1.955,0,0,0,.074-.44.443.443,0,0,0-.248-.391,1.284,1.284,0,0,0-.658-.147,1.518,1.518,0,0,0-.694.137,1.168,1.168,0,0,0-.468.579Zm4.036,1.8a6.9,6.9,0,0,0-2.018.508.636.636,0,0,0-.3.52.606.606,0,0,0,.214.492.82.82,0,0,0,.55.181,1.462,1.462,0,0,0,.932-.383,2.115,2.115,0,0,0,.621-1.318" transform="translate(-56.589 -9.555)" fill="#7e0b27"/>
          <path id="Path_88" data-name="Path 88" d="M228.989,37.427a3.236,3.236,0,0,1,2.507-1.15,1.773,1.773,0,0,1,1.321.449,1.515,1.515,0,0,1,.44,1.1,9.251,9.251,0,0,1-.245,1.541l-.752,3.54h-2.494l.642-3.013a12.192,12.192,0,0,0,.232-1.266c0-.359-.162-.538-.489-.538a1.2,1.2,0,0,0-.96.516,3.605,3.605,0,0,0-.617,1.489l-.612,2.812h-2.507l1.394-6.487h2.33l-.214.978Z" transform="translate(-59.383 -9.555)" fill="#7e0b27"/>
          <path id="Path_89" data-name="Path 89" d="M237.459,38.2a2.252,2.252,0,0,1,1.031-1.425,6.814,6.814,0,0,1,5.075-.021,1.611,1.611,0,0,1,.669,1.4,9.982,9.982,0,0,1-.336,2.012,9.592,9.592,0,0,0-.312,1.846,2.733,2.733,0,0,0,.159.9h-2.427a3.379,3.379,0,0,1-.085-.74,3.161,3.161,0,0,1-2.183.892,2.331,2.331,0,0,1-1.767-.574,1.891,1.891,0,0,1-.538-1.333,1.723,1.723,0,0,1,.48-1.315,2.515,2.515,0,0,1,1.184-.614,16.141,16.141,0,0,1,1.92-.284,9.522,9.522,0,0,0,1.443-.227,1.955,1.955,0,0,0,.074-.44.443.443,0,0,0-.247-.391,1.286,1.286,0,0,0-.658-.147,1.516,1.516,0,0,0-.694.137,1.169,1.169,0,0,0-.468.579Zm4.036,1.8a6.915,6.915,0,0,0-2.018.508.638.638,0,0,0-.3.52.608.608,0,0,0,.214.492.823.823,0,0,0,.55.181,1.462,1.462,0,0,0,.933-.383,2.115,2.115,0,0,0,.62-1.318" transform="translate(-62.356 -9.555)" fill="#7e0b27"/>
          <path id="Path_90" data-name="Path 90" d="M255.769,36.425l-1.29,6.1a3.9,3.9,0,0,1-1.216,2.413,4.086,4.086,0,0,1-2.415.6,6.315,6.315,0,0,1-1.727-.183,2.067,2.067,0,0,1-1.056-.755,1.987,1.987,0,0,1-.44-1.238,2.638,2.638,0,0,1,.011-.3l2.373.337a.632.632,0,0,0,.72.66,1,1,0,0,0,.753-.312,1.954,1.954,0,0,0,.44-.941l.214-.972-.025-.024a2.578,2.578,0,0,1-1.92.861,1.96,1.96,0,0,1-1.586-.706,2.8,2.8,0,0,1-.591-1.862,4.129,4.129,0,0,1,.927-2.686,2.9,2.9,0,0,1,2.35-1.14,2.359,2.359,0,0,1,1.97,1.063l.2-.916ZM251.325,41a1.114,1.114,0,0,0,1.039-.743,3.317,3.317,0,0,0,.348-1.4.922.922,0,0,0-.247-.663.8.8,0,0,0-.6-.261,1.2,1.2,0,0,0-1,.649,2.586,2.586,0,0,0-.422,1.443,1,1,0,0,0,.247.717.834.834,0,0,0,.634.261" transform="translate(-65.223 -9.555)" fill="#7e0b27"/>
          <path id="Path_91" data-name="Path 91" d="M265.974,41.248a3.27,3.27,0,0,1-1.421,1.391,5.041,5.041,0,0,1-2.2.424,3.616,3.616,0,0,1-2.73-.865,2.986,2.986,0,0,1-.81-2.119,3.646,3.646,0,0,1,.379-1.635,3.777,3.777,0,0,1,1.028-1.287,3.7,3.7,0,0,1,1.278-.7,5.38,5.38,0,0,1,1.473-.18,3.586,3.586,0,0,1,2.6.788,2.635,2.635,0,0,1,.79,1.938,8.706,8.706,0,0,1-.166,1.3h-4.946q.1,1.3,1.168,1.3a1.35,1.35,0,0,0,1.15-.587ZM263.9,39.1a1.294,1.294,0,0,0,.043-.373.928.928,0,0,0-.3-.748,1.082,1.082,0,0,0-.731-.254,1.235,1.235,0,0,0-.843.345,2.166,2.166,0,0,0-.587,1.03Z" transform="translate(-68.169 -9.555)" fill="#7e0b27"/>
          <path id="Path_92" data-name="Path 92" d="M276.931,37.378a4.506,4.506,0,0,1,1.284-.869,3.3,3.3,0,0,1,1.235-.231,1.729,1.729,0,0,1,1.321.468,1.593,1.593,0,0,1,.441,1.134,3.692,3.692,0,0,1-.08.771l-.923,4.261h-2.5l.6-2.77c.151-.706.235-1.125.251-1.26s.024-.228.024-.281q0-.508-.477-.508a1.122,1.122,0,0,0-.921.465,3.671,3.671,0,0,0-.578,1.467l-.617,2.886h-2.5l.587-2.721q.233-1.095.26-1.3a2.487,2.487,0,0,0,.028-.306.441.441,0,0,0-.5-.495,1.212,1.212,0,0,0-.8.388,2.5,2.5,0,0,0-.62,1.318l-.673,3.112h-2.507l1.394-6.487h2.317l-.2.93.025.024a3.277,3.277,0,0,1,2.4-1.1,2.039,2.039,0,0,1,1.083.287,1.474,1.474,0,0,1,.648.813" transform="translate(-70.922 -9.555)" fill="#7e0b27"/>
          <path id="Path_93" data-name="Path 93" d="M293.531,41.248a3.266,3.266,0,0,1-1.421,1.391,5.039,5.039,0,0,1-2.2.424,3.618,3.618,0,0,1-2.73-.865,2.985,2.985,0,0,1-.81-2.119,3.636,3.636,0,0,1,.379-1.635,3.759,3.759,0,0,1,1.028-1.287,3.7,3.7,0,0,1,1.277-.7,5.39,5.39,0,0,1,1.474-.18,3.586,3.586,0,0,1,2.6.788A2.635,2.635,0,0,1,293.923,39a8.676,8.676,0,0,1-.165,1.3h-4.947q.1,1.3,1.168,1.3a1.352,1.352,0,0,0,1.15-.587ZM291.452,39.1a1.266,1.266,0,0,0,.043-.373.929.929,0,0,0-.3-.748,1.08,1.08,0,0,0-.73-.254,1.235,1.235,0,0,0-.843.345,2.166,2.166,0,0,0-.587,1.03Z" transform="translate(-75.428 -9.555)" fill="#7e0b27"/>
          <path id="Path_94" data-name="Path 94" d="M300.338,37.427a3.236,3.236,0,0,1,2.507-1.15,1.773,1.773,0,0,1,1.321.449,1.515,1.515,0,0,1,.44,1.1,9.252,9.252,0,0,1-.245,1.541l-.752,3.54h-2.494l.642-3.013a12.2,12.2,0,0,0,.232-1.266c0-.359-.162-.538-.489-.538a1.2,1.2,0,0,0-.96.516,3.605,3.605,0,0,0-.617,1.489l-.612,2.812H296.8l1.394-6.487h2.33l-.214.978Z" transform="translate(-78.176 -9.555)" fill="#7e0b27"/>
          <path id="Path_95" data-name="Path 95" d="M313.5,35.618l-.379,1.779h-1.3l-.477,2.292a.99.99,0,0,0-.049.312q0,.441.581.44a5.184,5.184,0,0,0,.771-.116l-.373,1.78a13.735,13.735,0,0,1-1.651.152,1.886,1.886,0,0,1-1.483-.5,1.635,1.635,0,0,1-.438-1.095,7.605,7.605,0,0,1,.178-1.046l.464-2.219h-.892l.367-1.779h.91l.214-1.016,2.781-1.388-.513,2.4Z" transform="translate(-81.243 -8.748)" fill="#7e0b27"/>
          <path id="Path_96" data-name="Path 96" d="M100.436,56.547l-2.593.141a1.145,1.145,0,0,0-1.3-1.168,1.2,1.2,0,0,0-.761.212.625.625,0,0,0-.266.5.551.551,0,0,0,.214.407,3.73,3.73,0,0,0,1.015.492,13.907,13.907,0,0,1,1.651.74,3.109,3.109,0,0,1,1.039.9,2.3,2.3,0,0,1,.4,1.388,2.635,2.635,0,0,1-.438,1.459,3.307,3.307,0,0,1-1.26,1.112,5.065,5.065,0,0,1-2.339.437,4.449,4.449,0,0,1-3.027-.818,2.728,2.728,0,0,1-.893-2.1v-.208l2.6-.177a1.568,1.568,0,0,0,.371,1.183,1.439,1.439,0,0,0,1.024.345,1.539,1.539,0,0,0,1.006-.287.839.839,0,0,0,.345-.654.727.727,0,0,0-.219-.508A3.2,3.2,0,0,0,95.93,59.4a6.6,6.6,0,0,1-2.5-1.308,2.124,2.124,0,0,1-.522-1.443,2.454,2.454,0,0,1,.431-1.407,2.789,2.789,0,0,1,1.253-.987,4.994,4.994,0,0,1,1.973-.352q3.637,0,3.87,2.641" transform="translate(-24.201 -14.199)" fill="#7e0b27"/>
          <path id="Path_97" data-name="Path 97" d="M108.869,56.618,108.49,58.4h-1.3l-.477,2.292a.97.97,0,0,0-.049.312q0,.441.581.44a5.183,5.183,0,0,0,.77-.116l-.373,1.78a13.756,13.756,0,0,1-1.651.152,1.883,1.883,0,0,1-1.482-.5,1.631,1.631,0,0,1-.438-1.095,7.682,7.682,0,0,1,.178-1.046l.464-2.219h-.892l.367-1.779h.91l.214-1.016,2.782-1.388-.513,2.4Z" transform="translate(-27.345 -14.28)" fill="#7e0b27"/>
          <path id="Path_98" data-name="Path 98" d="M118.654,57.477l-1.388,6.487h-2.342l.226-.991-.031-.024a3.187,3.187,0,0,1-2.5,1.168,1.785,1.785,0,0,1-1.335-.455,1.517,1.517,0,0,1-.443-1.1,9.48,9.48,0,0,1,.256-1.614l.759-3.473h2.488l-.685,3.167q-.147.7-.168.81a1.556,1.556,0,0,0-.021.278v.018c0,.35.159.526.477.526a1.221,1.221,0,0,0,.975-.514,3.527,3.527,0,0,0,.621-1.473l.605-2.812Z" transform="translate(-29.194 -15.139)" fill="#7e0b27"/>
          <path id="Path_99" data-name="Path 99" d="M130.1,54.114l-1.925,8.964h-2.306l.122-.648-.024-.031a3.251,3.251,0,0,1-.951.66,2.685,2.685,0,0,1-1.012.172,2.031,2.031,0,0,1-1.685-.73,3.064,3.064,0,0,1-.583-1.966,4.816,4.816,0,0,1,.877-2.877,2.635,2.635,0,0,1,2.216-1.226,2.34,2.34,0,0,1,2.067,1.022l.709-3.338ZM125.015,61.6a1.156,1.156,0,0,0,1.061-.773,3.627,3.627,0,0,0,.37-1.581,1.144,1.144,0,0,0-.29-.853.923.923,0,0,0-.664-.284,1.113,1.113,0,0,0-.935.693,3.357,3.357,0,0,0-.391,1.673,1.294,1.294,0,0,0,.236.838.756.756,0,0,0,.614.287" transform="translate(-32.065 -14.253)" fill="#7e0b27"/>
          <path id="Path_100" data-name="Path 100" d="M136.157,56.59l-1.394,6.487h-2.5l1.388-6.487Zm.513-2.476-.354,1.712h-2.489l.348-1.712Z" transform="translate(-34.837 -14.253)" fill="#7e0b27"/>
          <path id="Path_101" data-name="Path 101" d="M145.116,62.248a3.266,3.266,0,0,1-1.421,1.391,5.041,5.041,0,0,1-2.2.424,3.616,3.616,0,0,1-2.73-.865,2.986,2.986,0,0,1-.81-2.119,3.637,3.637,0,0,1,.379-1.635,3.766,3.766,0,0,1,1.027-1.287,3.7,3.7,0,0,1,1.278-.7,5.389,5.389,0,0,1,1.474-.18,3.587,3.587,0,0,1,2.6.788A2.635,2.635,0,0,1,145.508,60a8.608,8.608,0,0,1-.166,1.3H140.4q.1,1.3,1.168,1.3a1.35,1.35,0,0,0,1.149-.587ZM143.037,60.1a1.27,1.27,0,0,0,.043-.373.928.928,0,0,0-.3-.748,1.081,1.081,0,0,0-.73-.254,1.238,1.238,0,0,0-.844.345,2.172,2.172,0,0,0-.587,1.03Z" transform="translate(-36.336 -15.086)" fill="#7e0b27"/>
          <path id="Path_102" data-name="Path 102" d="M155.6,58.976l-2.33.251q-.1-.587-.874-.587a1.18,1.18,0,0,0-.684.165.471.471,0,0,0-.233.385.452.452,0,0,0,.2.376,3.16,3.16,0,0,0,1.1.278,3.851,3.851,0,0,1,1.911.645,1.482,1.482,0,0,1,.474,1.152,2.1,2.1,0,0,1-.93,1.712,4.641,4.641,0,0,1-2.831.709,4.413,4.413,0,0,1-2.275-.452,1.909,1.909,0,0,1-.844-1.492l2.458-.214a.932.932,0,0,0,1.039.788,1.455,1.455,0,0,0,.725-.177.556.556,0,0,0,.315-.508.4.4,0,0,0-.226-.4,3.756,3.756,0,0,0-.856-.2,4.014,4.014,0,0,1-1.962-.685,1.483,1.483,0,0,1-.514-1.156,1.909,1.909,0,0,1,.385-1.112,2.547,2.547,0,0,1,1.165-.86,5.138,5.138,0,0,1,1.917-.315,4.208,4.208,0,0,1,2,.382,1.783,1.783,0,0,1,.871,1.317" transform="translate(-39.058 -15.086)" fill="#7e0b27"/>
          <path id="Path_103" data-name="Path 103" d="M164.708,59.2a2.251,2.251,0,0,1,1.031-1.425,6.814,6.814,0,0,1,5.075-.021,1.61,1.61,0,0,1,.67,1.4,9.946,9.946,0,0,1-.337,2.012,9.634,9.634,0,0,0-.312,1.846,2.733,2.733,0,0,0,.159.9h-2.428a3.426,3.426,0,0,1-.085-.74,3.159,3.159,0,0,1-2.183.892,2.331,2.331,0,0,1-1.767-.574,1.892,1.892,0,0,1-.538-1.333,1.723,1.723,0,0,1,.48-1.315,2.513,2.513,0,0,1,1.183-.614,16.181,16.181,0,0,1,1.92-.284,9.537,9.537,0,0,0,1.443-.227,1.944,1.944,0,0,0,.073-.44.442.442,0,0,0-.247-.391,1.281,1.281,0,0,0-.657-.147,1.519,1.519,0,0,0-.695.137,1.169,1.169,0,0,0-.468.579Zm4.036,1.8a6.916,6.916,0,0,0-2.018.508.638.638,0,0,0-.3.52.608.608,0,0,0,.214.492.82.82,0,0,0,.55.181,1.462,1.462,0,0,0,.933-.383,2.115,2.115,0,0,0,.62-1.318" transform="translate(-43.194 -15.087)" fill="#7e0b27"/>
          <path id="Path_104" data-name="Path 104" d="M178.134,58.427a3.235,3.235,0,0,1,2.507-1.15,1.773,1.773,0,0,1,1.321.449,1.515,1.515,0,0,1,.44,1.1,9.329,9.329,0,0,1-.245,1.541l-.753,3.54h-2.494l.642-3.013a12.423,12.423,0,0,0,.232-1.266q0-.539-.489-.538a1.2,1.2,0,0,0-.961.516,3.6,3.6,0,0,0-.617,1.489l-.612,2.812H174.6l1.394-6.487h2.329l-.214.978Z" transform="translate(-45.988 -15.086)" fill="#7e0b27"/>
          <path id="Path_105" data-name="Path 105" d="M194.426,54.114,192.5,63.078H190.2l.122-.648-.024-.031a3.271,3.271,0,0,1-.951.66,2.686,2.686,0,0,1-1.011.172,2.03,2.03,0,0,1-1.685-.73,3.06,3.06,0,0,1-.583-1.966,4.82,4.82,0,0,1,.877-2.877,2.636,2.636,0,0,1,2.216-1.226,2.339,2.339,0,0,1,2.067,1.022l.709-3.338ZM189.34,61.6a1.154,1.154,0,0,0,1.06-.773,3.626,3.626,0,0,0,.37-1.581,1.143,1.143,0,0,0-.289-.853.929.929,0,0,0-.665-.284,1.112,1.112,0,0,0-.935.693,3.356,3.356,0,0,0-.391,1.673,1.294,1.294,0,0,0,.235.838.759.759,0,0,0,.615.287" transform="translate(-49.007 -14.253)" fill="#7e0b27"/>
          <path id="Path_106" data-name="Path 106" d="M203.858,54.115h5.1a2.452,2.452,0,0,1,1.932.691,2.426,2.426,0,0,1,.611,1.663,2.806,2.806,0,0,1-.648,1.837,3.207,3.207,0,0,1-2.073,1.005,10.239,10.239,0,0,1,2.018,3.767h-2.929q-.367-.972-.866-2.125a4.119,4.119,0,0,0-.749-1.336,1,1,0,0,0-.6-.183H205.5l-.764,3.645h-2.783Zm2.006,3.644h.525a7.257,7.257,0,0,0,1.708-.122,1.063,1.063,0,0,0,.768-.972.677.677,0,0,0-.225-.538,1.649,1.649,0,0,0-.986-.2h-1.407Z" transform="translate(-53.193 -14.254)" fill="#7e0b27"/>
          <path id="Path_107" data-name="Path 107" d="M221.691,62.248a3.262,3.262,0,0,1-1.421,1.391,5.037,5.037,0,0,1-2.2.424,3.615,3.615,0,0,1-2.729-.865,2.982,2.982,0,0,1-.81-2.119,3.636,3.636,0,0,1,.378-1.635,3.759,3.759,0,0,1,1.028-1.287,3.7,3.7,0,0,1,1.277-.7,5.388,5.388,0,0,1,1.474-.18,3.586,3.586,0,0,1,2.6.788A2.635,2.635,0,0,1,222.083,60a8.675,8.675,0,0,1-.165,1.3h-4.947q.1,1.3,1.169,1.3a1.352,1.352,0,0,0,1.149-.587ZM219.613,60.1a1.294,1.294,0,0,0,.043-.373.928.928,0,0,0-.3-.748,1.083,1.083,0,0,0-.731-.254,1.232,1.232,0,0,0-.843.345,2.167,2.167,0,0,0-.588,1.03Z" transform="translate(-56.506 -15.086)" fill="#7e0b27"/>
          <path id="Path_108" data-name="Path 108" d="M232.178,58.976l-2.329.251q-.105-.587-.875-.587a1.182,1.182,0,0,0-.684.165.473.473,0,0,0-.233.385.451.451,0,0,0,.206.376,3.149,3.149,0,0,0,1.1.278,3.854,3.854,0,0,1,1.911.645,1.484,1.484,0,0,1,.474,1.152,2.1,2.1,0,0,1-.93,1.712,4.641,4.641,0,0,1-2.831.709,4.412,4.412,0,0,1-2.275-.452,1.911,1.911,0,0,1-.844-1.492l2.458-.214a.932.932,0,0,0,1.039.788,1.458,1.458,0,0,0,.726-.177.557.557,0,0,0,.314-.508.4.4,0,0,0-.225-.4,3.777,3.777,0,0,0-.856-.2,4.014,4.014,0,0,1-1.963-.685,1.483,1.483,0,0,1-.514-1.156,1.905,1.905,0,0,1,.386-1.112,2.542,2.542,0,0,1,1.165-.86,5.134,5.134,0,0,1,1.917-.315,4.208,4.208,0,0,1,2,.382,1.782,1.782,0,0,1,.871,1.317" transform="translate(-59.228 -15.086)" fill="#7e0b27"/>
          <path id="Path_109" data-name="Path 109" d="M242.633,62.248a3.27,3.27,0,0,1-1.421,1.391,5.041,5.041,0,0,1-2.2.424,3.616,3.616,0,0,1-2.73-.865,2.986,2.986,0,0,1-.81-2.119,3.646,3.646,0,0,1,.379-1.635,3.777,3.777,0,0,1,1.028-1.287,3.7,3.7,0,0,1,1.278-.7,5.379,5.379,0,0,1,1.473-.18,3.586,3.586,0,0,1,2.6.788,2.635,2.635,0,0,1,.79,1.938,8.708,8.708,0,0,1-.166,1.3h-4.946q.1,1.3,1.168,1.3a1.35,1.35,0,0,0,1.15-.587ZM240.554,60.1a1.3,1.3,0,0,0,.043-.373.928.928,0,0,0-.3-.748,1.082,1.082,0,0,0-.731-.254,1.235,1.235,0,0,0-.843.345,2.166,2.166,0,0,0-.587,1.03Z" transform="translate(-62.022 -15.086)" fill="#7e0b27"/>
          <path id="Path_110" data-name="Path 110" d="M246.962,59.2a2.252,2.252,0,0,1,1.031-1.425,6.814,6.814,0,0,1,5.075-.021,1.611,1.611,0,0,1,.669,1.4,9.982,9.982,0,0,1-.336,2.012,9.593,9.593,0,0,0-.312,1.846,2.732,2.732,0,0,0,.159.9h-2.427a3.381,3.381,0,0,1-.085-.74,3.161,3.161,0,0,1-2.183.892,2.331,2.331,0,0,1-1.767-.574,1.891,1.891,0,0,1-.538-1.333,1.723,1.723,0,0,1,.48-1.315,2.515,2.515,0,0,1,1.184-.614,16.141,16.141,0,0,1,1.92-.284,9.522,9.522,0,0,0,1.443-.227,1.954,1.954,0,0,0,.074-.44.443.443,0,0,0-.247-.391,1.286,1.286,0,0,0-.658-.147,1.516,1.516,0,0,0-.694.137,1.169,1.169,0,0,0-.468.579Zm4.036,1.8a6.915,6.915,0,0,0-2.018.508.638.638,0,0,0-.3.52.608.608,0,0,0,.214.492.823.823,0,0,0,.55.181,1.462,1.462,0,0,0,.933-.383,2.115,2.115,0,0,0,.62-1.318" transform="translate(-64.859 -15.087)" fill="#7e0b27"/>
          <path id="Path_111" data-name="Path 111" d="M263.145,57.473l-.917,1.919a2.309,2.309,0,0,0-.513-.066,1.468,1.468,0,0,0-1.162.513,3.732,3.732,0,0,0-.69,1.645l-.513,2.427h-2.495l1.382-6.487h2.329l-.287,1.277.025.024a4.285,4.285,0,0,1,1.02-1.155,1.706,1.706,0,0,1,.966-.294,2.179,2.179,0,0,1,.856.2" transform="translate(-67.653 -15.086)" fill="#7e0b27"/>
          <path id="Path_112" data-name="Path 112" d="M272.416,59.68l-2.25.122a1.008,1.008,0,0,0-1.142-.85,1.583,1.583,0,0,0-1.4.737,2.846,2.846,0,0,0-.489,1.6.977.977,0,0,0,.349.807,1.171,1.171,0,0,0,.751.281,1.572,1.572,0,0,0,1.48-1.1l2.33.251q-.862,2.531-3.908,2.53-3.43,0-3.43-2.806a3.905,3.905,0,0,1,1.131-2.806,4.221,4.221,0,0,1,3.187-1.174,4.1,4.1,0,0,1,2.353.6,2.453,2.453,0,0,1,1.039,1.8" transform="translate(-69.721 -15.086)" fill="#7e0b27"/>
          <path id="Path_113" data-name="Path 113" d="M278.7,57.379a3.066,3.066,0,0,1,2.3-.935,1.747,1.747,0,0,1,1.312.452,1.525,1.525,0,0,1,.437,1.1,9.252,9.252,0,0,1-.245,1.541l-.752,3.54h-2.494l.642-3.013a12.187,12.187,0,0,0,.232-1.266q0-.539-.489-.538a1.2,1.2,0,0,0-.96.516,3.6,3.6,0,0,0-.617,1.489l-.612,2.812h-2.507l1.932-8.964h2.489l-.7,3.241Z" transform="translate(-72.421 -14.253)" fill="#7e0b27"/>
        </g>
      </g>
    </g>
  </g>
</svg>
