<svg xmlns="http://www.w3.org/2000/svg" xmlns:xlink="http://www.w3.org/1999/xlink" width="463.74" height="112.593" viewBox="0 0 463.74 112.593">
  <defs>
    <clipPath id="clip-path">
      <rect id="Rectangle_7" data-name="Rectangle 7" width="463.74" height="112.593" fill="#fff"/>
    </clipPath>
  </defs>
  <g id="Group_1534" data-name="Group 1534" transform="translate(-159 -61)">
    <g id="Group_3" data-name="Group 3" transform="translate(159 61)">
      <rect id="Rectangle_4" data-name="Rectangle 4" width="8.135" height="1.227" transform="translate(0.001 63.797) rotate(-17.538)" fill="#fff"/>
      <g id="Group_2" data-name="Group 2" transform="translate(0 0)">
        <g id="Group_1" data-name="Group 1" clip-path="url(#clip-path)">
          <path id="Path_1" data-name="Path 1" d="M66.544,19.321a5.038,5.038,0,1,1,5.036-5.039,5.042,5.042,0,0,1-5.036,5.039m0-9.139a4.1,4.1,0,1,0,4.1,4.1,4.1,4.1,0,0,0-4.1-4.1" transform="translate(19.734 2.966)" fill="#fff"/>
          <path id="Path_2" data-name="Path 2" d="M64.8,13.3h.783a4.114,4.114,0,0,0,.952-.063.561.561,0,0,0,.3-.222.694.694,0,0,0,.107-.394.633.633,0,0,0-.141-.428.651.651,0,0,0-.4-.206c-.087-.011-.343-.017-.774-.017H64.8ZM63.735,16.33V11.082h2.231a3.82,3.82,0,0,1,1.222.143,1.215,1.215,0,0,1,.61.5,1.508,1.508,0,0,1,.228.827,1.409,1.409,0,0,1-.347.977,1.668,1.668,0,0,1-1.038.482,2.468,2.468,0,0,1,.568.441,5.923,5.923,0,0,1,.6.852l.642,1.024H67.186l-.766-1.143a7.622,7.622,0,0,0-.559-.771.834.834,0,0,0-.318-.218,1.777,1.777,0,0,0-.534-.059H64.8V16.33Z" transform="translate(20.448 3.555)" fill="#fff" fill-rule="evenodd"/>
          <path id="Path_3" data-name="Path 3" d="M42.72,47.551C37.5,56.181,36.282,66.651,41,75.994l.215.444,3.035-.069.19-.523c3.3-9.507,3.24-19.728-1.72-28.295m.018-2.591c5.507,8.317,7.346,18.245,2.652,31.012l-.108.3-5.1.1-.238-.4q-8.014-14.889,2.792-31.012M40.068,12.986c15.789,14.649,23.034,36.969,9.8,61.753a17.9,17.9,0,0,1-8.529,1.708,30.448,30.448,0,0,1-5.153-.935C12.117,35.7,38.752,32.5,40.068,12.986" transform="translate(8.391 4.166)" fill="#fff" fill-rule="evenodd"/>
          <path id="Path_4" data-name="Path 4" d="M46.5,7.846A36.084,36.084,0,1,1,10.415,43.929,36.088,36.088,0,0,1,46.5,7.846m0,2.887a33.2,33.2,0,1,1-33.2,33.2,33.2,33.2,0,0,1,33.2-33.2" transform="translate(3.341 2.517)" fill="#fff" fill-rule="evenodd"/>
          <path id="Path_5" data-name="Path 5" d="M21.3,71.3l-1.695-1.445a2.318,2.318,0,0,0,.89-.8l.491-.576q.731.573,1.487,1.117Zm-5.332-7.38-1.74,1.767L12.8,64.052l1.79-1.639q.672.771,1.376,1.51M11.551,58.54l-.716.522L9.8,57.454c-.82-1.275-2.059-2.173-3.624-1.116A3.6,3.6,0,0,0,4.8,58.8l-.317,1.627,1.38.312.306-1.584c.11-.487.236-1.29.767-1.611.752-.432,1.308,0,1.865.872l.933,1.449-3.68,2.68.827,1.194L12.4,59.714q.61.81,1.251,1.593L11.85,62.959l-.4-.458c-.45-.518-1.088-.186-1.136.68l-.066,1.368c.007,1.07.466,1.409,1.154.781l.446-.409,1.471,1.689-2.137,2.171,1.006,1.041,4.791-4.869q1.377,1.357,2.858,2.6l-.523.643c-.1.12-.485.794-1.02.666a.662.662,0,0,1-.612-.748l.061-.911-1.411-.037-.428,6.751,1.584.118.058-4.253,3.019,2.578-2.086,3.019,1.166.847,4-5.8q.571.384,1.152.754l-3.546,6.183,1.234.738,3.519-6.174h.02c.3.176.594.346.894.515l.646-1.28q-.64-.359-1.267-.737l-.833-5.131-1.6.353,1.264,4.048A45.646,45.646,0,0,1,9.7,52.834l-1.18.789a47.16,47.16,0,0,0,3.035,4.917M35.422,76.1l-.733,2.527-2.6-1.076.9-2.29q1.2.454,2.426.84m2.792.778L36.552,83.7l1.387.354,1.67-6.86c.354.074.708.145,1.066.211L40.948,76a43.4,43.4,0,0,1-10.456-3.343l-.565,1.318q.86.4,1.736.763L30.767,77l-.556-.23c-.626-.26-1.055.326-.725,1.125l.532,1.256c.466.959,1.026,1.054,1.371.178l.225-.569,2.7,1.119L33.442,82.8l1.367.428,2.005-6.715q.7.194,1.4.366m14.892,3.5-.054-1.337-5.463.23.053,1.337.876-.037a1.415,1.415,0,0,1,1.4,1.518,1.327,1.327,0,0,1-1.293,1.5,1.347,1.347,0,0,1-1.485-1.371l-.02-.487-1.334.057.02.487a2.757,2.757,0,0,0,5.509-.232,2.242,2.242,0,0,0-.77-1.559Zm11.943-6.809a44.161,44.161,0,0,0,4.777-2.268,16.518,16.518,0,0,0-3.441-.542c-1.545-.04-2.441.968-2.05,1.876a2.348,2.348,0,0,0,.713.934m-6.015,3.408q-1.262.3-2.551.516l.062.374c.309,1.831-.53,2.506-1.343,2.762a1.755,1.755,0,0,0,2.008,1,2.9,2.9,0,0,0,2.352-2.457ZM82.588,62.957q-.535.592-1.086,1.166l1.677,1.77,1.313-1.309Zm5.171-6.922q-.561.915-1.162,1.8l.391.283c1.479,1.072,1.353,2.157.951,2.928a1.748,1.748,0,0,0,2.113-.744,2.842,2.842,0,0,0,.334-2.7l-2.58-1.545Zm1.3-2.257c-.182.338-.37.672-.56,1.005l5.966,3.572-.72,1.264-2.063-1.234a3.455,3.455,0,0,1-.518,2.729c-1.162,1.684-3.1,1.843-5.053.424,1.005-1.046.859-1.787.144-2.306l-.421-.305q-1.074,1.492-2.259,2.894l.058.061-.037.036,5.18,4.423-.914,1.124-2.388-2.038-1.409,1.4.417.44c.643.678.333,1.164-.712,1.214l-1.335-.008c-.848-.011-1.2-.651-.713-1.135l.431-.427-1.675-1.765c-.252.246-.506.49-.762.729l.034.045-.762.637L83.4,72.1l-1.107.926L77.885,67.5c-.321.269-.647.536-.975.8l0,0h0l-.164.128L79.286,72c.527.737.19,1.224-.873,1.123l-1.347-.1c-.889-.153-1.129-.811-.56-1.239l.546-.408-1.469-2.058q-1.133.834-2.317,1.6L76.8,76.926l-1.224.756L73.27,73.756,71.306,74.8c-.9.478-1.38,1-1.039,1.812.256.573,1.021.787,1.483.95l1.506.477-.448,1.375-1.547-.493a3.5,3.5,0,0,1-2.243-1.664c-.863-1.705.139-2.875,1.461-3.578l2.091-1.111-.524-.892A45.267,45.267,0,0,1,66.082,74.7l2.36,6.7-1.345.5-2.347-6.669q-.743.281-1.5.538l2,6.777-1.367.424-2-6.76q-.731.222-1.471.421l1.621,6.738-1.387.351L59.976,80.9a3.4,3.4,0,0,1-2.533,2.119c-1.983.351-3.462-.936-3.87-3.358,1.433-.013,1.841-.645,1.692-1.528l-.071-.427a44.951,44.951,0,0,1-6.361.452q-2.118,0-4.19-.2l.149-1.433q2,.186,4.04.188a43.273,43.273,0,0,0,12.062-1.707l-3.738-1.746.811-1.456,4.282,2.786q.682-.222,1.353-.466a3.1,3.1,0,0,1-.658-.976c-.695-1.613.543-3.842,3.447-3.816a21.8,21.8,0,0,1,3.636.608l.435,1.006a44.643,44.643,0,0,0,6.126-4.223,2.448,2.448,0,0,1-1.758-.859,2.362,2.362,0,0,1,.51-3.408A4.185,4.185,0,0,1,76.157,62l.9,1.016a2.047,2.047,0,0,0-.947.433,1.18,1.18,0,0,0-.115,1.721,2.008,2.008,0,0,0,1.576.73A45.836,45.836,0,0,0,87.836,53.074Z" transform="translate(1.438 16.951)" fill="#fff" fill-rule="evenodd"/>
          <path id="Path_6" data-name="Path 6" d="M1.346,52.636l7.592-2.776-.424-1.115L.9,51.495Z" transform="translate(0.287 15.639)" fill="#fff" fill-rule="evenodd"/>
          <rect id="Rectangle_5" data-name="Rectangle 5" width="1.214" height="8.066" transform="matrix(0.502, -0.865, 0.865, 0.502, 92.147, 65.237)" fill="#fff"/>
          <path id="Path_7" data-name="Path 7" d="M78.644,50.446l-6.963-4.04-.619,1.043L78.035,51.5Z" transform="translate(22.799 14.888)" fill="#fff" fill-rule="evenodd"/>
          <rect id="Rectangle_6" data-name="Rectangle 6" width="1.145" height="112.189" transform="translate(110.824)" fill="#fff"/>
          <path id="Path_8" data-name="Path 8" d="M248.06,75.31h0a.665.665,0,0,0-.523.242.847.847,0,0,0-.209.58.86.86,0,0,0,.21.576.678.678,0,0,0,.522.244.662.662,0,0,0,.52-.244.839.839,0,0,0,.214-.576.861.861,0,0,0-.209-.58.674.674,0,0,0-.523-.242" transform="translate(79.35 24.162)" fill="#fff"/>
          <path id="Path_9" data-name="Path 9" d="M287.191,75.31a.668.668,0,0,0-.526.242.852.852,0,0,0-.209.58.861.861,0,0,0,.211.576.671.671,0,0,0,.523.244.663.663,0,0,0,.519-.244.85.85,0,0,0,.214-.576.862.862,0,0,0-.21-.58.674.674,0,0,0-.523-.242" transform="translate(91.905 24.162)" fill="#fff"/>
          <path id="Path_10" data-name="Path 10" d="M325.2,75.31a.673.673,0,0,0-.524.242.9.9,0,0,0,0,1.157.672.672,0,0,0,.522.244.661.661,0,0,0,.519-.244.9.9,0,0,0,0-1.157.674.674,0,0,0-.523-.242" transform="translate(104.099 24.162)" fill="#fff"/>
          <path id="Path_11" data-name="Path 11" d="M170.17,74.739l.032-.12-2.425.458v.433l.092-.015a3.105,3.105,0,0,1,.445-.05.476.476,0,0,1,.33.094.3.3,0,0,1,.1.235,6.926,6.926,0,0,1-.214.963L166.758,83.7a5.9,5.9,0,0,0-.211,1.119.737.737,0,0,0,.186.5.6.6,0,0,0,.476.221,1.323,1.323,0,0,0,.781-.3,5.265,5.265,0,0,0,1.165-1.411l.03-.049-.308-.362-.055.1a3.921,3.921,0,0,1-.7.926c-.122.11-.236.144-.306.061a.2.2,0,0,1-.044-.133,4.56,4.56,0,0,1,.161-.792Z" transform="translate(53.434 23.94)" fill="#fff"/>
          <path id="Path_12" data-name="Path 12" d="M164.961,75.511l.092-.014a3.124,3.124,0,0,1,.445-.05.486.486,0,0,1,.33.092.312.312,0,0,1,.1.236,7.123,7.123,0,0,1-.214.963L163.944,83.7a5.863,5.863,0,0,0-.213,1.119.739.739,0,0,0,.186.5.6.6,0,0,0,.477.221,1.337,1.337,0,0,0,.779-.3,5.314,5.314,0,0,0,1.164-1.411l.03-.049-.305-.362-.057.1a3.881,3.881,0,0,1-.7.926c-.122.11-.236.143-.306.061a.2.2,0,0,1-.042-.133,4.59,4.59,0,0,1,.161-.793l2.234-8.839.032-.122-2.422.46Z" transform="translate(52.53 23.94)" fill="#fff"/>
          <path id="Path_13" data-name="Path 13" d="M158.616,77.543a3.254,3.254,0,0,0-1.9.7,5.224,5.224,0,0,0-2.094,4.085,2.422,2.422,0,0,0,.539,1.65,1.9,1.9,0,0,0,1.508.621,2.826,2.826,0,0,0,1.507-.445,5.347,5.347,0,0,0,1.393-1.384l.041-.055-.3-.3-.057.069a4.4,4.4,0,0,1-1.084,1.018,1.922,1.922,0,0,1-.958.275,1.216,1.216,0,0,1-.973-.416,1.715,1.715,0,0,1-.361-1.146,5.308,5.308,0,0,1,.528-2.253,3.994,3.994,0,0,1,1.053-1.428,1.927,1.927,0,0,1,1.216-.5.789.789,0,0,1,.486.131.248.248,0,0,1,.1.2.325.325,0,0,1-.025.123,1.015,1.015,0,0,1-.173.219,1.162,1.162,0,0,0-.219.312.809.809,0,0,0-.054.291.61.61,0,0,0,.155.424.523.523,0,0,0,.4.176.619.619,0,0,0,.514-.285,1.337,1.337,0,0,0,.267-.835,1.187,1.187,0,0,0-.379-.886,1.563,1.563,0,0,0-1.12-.359" transform="translate(49.607 24.878)" fill="#fff"/>
          <path id="Path_14" data-name="Path 14" d="M186.7,81.142a4.02,4.02,0,0,0,1.705-1.215,1.994,1.994,0,0,0,.448-1.23,1.1,1.1,0,0,0-.358-.814,1.523,1.523,0,0,0-1.08-.341,3.284,3.284,0,0,0-1.917.656,5.464,5.464,0,0,0-2.144,4.132,2.634,2.634,0,0,0,.5,1.553,1.734,1.734,0,0,0,1.5.717,4.305,4.305,0,0,0,3.016-1.771l.04-.045-.218-.345-.07.061a7.141,7.141,0,0,1-1.277.958,1.9,1.9,0,0,1-.869.213,1.2,1.2,0,0,1-.94-.437,1.576,1.576,0,0,1-.392-1.074,5.2,5.2,0,0,1,.038-.547,8.279,8.279,0,0,0,2.02-.472m-1.522-1.312a3.708,3.708,0,0,1,.635-.977,2,2,0,0,1,1.358-.781.545.545,0,0,1,.433.165.652.652,0,0,1,.153.452,1.832,1.832,0,0,1-.387,1.037,3.136,3.136,0,0,1-1.178.951,4.763,4.763,0,0,1-1.436.407,6.825,6.825,0,0,1,.421-1.253" transform="translate(58.827 24.878)" fill="#fff"/>
          <path id="Path_15" data-name="Path 15" d="M172.637,81.142a4.03,4.03,0,0,0,1.707-1.215,1.984,1.984,0,0,0,.446-1.23,1.1,1.1,0,0,0-.355-.814,1.529,1.529,0,0,0-1.082-.341,3.293,3.293,0,0,0-1.918.656,5.464,5.464,0,0,0-2.144,4.132,2.646,2.646,0,0,0,.5,1.553,1.734,1.734,0,0,0,1.5.717,4.308,4.308,0,0,0,3.016-1.771l.04-.045-.219-.345-.07.061a7.18,7.18,0,0,1-1.275.958,1.913,1.913,0,0,1-.872.213,1.2,1.2,0,0,1-.939-.437,1.578,1.578,0,0,1-.392-1.074,4.967,4.967,0,0,1,.038-.547,8.252,8.252,0,0,0,2.018-.472m-1.52-1.312a3.708,3.708,0,0,1,.635-.977,2,2,0,0,1,1.358-.781.544.544,0,0,1,.433.165.646.646,0,0,1,.153.452,1.839,1.839,0,0,1-.386,1.037,3.151,3.151,0,0,1-1.18.951,4.752,4.752,0,0,1-1.436.407,6.627,6.627,0,0,1,.421-1.253" transform="translate(54.314 24.878)" fill="#fff"/>
          <path id="Path_16" data-name="Path 16" d="M201,74.635a2.009,2.009,0,0,0-1.046.341,3.872,3.872,0,0,0-1.038,1.013,7.633,7.633,0,0,0-.748,1.4,5,5,0,0,1-.458.886.864.864,0,0,1-.361.3,2.264,2.264,0,0,1-.729.081h-.066l-.123.649h1.135l-1.116,4.932c-.263,1.154-.428,1.845-.49,2.054a4.723,4.723,0,0,1-.448,1.128,1.77,1.77,0,0,1-.527.573,1.021,1.021,0,0,1-.548.188.194.194,0,0,1-.135-.037s-.014-.011-.014-.036c0,0,.008-.03.082-.1a.508.508,0,0,0,.158-.359.491.491,0,0,0-.144-.347.476.476,0,0,0-.353-.148.628.628,0,0,0-.466.2.661.661,0,0,0-.19.469.7.7,0,0,0,.226.539,1,1,0,0,0,.724.291,2.01,2.01,0,0,0,1.253-.5,5.8,5.8,0,0,0,1.5-2.318,21.538,21.538,0,0,0,.967-3.334l.7-3.185h.955l.153-.649H198.9c.295-1.086.5-1.78.618-2.066a3.3,3.3,0,0,1,.762-1.2.99.99,0,0,1,.685-.277.309.309,0,0,1,.2.053.125.125,0,0,1,.032.1.67.67,0,0,1-.077.2.776.776,0,0,0-.092.33.516.516,0,0,0,.149.372.509.509,0,0,0,.387.16.563.563,0,0,0,.448-.207.738.738,0,0,0,.168-.49.928.928,0,0,0-.325-.676,1.181,1.181,0,0,0-.852-.309" transform="translate(62.041 23.945)" fill="#fff"/>
          <path id="Path_17" data-name="Path 17" d="M155.282,77.545a.893.893,0,0,0-.382.081,2.317,2.317,0,0,0-.6.456,4.145,4.145,0,0,0-.569.7l-.474.81a9.849,9.849,0,0,0-.345-1.223,3.183,3.183,0,0,0-.5-.793l-.03-.036-1.856.37v.42l.086-.007c.115-.009.23-.015.341-.015a1.011,1.011,0,0,1,.66.182,1.357,1.357,0,0,1,.367.646c.022.069.189.8.432,1.877a12.89,12.89,0,0,1-.679,1.322,5.515,5.515,0,0,1-.824,1.2c-.092.091-.136.1-.147.1s-.066-.007-.2-.145c-.339-.349-.7-.322-.913-.074a.678.678,0,0,0-.165.461.7.7,0,0,0,.18.5c.376.375.874.295,1.36-.155a9.9,9.9,0,0,0,1.545-2.409,17.5,17.5,0,0,0,.53,2.289.734.734,0,0,0,.655.512,1.065,1.065,0,0,0,.66-.347,4.627,4.627,0,0,0,1.065-1.482l.03-.065-.365-.215-.038.079a2.767,2.767,0,0,1-.6.868.443.443,0,0,1-.266.148c-.037,0-.077-.044-.106-.082a2.339,2.339,0,0,1-.2-.671l-.528-2.528a5.854,5.854,0,0,1,.936-1.448.552.552,0,0,1,.318-.186,1.464,1.464,0,0,1,.38.114.663.663,0,0,0,.8-.137.63.63,0,0,0,.12-.441.656.656,0,0,0-.19-.472.679.679,0,0,0-.5-.193" transform="translate(47.96 24.876)" fill="#fff"/>
          <path id="Path_18" data-name="Path 18" d="M179.378,82.643a4.612,4.612,0,0,1-.745.934c-.073.063-.114.077-.136.077h0c-.011,0-.029-.015-.045-.036a.226.226,0,0,1-.038-.129,3.93,3.93,0,0,1,.136-.643l.8-3.125a4.98,4.98,0,0,0,.193-1.209,1.031,1.031,0,0,0-.232-.693.767.767,0,0,0-.6-.269,1.927,1.927,0,0,0-1.309.675,13.532,13.532,0,0,0-1.6,2.269l.762-2.968-2.459.5.059.427.329-.061a1.905,1.905,0,0,1,.263-.029.291.291,0,0,1,.226.1.323.323,0,0,1,.092.23,6.058,6.058,0,0,1-.207.991l-1.189,4.651-.025.1h1.145l.341-1.284a7.746,7.746,0,0,1,.506-1.368,16.22,16.22,0,0,1,1.1-1.955,4.134,4.134,0,0,1,.987-1.082c.24-.169.428-.221.542-.1a.267.267,0,0,1,.066.188,3.657,3.657,0,0,1-.141.851l-.76,2.986a5.784,5.784,0,0,0-.226,1.244.753.753,0,0,0,.165.5.56.56,0,0,0,.446.194,1.245,1.245,0,0,0,.727-.305,5.416,5.416,0,0,0,1.17-1.433l.041-.065-.333-.23Z" transform="translate(55.712 24.872)" fill="#fff"/>
          <path id="Path_19" data-name="Path 19" d="M182.814,77.543a3.253,3.253,0,0,0-1.9.7,5.231,5.231,0,0,0-2.095,4.085,2.422,2.422,0,0,0,.54,1.65,1.9,1.9,0,0,0,1.507.621,2.815,2.815,0,0,0,1.506-.445,5.331,5.331,0,0,0,1.4-1.384l.04-.055-.3-.3-.055.069a4.387,4.387,0,0,1-1.086,1.018,1.922,1.922,0,0,1-.958.275,1.193,1.193,0,0,1-.971-.416,1.7,1.7,0,0,1-.362-1.146,5.29,5.29,0,0,1,.528-2.253,4.02,4.02,0,0,1,1.051-1.428,1.933,1.933,0,0,1,1.218-.5.789.789,0,0,1,.486.131.251.251,0,0,1,.094.2.337.337,0,0,1-.025.124,1,1,0,0,1-.173.218,1.161,1.161,0,0,0-.218.312.789.789,0,0,0-.053.291.615.615,0,0,0,.153.424.523.523,0,0,0,.4.176.609.609,0,0,0,.513-.285,1.335,1.335,0,0,0,.267-.835,1.182,1.182,0,0,0-.379-.886,1.561,1.561,0,0,0-1.12-.359" transform="translate(57.371 24.878)" fill="#fff"/>
          <path id="Path_20" data-name="Path 20" d="M195.8,82.188h0a5.219,5.219,0,0,0,.526-2.24,2.551,2.551,0,0,0-.579-1.732,1.879,1.879,0,0,0-1.482-.674,3.266,3.266,0,0,0-1.835.652,4.649,4.649,0,0,0-1.5,1.767,4.924,4.924,0,0,0-.56,2.226,2.561,2.561,0,0,0,.585,1.737,1.926,1.926,0,0,0,1.52.676,3.292,3.292,0,0,0,1.852-.652,4.4,4.4,0,0,0,1.475-1.761m-1.518.37c-.522,1-1.079,1.514-1.658,1.514a.9.9,0,0,1-.73-.354,1.61,1.61,0,0,1-.3-1.037,6.677,6.677,0,0,1,.8-3.072c.519-1.009,1.09-1.522,1.7-1.522a.857.857,0,0,1,.705.338,1.585,1.585,0,0,1,.279,1.008,6.364,6.364,0,0,1-.2,1.573,7.319,7.319,0,0,1-.6,1.552" transform="translate(61.077 24.878)" fill="#fff"/>
          <path id="Path_21" data-name="Path 21" d="M110.132,74.832l-.022.042a1.472,1.472,0,0,1-.3.449.426.426,0,0,1-.275.1.7.7,0,0,1-.174-.02c-.024-.008-.157-.066-.413-.182a4.262,4.262,0,0,0-.754-.3,2.88,2.88,0,0,0-.711-.083,2.4,2.4,0,0,0-1.837.774,2.655,2.655,0,0,0-.716,1.858,2.857,2.857,0,0,0,.31,1.3,6.469,6.469,0,0,0,.84,1.125,13.517,13.517,0,0,1,1.63,2.15,2.006,2.006,0,0,1,.194.888,2.176,2.176,0,0,1-.428,1.33,1.438,1.438,0,0,1-1.238.567,1.833,1.833,0,0,1-1.432-.613,2.316,2.316,0,0,1-.553-1.6c0-.239.015-.539.046-.892l.007-.087h-.375l-.763,3.9h.4l.02-.052c.131-.361.309-.544.527-.544a1.038,1.038,0,0,1,.392.106,8.133,8.133,0,0,0,1.1.407,3.256,3.256,0,0,0,.75.083,2.925,2.925,0,0,0,1.5-.4,2.731,2.731,0,0,0,1.055-1.145,3.411,3.411,0,0,0,.363-1.519,2.977,2.977,0,0,0-.3-1.308,7.96,7.96,0,0,0-1.279-1.684,10.6,10.6,0,0,1-1.238-1.523,1.889,1.889,0,0,1-.26-.952,1.415,1.415,0,0,1,.4-.992,1.376,1.376,0,0,1,1.046-.429,1.682,1.682,0,0,1,1.32.548,2,2,0,0,1,.5,1.416c0,.177-.008.411-.025.716l0,.085h.37l.715-3.5Z" transform="translate(33.099 24.008)" fill="#fff"/>
          <path id="Path_22" data-name="Path 22" d="M118.572,83.577a4.109,4.109,0,0,1-.724.888h0a.238.238,0,0,1-.143.075.086.086,0,0,1-.066-.037.179.179,0,0,1-.038-.106s.052-.248.151-.619l.8-3.111a4.915,4.915,0,0,0,.185-1.21,1.051,1.051,0,0,0-.228-.705.733.733,0,0,0-.582-.272,1.968,1.968,0,0,0-1.331.691A12.783,12.783,0,0,0,115,81.415l1.7-6.676.032-.122-2.45.466v.45l.231-.038a2.342,2.342,0,0,1,.346-.042.378.378,0,0,1,.285.122.416.416,0,0,1,.122.268l-2.407,9.519h1.145l.433-1.582a6.075,6.075,0,0,1,.444-1.119c.612-1.115.942-1.7,1.042-1.849a4.616,4.616,0,0,1,1.007-1.137c.235-.16.438-.2.539-.091a.273.273,0,0,1,.061.186,3.652,3.652,0,0,1-.14.859l-.752,2.971a6.034,6.034,0,0,0-.232,1.236.728.728,0,0,0,.173.5.584.584,0,0,0,.456.2,1.043,1.043,0,0,0,.549-.193,3.344,3.344,0,0,0,.7-.668,5.991,5.991,0,0,0,.627-.88l.036-.065-.333-.227Z" transform="translate(36.21 23.94)" fill="#fff"/>
          <path id="Path_23" data-name="Path 23" d="M112.451,77.543a3.247,3.247,0,0,0-1.9.7,5.22,5.22,0,0,0-2.095,4.085,2.421,2.421,0,0,0,.54,1.65,1.9,1.9,0,0,0,1.507.621,2.818,2.818,0,0,0,1.506-.445,5.32,5.32,0,0,0,1.4-1.386l.04-.054-.3-.3-.055.069A4.407,4.407,0,0,1,112,83.5a1.926,1.926,0,0,1-.958.275,1.2,1.2,0,0,1-.973-.416,1.717,1.717,0,0,1-.359-1.146,5.3,5.3,0,0,1,.527-2.253,4.006,4.006,0,0,1,1.053-1.428,1.93,1.93,0,0,1,1.217-.5.793.793,0,0,1,.487.131.249.249,0,0,1,.094.2.344.344,0,0,1-.024.123,1.162,1.162,0,0,1-.174.219,1.143,1.143,0,0,0-.218.312.808.808,0,0,0-.055.291.621.621,0,0,0,.155.424.525.525,0,0,0,.4.176.615.615,0,0,0,.515-.285,1.339,1.339,0,0,0,.265-.835,1.182,1.182,0,0,0-.379-.886,1.563,1.563,0,0,0-1.12-.359" transform="translate(34.796 24.878)" fill="#fff"/>
          <path id="Path_24" data-name="Path 24" d="M92.906,85.126a15.576,15.576,0,0,1,.6-4.036,14.83,14.83,0,0,1,1.555-3.784,9.2,9.2,0,0,1,1.956-2.26L97.073,75l-.238-.4-.071.059a14.921,14.921,0,0,0-3.9,4.541,9.348,9.348,0,0,0-.985,4.323,8.216,8.216,0,0,0,.264,2.055,18.951,18.951,0,0,0,1.123,2.993l.036.077.361-.193-.026-.066a9.29,9.29,0,0,1-.733-3.266" transform="translate(29.479 23.935)" fill="#fff"/>
          <path id="Path_25" data-name="Path 25" d="M101.451,84.765a.709.709,0,0,1-.3-.288l0,0a.8.8,0,0,1-.086-.412c0-.088.009-.295.053-.766l.674-8.378.007-.086h-.359l-5.32,8.221a9.191,9.191,0,0,1-1.087,1.461,1.243,1.243,0,0,1-.8.347l-.058,0-.112.429H96.84l.112-.429-.1,0a.754.754,0,0,1-.51-.164.483.483,0,0,1-.145-.354,1.021,1.021,0,0,1,.071-.353,4.343,4.343,0,0,1,.379-.658l.878-1.353h2.408l-.1,1.191a5.973,5.973,0,0,1-.132,1.066.844.844,0,0,1-.268.431,1.025,1.025,0,0,1-.645.193h-.211l-.112.433h3.655l.112-.433h-.1a1.718,1.718,0,0,1-.68-.1M100,81.278H97.989l2.318-3.581Z" transform="translate(30.175 24.008)" fill="#fff"/>
          <path id="Path_26" data-name="Path 26" d="M121.94,77.543a3.266,3.266,0,0,0-1.835.652,4.639,4.639,0,0,0-1.5,1.766,4.933,4.933,0,0,0-.56,2.227,2.563,2.563,0,0,0,.584,1.737,1.932,1.932,0,0,0,1.523.675A3.282,3.282,0,0,0,122,83.949a4.429,4.429,0,0,0,1.477-1.762,5.192,5.192,0,0,0,.524-2.24,2.566,2.566,0,0,0-.576-1.732,1.886,1.886,0,0,0-1.483-.672m.616,3.463a7.324,7.324,0,0,1-.6,1.552c-.519,1-1.078,1.514-1.658,1.514a.9.9,0,0,1-.729-.354,1.608,1.608,0,0,1-.3-1.037,6.684,6.684,0,0,1,.8-3.072c.52-1.009,1.092-1.522,1.7-1.522a.857.857,0,0,1,.705.338,1.585,1.585,0,0,1,.279,1.008,6.4,6.4,0,0,1-.2,1.573" transform="translate(37.872 24.878)" fill="#fff"/>
          <path id="Path_27" data-name="Path 27" d="M138.96,82.188a5.2,5.2,0,0,0,.526-2.24,2.563,2.563,0,0,0-.576-1.732,1.883,1.883,0,0,0-1.483-.674,3.266,3.266,0,0,0-1.835.652,4.66,4.66,0,0,0-1.5,1.767,4.941,4.941,0,0,0-.56,2.226,2.567,2.567,0,0,0,.584,1.737,1.931,1.931,0,0,0,1.522.676,3.292,3.292,0,0,0,1.852-.652,4.4,4.4,0,0,0,1.474-1.761m-1.518.37c-.52,1-1.078,1.514-1.658,1.514a.9.9,0,0,1-.729-.354,1.6,1.6,0,0,1-.3-1.037,6.688,6.688,0,0,1,.8-3.072c.522-1.009,1.092-1.522,1.7-1.522a.859.859,0,0,1,.705.338,1.585,1.585,0,0,1,.279,1.008,6.311,6.311,0,0,1-.2,1.573,7.268,7.268,0,0,1-.6,1.552" transform="translate(42.84 24.878)" fill="#fff"/>
          <path id="Path_28" data-name="Path 28" d="M144.158,74.635a2.009,2.009,0,0,0-1.046.341,3.913,3.913,0,0,0-1.038,1.013,7.638,7.638,0,0,0-.748,1.4,5.03,5.03,0,0,1-.458.886.859.859,0,0,1-.362.3,2.247,2.247,0,0,1-.729.081h-.066l-.12.649h1.135l-1.116,4.932c-.275,1.2-.431,1.854-.491,2.054a4.622,4.622,0,0,1-.449,1.128,1.76,1.76,0,0,1-.524.572,1.024,1.024,0,0,1-.549.189.189.189,0,0,1-.135-.038s-.015-.009-.015-.034c0,0,.008-.03.082-.1a.512.512,0,0,0,.159-.359.5.5,0,0,0-.143-.347.476.476,0,0,0-.354-.148.628.628,0,0,0-.466.2.661.661,0,0,0-.19.469.7.7,0,0,0,.227.539,1,1,0,0,0,.724.291,2.01,2.01,0,0,0,1.252-.5,5.8,5.8,0,0,0,1.5-2.318,21.635,21.635,0,0,0,.968-3.334l.7-3.185h.955l.155-.649h-.958c.289-1.067.5-1.78.617-2.066a3.31,3.31,0,0,1,.763-1.2.99.99,0,0,1,.686-.277.306.306,0,0,1,.2.053.125.125,0,0,1,.032.1.672.672,0,0,1-.077.2.8.8,0,0,0-.092.33.517.517,0,0,0,.149.372.51.51,0,0,0,.388.16.567.567,0,0,0,.448-.207.745.745,0,0,0,.168-.49.924.924,0,0,0-.326-.676,1.181,1.181,0,0,0-.852-.309" transform="translate(43.804 23.945)" fill="#fff"/>
          <path id="Path_29" data-name="Path 29" d="M151.393,77.593h.4L152.377,75h-6.529l-.123.436h.243a.935.935,0,0,1,.622.139.489.489,0,0,1,.148.382,5.034,5.034,0,0,1-.18,1.1L145,83.14a5.807,5.807,0,0,1-.408,1.259.832.832,0,0,1-.346.309,1.74,1.74,0,0,1-.655.1h-.057l-.133.432h7.022l.884-2.961h-.4l-.021.045a4.253,4.253,0,0,1-1.349,1.753,3.58,3.58,0,0,1-2,.5h-.785c-.359,0-.47-.051-.5-.082a.376.376,0,0,1-.136-.284,3.231,3.231,0,0,1,.122-.716l.841-3.273h.781a2.267,2.267,0,0,1,.806.083.629.629,0,0,1,.28.255.924.924,0,0,1,.1.472,3.184,3.184,0,0,1-.116.769l-.024.1h.425l.95-3.816h-.4l-.018.054a2.34,2.34,0,0,1-.658,1.1,2.061,2.061,0,0,1-1.24.295h-.729l.973-3.825h1.062a4.7,4.7,0,0,1,1.416.128,1.314,1.314,0,0,1,.612.49,1.13,1.13,0,0,1,.157.618,4.113,4.113,0,0,1-.048.56Z" transform="translate(46.008 24.064)" fill="#fff"/>
          <path id="Path_30" data-name="Path 30" d="M127.009,77.543a3.263,3.263,0,0,0-1.835.652,4.627,4.627,0,0,0-1.5,1.766,4.947,4.947,0,0,0-.56,2.227,2.567,2.567,0,0,0,.584,1.737,1.928,1.928,0,0,0,1.522.675,3.283,3.283,0,0,0,1.85-.651,4.405,4.405,0,0,0,1.475-1.762,5.193,5.193,0,0,0,.527-2.24,2.567,2.567,0,0,0-.579-1.732,1.882,1.882,0,0,0-1.482-.672m.616,3.463a7.379,7.379,0,0,1-.6,1.552c-.52,1-1.079,1.514-1.659,1.514a.9.9,0,0,1-.728-.354,1.606,1.606,0,0,1-.3-1.037,6.668,6.668,0,0,1,.8-3.072c.52-1.009,1.092-1.522,1.7-1.522a.859.859,0,0,1,.705.338,1.582,1.582,0,0,1,.279,1.008,6.374,6.374,0,0,1-.2,1.573" transform="translate(39.498 24.878)" fill="#fff"/>
          <path id="Path_31" data-name="Path 31" d="M129.5,75.511l.092-.014a3.124,3.124,0,0,1,.445-.05.483.483,0,0,1,.33.092.307.307,0,0,1,.1.236,7.047,7.047,0,0,1-.213.963L128.485,83.7a5.831,5.831,0,0,0-.213,1.119.744.744,0,0,0,.186.5.607.607,0,0,0,.476.221,1.334,1.334,0,0,0,.781-.3,5.269,5.269,0,0,0,1.165-1.411l.03-.049-.308-.362-.057.1a3.858,3.858,0,0,1-.7.925c-.124.112-.235.145-.308.059a.194.194,0,0,1-.044-.132,4.612,4.612,0,0,1,.161-.793L131.9,74.74l.03-.122-2.424.46Z" transform="translate(41.154 23.94)" fill="#fff"/>
          <path id="Path_32" data-name="Path 32" d="M162.5,81.142a4.025,4.025,0,0,0,1.707-1.215,1.994,1.994,0,0,0,.448-1.23,1.1,1.1,0,0,0-.358-.814,1.523,1.523,0,0,0-1.081-.341,3.289,3.289,0,0,0-1.916.656,5.46,5.46,0,0,0-2.145,4.132,2.648,2.648,0,0,0,.5,1.553,1.736,1.736,0,0,0,1.5.717,4.3,4.3,0,0,0,3.015-1.771l.04-.045L164,82.441l-.07.061a7.27,7.27,0,0,1-1.275.958,1.907,1.907,0,0,1-.87.213,1.219,1.219,0,0,1-.94-.437,1.576,1.576,0,0,1-.392-1.074,4.986,4.986,0,0,1,.038-.547,8.251,8.251,0,0,0,2.018-.472m-1.52-1.312a3.732,3.732,0,0,1,.635-.977,2,2,0,0,1,1.357-.781.545.545,0,0,1,.435.165.651.651,0,0,1,.153.452,1.838,1.838,0,0,1-.387,1.037,3.146,3.146,0,0,1-1.178.951,4.754,4.754,0,0,1-1.434.407,6.687,6.687,0,0,1,.42-1.253" transform="translate(51.063 24.878)" fill="#fff"/>
          <path id="Path_33" data-name="Path 33" d="M273.629,77.721H272.47l-.161.625a12.585,12.585,0,0,1-.792,2.333,14.942,14.942,0,0,1-.948,1.574,4.574,4.574,0,0,1-.907,1.069c-.337.238-.567.285-.679.17a.246.246,0,0,1-.058-.172,7.1,7.1,0,0,1,.252-1.223l.614-2.4a7.023,7.023,0,0,0,.264-1.452.751.751,0,0,0-.173-.506c-.28-.313-.767-.248-1.273.137a4.065,4.065,0,0,0-1.061,1.3l-.034.059.324.258.049-.071a5.078,5.078,0,0,1,.6-.807.367.367,0,0,1,.226-.094c.013,0,.033,0,.062.038a.131.131,0,0,1,.034.1,5.5,5.5,0,0,1-.207,1.006l-.569,2.294a8.048,8.048,0,0,0-.288,1.729.971.971,0,0,0,.227.656.747.747,0,0,0,.571.262,2.12,2.12,0,0,0,1.445-.81,12.187,12.187,0,0,0,1.56-2.3c-.217.828-.366,1.444-.429,1.765a3.573,3.573,0,0,0-.086.684.7.7,0,0,0,.164.477.584.584,0,0,0,.457.189,1.213,1.213,0,0,0,.745-.3,4.738,4.738,0,0,0,1.078-1.39l.032-.057-.31-.272-.05.075a9.786,9.786,0,0,1-.666.9.317.317,0,0,1-.191.1.055.055,0,0,1-.049-.028.294.294,0,0,1-.03-.155,7.3,7.3,0,0,1,.252-1.227Z" transform="translate(85.827 24.878)" fill="#fff"/>
          <path id="Path_34" data-name="Path 34" d="M268.046,83.6a5.393,5.393,0,0,1-.729.873h0a.271.271,0,0,1-.153.079s-.018,0-.05-.034a.161.161,0,0,1-.04-.094,5.058,5.058,0,0,1,.181-.917L269.5,74.74l.032-.122-2.438.46v.431l.091-.013a4.04,4.04,0,0,1,.487-.049.411.411,0,0,1,.295.1.287.287,0,0,1,.077.2,1.982,1.982,0,0,1-.075.47c-.021.071-.045.161-.074.268l-.643,2.585a1.653,1.653,0,0,0-.425-.42,1.186,1.186,0,0,0-.651-.174,2.561,2.561,0,0,0-1.528.649,5.848,5.848,0,0,0-1.66,2.068,5.435,5.435,0,0,0-.631,2.4,2.333,2.333,0,0,0,.386,1.411,1.142,1.142,0,0,0,.931.532,1.717,1.717,0,0,0,1.075-.457,7.4,7.4,0,0,0,1.44-1.806l-.1.345a4.557,4.557,0,0,0-.2,1.156.862.862,0,0,0,.162.555.523.523,0,0,0,.428.207,1.422,1.422,0,0,0,.954-.481,6.551,6.551,0,0,0,.964-1.219l.041-.063-.351-.244Zm-2.14-.725c-.666,1.086-1.215,1.635-1.636,1.635a.559.559,0,0,1-.454-.26,1.371,1.371,0,0,1-.2-.806,5.912,5.912,0,0,1,.882-2.916c.578-1,1.132-1.5,1.647-1.506a.685.685,0,0,1,.555.262,1.085,1.085,0,0,1,.223.716,5.74,5.74,0,0,1-1.014,2.875" transform="translate(84.173 23.94)" fill="#fff"/>
          <path id="Path_35" data-name="Path 35" d="M276.575,77.543a3.244,3.244,0,0,0-1.9.7,5.026,5.026,0,0,0-1.528,1.813,4.969,4.969,0,0,0-.568,2.272,2.426,2.426,0,0,0,.54,1.65,1.9,1.9,0,0,0,1.507.621,2.811,2.811,0,0,0,1.506-.445,5.327,5.327,0,0,0,1.4-1.384l.041-.055-.3-.3-.057.067a4.369,4.369,0,0,1-1.084,1.02,1.9,1.9,0,0,1-.958.276,1.2,1.2,0,0,1-.973-.417,1.711,1.711,0,0,1-.359-1.145,5.311,5.311,0,0,1,.528-2.255,4,4,0,0,1,1.053-1.428,1.918,1.918,0,0,1,1.215-.5.784.784,0,0,1,.487.132.242.242,0,0,1,.094.2.356.356,0,0,1-.024.123,1.119,1.119,0,0,1-.176.219,1.147,1.147,0,0,0-.217.31.773.773,0,0,0-.054.291.615.615,0,0,0,.153.424.527.527,0,0,0,.4.176.614.614,0,0,0,.514-.285,1.334,1.334,0,0,0,.267-.835,1.181,1.181,0,0,0-.379-.885,1.552,1.552,0,0,0-1.119-.361" transform="translate(87.452 24.878)" fill="#fff"/>
          <path id="Path_36" data-name="Path 36" d="M208.333,81.626a.676.676,0,0,0-.526.244.908.908,0,0,0,0,1.168.677.677,0,0,0,.526.246.688.688,0,0,0,.531-.244.839.839,0,0,0,.217-.586.856.856,0,0,0-.213-.581.682.682,0,0,0-.535-.246" transform="translate(66.603 26.188)" fill="#fff"/>
          <path id="Path_37" data-name="Path 37" d="M258.169,75l-.124.435h.244a.932.932,0,0,1,.622.139.491.491,0,0,1,.149.383,4.994,4.994,0,0,1-.18,1.1l-1.559,6.078a5.691,5.691,0,0,1-.41,1.257.825.825,0,0,1-.343.31,1.857,1.857,0,0,1-.657.1h-.058l-.131.431h7.019l.885-2.96h-.4l-.021.045a4.261,4.261,0,0,1-1.349,1.753,3.58,3.58,0,0,1-2,.5h-.786c-.357,0-.469-.053-.5-.085a.371.371,0,0,1-.136-.283,3.206,3.206,0,0,1,.123-.716l.841-3.274h.779a2.39,2.39,0,0,1,.807.085.636.636,0,0,1,.28.255.919.919,0,0,1,.1.472,3.2,3.2,0,0,1-.116.769l-.025.1h.427l.926-3.717.024-.1h-.4l-.018.053a2.382,2.382,0,0,1-.658,1.1,2.09,2.09,0,0,1-1.242.292h-.728l.972-3.822h1.062a4.413,4.413,0,0,1,1.415.127,1.314,1.314,0,0,1,.612.49,1.121,1.121,0,0,1,.157.618,4.108,4.108,0,0,1-.046.559l-.013.091h.4L264.7,75Z" transform="translate(82.045 24.064)" fill="#fff"/>
          <path id="Path_38" data-name="Path 38" d="M253.458,82.681l1.3-5.154-1.208.209-.176.627a1.341,1.341,0,0,0-.346-.559,1.028,1.028,0,0,0-.716-.256,2.369,2.369,0,0,0-1.47.642,6.13,6.13,0,0,0-1.607,2.124,5.911,5.911,0,0,0-.631,2.527,2.066,2.066,0,0,0,.362,1.285,1.1,1.1,0,0,0,.888.479,1.842,1.842,0,0,0,1.059-.376,6.161,6.161,0,0,0,1.35-1.441l-.034.139a4.378,4.378,0,0,0-.147.976.751.751,0,0,0,.161.518.608.608,0,0,0,.479.185,1.49,1.49,0,0,0,.936-.42,4.714,4.714,0,0,0,.944-1.2l.036-.061-.346-.277-.048.077a4.2,4.2,0,0,1-.664.874c-.107.091-.157.1-.17.1a.076.076,0,0,1-.067-.033.28.28,0,0,1-.049-.161.667.667,0,0,1,.019-.145Zm-1.51-.256c-.539.77-1.038,1.161-1.483,1.161a.563.563,0,0,1-.446-.262,1.209,1.209,0,0,1-.207-.75,5.852,5.852,0,0,1,.514-2.212,5.414,5.414,0,0,1,1.168-1.844,1.28,1.28,0,0,1,.833-.425.622.622,0,0,1,.527.25,1.464,1.464,0,0,1,.2.866,5.553,5.553,0,0,1-1.1,3.216" transform="translate(79.761 24.873)" fill="#fff"/>
          <path id="Path_39" data-name="Path 39" d="M302.727,82.681l1.3-5.154-1.21.209-.176.629a1.337,1.337,0,0,0-.346-.56,1.031,1.031,0,0,0-.716-.256,2.357,2.357,0,0,0-1.469.642,6.152,6.152,0,0,0-1.61,2.124,5.965,5.965,0,0,0-.629,2.527,2.05,2.05,0,0,0,.363,1.285,1.092,1.092,0,0,0,.885.479,1.846,1.846,0,0,0,1.061-.376,6.253,6.253,0,0,0,1.35-1.442l-.034.14a4.365,4.365,0,0,0-.147.976.761.761,0,0,0,.16.516.605.605,0,0,0,.481.186,1.512,1.512,0,0,0,.936-.42,4.8,4.8,0,0,0,.946-1.2l.034-.061-.347-.277-.048.077a4.1,4.1,0,0,1-.664.874c-.1.088-.153.1-.17.1a.073.073,0,0,1-.066-.034.259.259,0,0,1-.05-.16.844.844,0,0,1,.018-.145Zm-1.51-.256c-.54.77-1.04,1.161-1.483,1.161a.564.564,0,0,1-.448-.262,1.218,1.218,0,0,1-.207-.75,5.841,5.841,0,0,1,.514-2.212,5.429,5.429,0,0,1,1.169-1.844,1.28,1.28,0,0,1,.835-.425.619.619,0,0,1,.524.25,1.466,1.466,0,0,1,.2.866,5.554,5.554,0,0,1-1.1,3.216" transform="translate(95.568 24.873)" fill="#fff"/>
          <path id="Path_40" data-name="Path 40" d="M293.178,78.217a1.881,1.881,0,0,0-1.482-.674,3.263,3.263,0,0,0-1.836.652,4.661,4.661,0,0,0-1.5,1.767,4.954,4.954,0,0,0-.557,2.226,2.556,2.556,0,0,0,.582,1.736,1.925,1.925,0,0,0,1.522.676,3.279,3.279,0,0,0,1.851-.653,4.4,4.4,0,0,0,1.475-1.761,5.2,5.2,0,0,0,.524-2.239,3.053,3.053,0,0,0-.143-.963,2.224,2.224,0,0,0-.433-.769m-1.466,4.342c-.52,1-1.078,1.514-1.659,1.514a.893.893,0,0,1-.726-.354,1.6,1.6,0,0,1-.3-1.037,6.675,6.675,0,0,1,.8-3.072c.52-1.01,1.091-1.522,1.7-1.522a.858.858,0,0,1,.705.338,1.573,1.573,0,0,1,.28,1.006,6.752,6.752,0,0,1-.8,3.126" transform="translate(92.336 24.878)" fill="#fff"/>
          <path id="Path_41" data-name="Path 41" d="M285.371,76.246l.026-.1h-.44l-.023.041a6.114,6.114,0,0,1-1.049,1.515,2.992,2.992,0,0,1-1.168.646l-.044.015-.1.433h.981L282.5,83a5.6,5.6,0,0,0-.213,1.244.84.84,0,0,0,.2.58.692.692,0,0,0,.53.227,1.278,1.278,0,0,0,.787-.3,5.177,5.177,0,0,0,1.158-1.427l.034-.058-.334-.287-.052.073a8.23,8.23,0,0,1-.688.9c-.211.209-.328.239-.378.239-.008,0-.032,0-.059-.036a.238.238,0,0,1-.037-.147,5.186,5.186,0,0,1,.18-.892l1.111-4.322h1.021l.149-.629h-1.024Z" transform="translate(90.566 24.43)" fill="#fff"/>
          <path id="Path_42" data-name="Path 42" d="M287.783,77.646l.03-.12-2.379.439-.065.012v.452l.094-.017a3.75,3.75,0,0,1,.581-.081.286.286,0,0,1,.221.081.28.28,0,0,1,.079.211,5.616,5.616,0,0,1-.209,1l-.849,3.328a4.417,4.417,0,0,0-.166.933.724.724,0,0,0,.193.514.653.653,0,0,0,.5.2,1.391,1.391,0,0,0,.9-.412,5.21,5.21,0,0,0,1.063-1.321l.036-.061-.359-.266-.045.074a4.17,4.17,0,0,1-.736.933c-.1.087-.158.1-.182.1a.111.111,0,0,1-.086-.045.207.207,0,0,1-.044-.144,5.725,5.725,0,0,1,.129-.612Z" transform="translate(91.476 24.873)" fill="#fff"/>
          <path id="Path_43" data-name="Path 43" d="M281.807,78.364a1.337,1.337,0,0,0-.346-.56,1.029,1.029,0,0,0-.714-.256,2.36,2.36,0,0,0-1.47.642,6.116,6.116,0,0,0-1.607,2.124,5.9,5.9,0,0,0-.63,2.527,2.056,2.056,0,0,0,.362,1.285,1.093,1.093,0,0,0,.885.479,1.846,1.846,0,0,0,1.061-.376,6.284,6.284,0,0,0,1.351-1.442l-.036.14a4.356,4.356,0,0,0-.147.976.757.757,0,0,0,.16.518.613.613,0,0,0,.482.185,1.509,1.509,0,0,0,.935-.42,4.735,4.735,0,0,0,.944-1.2l.036-.061-.347-.277-.048.077a4.154,4.154,0,0,1-.664.876c-.1.09-.156.1-.17.1a.073.073,0,0,1-.066-.034.264.264,0,0,1-.049-.16.769.769,0,0,1,.017-.145l.144-.676,1.272-5.035.03-.119-1.209.209Zm-1.428,4.06c-.539.77-1.038,1.161-1.483,1.161a.563.563,0,0,1-.446-.262,1.219,1.219,0,0,1-.207-.75,5.868,5.868,0,0,1,.513-2.212,5.422,5.422,0,0,1,1.169-1.844,1.286,1.286,0,0,1,.833-.425.624.624,0,0,1,.527.25,1.464,1.464,0,0,1,.2.866,5.549,5.549,0,0,1-1.1,3.216" transform="translate(88.883 24.873)" fill="#fff"/>
          <path id="Path_44" data-name="Path 44" d="M304.327,75.51l.092-.015a3.1,3.1,0,0,1,.444-.049.484.484,0,0,1,.33.091.307.307,0,0,1,.1.238,6.931,6.931,0,0,1-.215.962L303.307,83.7a5.905,5.905,0,0,0-.211,1.117.734.734,0,0,0,.188.5.6.6,0,0,0,.474.221,1.338,1.338,0,0,0,.781-.3,5.221,5.221,0,0,0,1.165-1.412l.03-.049-.308-.362-.057.1a3.875,3.875,0,0,1-.7.925c-.123.111-.237.144-.306.062a.2.2,0,0,1-.045-.135,4.533,4.533,0,0,1,.162-.791l2.235-8.839.032-.122-2.424.46Z" transform="translate(97.243 23.94)" fill="#fff"/>
          <path id="Path_45" data-name="Path 45" d="M235.436,82.681l1.305-5.154-1.21.209-.176.629a1.361,1.361,0,0,0-.346-.56,1.03,1.03,0,0,0-.716-.256,2.357,2.357,0,0,0-1.469.642,6.082,6.082,0,0,0-1.607,2.124,5.9,5.9,0,0,0-.63,2.527,2.056,2.056,0,0,0,.362,1.285,1.092,1.092,0,0,0,.885.479,1.849,1.849,0,0,0,1.061-.376,6.17,6.17,0,0,0,1.35-1.442l-.034.14a4.353,4.353,0,0,0-.147.976.745.745,0,0,0,.16.516.608.608,0,0,0,.482.186,1.515,1.515,0,0,0,.935-.42,4.785,4.785,0,0,0,.946-1.2l.034-.061-.347-.277-.047.077a4.136,4.136,0,0,1-.666.876c-.1.09-.154.1-.168.1a.079.079,0,0,1-.067-.033.265.265,0,0,1-.049-.161.73.73,0,0,1,.017-.145Zm-1.508-.256c-.54.77-1.039,1.161-1.483,1.161a.559.559,0,0,1-.446-.262,1.214,1.214,0,0,1-.209-.75,5.869,5.869,0,0,1,.514-2.212,5.41,5.41,0,0,1,1.169-1.844,1.268,1.268,0,0,1,.833-.425.62.62,0,0,1,.526.25,1.46,1.46,0,0,1,.2.866,5.558,5.558,0,0,1-1.106,3.216" transform="translate(73.98 24.873)" fill="#fff"/>
          <path id="Path_46" data-name="Path 46" d="M238.081,83.518a3.953,3.953,0,0,1-.7.925c-.128.114-.24.144-.309.061a.189.189,0,0,1-.044-.133,4.723,4.723,0,0,1,.161-.791l2.236-8.839.032-.122-2.425.46v.432l.092-.015a3.336,3.336,0,0,1,.444-.049.485.485,0,0,1,.333.091.31.31,0,0,1,.1.238,7.052,7.052,0,0,1-.214.962L236.018,83.7a5.889,5.889,0,0,0-.211,1.117.742.742,0,0,0,.188.5.6.6,0,0,0,.474.219,1.338,1.338,0,0,0,.781-.3,5.3,5.3,0,0,0,1.165-1.412l.032-.049-.309-.361Z" transform="translate(75.655 23.94)" fill="#fff"/>
          <path id="Path_47" data-name="Path 47" d="M219.042,81.626a.675.675,0,0,0-.527.244.9.9,0,0,0,0,1.168.674.674,0,0,0,.527.246.692.692,0,0,0,.53-.244.9.9,0,0,0,0-1.168.677.677,0,0,0-.532-.246" transform="translate(70.038 26.188)" fill="#fff"/>
          <path id="Path_48" data-name="Path 48" d="M230.781,75.483a5.9,5.9,0,0,0-2.7-.478H225.19l-.123.435h.247a.975.975,0,0,1,.614.135.5.5,0,0,1,.145.388,4.773,4.773,0,0,1-.182,1.107l-1.569,6.094a5.312,5.312,0,0,1-.413,1.234.821.821,0,0,1-.353.312,1.859,1.859,0,0,1-.663.1h-.057l-.133.431h3.862a6.969,6.969,0,0,0,2.3-.326,5.355,5.355,0,0,0,1.712-1.014,6.674,6.674,0,0,0,1.168-1.252,6,6,0,0,0,.682-1.514,6.363,6.363,0,0,0,.3-1.944,4.782,4.782,0,0,0-.526-2.2,3.435,3.435,0,0,0-1.419-1.507m-.073,6.3a4.73,4.73,0,0,1-1.253,1.87,3.648,3.648,0,0,1-1.412.7,7.014,7.014,0,0,1-1.883.242,1.535,1.535,0,0,1-.526-.066.247.247,0,0,1-.141-.112.353.353,0,0,1-.058-.188,5.576,5.576,0,0,1,.214-1.029l1.907-7.484c.354-.018.626-.028.832-.028a2.6,2.6,0,0,1,2.078.824,3.851,3.851,0,0,1,.712,2.545,7.5,7.5,0,0,1-.469,2.728" transform="translate(71.45 24.064)" fill="#fff"/>
          <path id="Path_49" data-name="Path 49" d="M219.031,82.6a8.472,8.472,0,0,1-.635,1.091,2.278,2.278,0,0,1-.721.583,3.372,3.372,0,0,1-1.449.259h-.857c-.3,0-.406-.046-.447-.089a.4.4,0,0,1-.15-.284,4.544,4.544,0,0,1,.173-.932L216.48,77.2a6.7,6.7,0,0,1,.378-1.23.983.983,0,0,1,.391-.408,1.972,1.972,0,0,1,.827-.123h.065l.087-.435H214.45l-.116.423.091.012a1.738,1.738,0,0,0,.186.008.972.972,0,0,1,.623.135.475.475,0,0,1,.155.379,4.976,4.976,0,0,1-.2,1.094l-1.563,6.129a5.332,5.332,0,0,1-.42,1.213.9.9,0,0,1-.371.318,2.029,2.029,0,0,1-.668.091h-.055l-.144.431h6.74l.91-3.019h-.4Z" transform="translate(68.007 24.064)" fill="#fff"/>
          <path id="Path_50" data-name="Path 50" d="M247.068,82.622a3.692,3.692,0,0,1-.687.843.537.537,0,0,1-.174.122.045.045,0,0,1-.044-.022.194.194,0,0,1-.042-.127,9.255,9.255,0,0,1,.235-1.029l.719-2.89a4.02,4.02,0,0,0,.12-.931,1.2,1.2,0,0,0-.213-.777.685.685,0,0,0-.556-.263,1.636,1.636,0,0,0-1.1.527,9.577,9.577,0,0,0-1.708,2.536l.287-1.166a4.132,4.132,0,0,0,.153-.969.966.966,0,0,0-.236-.666.79.79,0,0,0-.6-.262,1.348,1.348,0,0,0-.771.251,5.254,5.254,0,0,0-1.23,1.359,10.961,10.961,0,0,0-.641,1.112l.7-2.746-2.38.493-.078.016.09.435.081-.018a3.072,3.072,0,0,1,.452-.09.38.38,0,0,1,.28.111.314.314,0,0,1,.106.234.653.653,0,0,1-.042.188l-1.391,5.538h1.129l.016-.058c.424-1.522.67-2.352.775-2.614a10.251,10.251,0,0,1,.95-1.807,4.982,4.982,0,0,1,.993-1.219.7.7,0,0,1,.409-.164.133.133,0,0,1,.112.067.417.417,0,0,1,.055.248,4.77,4.77,0,0,1-.18.954l-1.119,4.493-.025.1h1.149l.016-.059a17.618,17.618,0,0,1,.964-2.862,9.629,9.629,0,0,1,1.673-2.622.782.782,0,0,1,.524-.3c.013,0,.054,0,.11.069a.446.446,0,0,1,.057.248,1.654,1.654,0,0,1-.019.262c-.007.048-.067.313-.215.9l-.593,2.387a7.5,7.5,0,0,0-.271,1.45.71.71,0,0,0,.174.49.557.557,0,0,0,.441.206,1.107,1.107,0,0,0,.585-.2,3.389,3.389,0,0,0,.729-.723,6.82,6.82,0,0,0,.588-.829l.033-.062-.341-.247Z" transform="translate(76.483 24.872)" fill="#fff"/>
          <path id="Path_51" data-name="Path 51" d="M248.651,77.646l.03-.12-2.38.439-.065.012v.452l.1-.017a3.751,3.751,0,0,1,.581-.081.283.283,0,0,1,.219.081.288.288,0,0,1,.082.211,6.186,6.186,0,0,1-.209,1l-.851,3.328a4.278,4.278,0,0,0-.165.933.73.73,0,0,0,.19.515.666.666,0,0,0,.5.2,1.391,1.391,0,0,0,.9-.412,5.22,5.22,0,0,0,1.063-1.321l.036-.061-.358-.266-.045.074a4.233,4.233,0,0,1-.737.933c-.1.087-.157.1-.182.1a.11.11,0,0,1-.086-.045.216.216,0,0,1-.045-.144,4.131,4.131,0,0,1,.129-.612Z" transform="translate(78.922 24.873)" fill="#fff"/>
          <path id="Path_52" data-name="Path 52" d="M210.734,75.44h.115l.124-.436h-3.015l-.112.425.094.009c.058.005.116.008.169.008a.906.906,0,0,1,.581.133.48.48,0,0,1,.144.372,4.916,4.916,0,0,1-.18,1.109l-1.42,5.64-2.65-7.645-.02-.053H202.23l-.115.431.1,0a2.018,2.018,0,0,1,.868.178,1.5,1.5,0,0,1,.5.556l-1.753,6.974a5.557,5.557,0,0,1-.416,1.242.861.861,0,0,1-.365.318,1.851,1.851,0,0,1-.668.1h-.057l-.141.431h2.957l.1-.425-.092-.008a1.327,1.327,0,0,1-.715-.178.466.466,0,0,1-.135-.368,4.9,4.9,0,0,1,.174-1.071l1.51-6.019,2.864,8.247.018.054h.354l2.1-8.367a4.882,4.882,0,0,1,.415-1.194,1.03,1.03,0,0,1,.427-.371,1.254,1.254,0,0,1,.568-.1" transform="translate(64.226 24.064)" fill="#fff"/>
          <path id="Path_53" data-name="Path 53" d="M298.475,82.644a4.729,4.729,0,0,1-.742.934c-.075.063-.116.077-.139.077s-.026-.009-.045-.036a.227.227,0,0,1-.038-.129,3.678,3.678,0,0,1,.136-.643l.8-3.126a5.086,5.086,0,0,0,.192-1.209,1.033,1.033,0,0,0-.231-.692.77.77,0,0,0-.6-.271,1.925,1.925,0,0,0-1.308.676,13.434,13.434,0,0,0-1.6,2.269l.763-2.969-2.459.5.059.427.328-.061a2.043,2.043,0,0,1,.263-.029.3.3,0,0,1,.227.1.328.328,0,0,1,.092.232,6.067,6.067,0,0,1-.209.991l-1.187,4.649-.026.1h1.146l.341-1.283a7.81,7.81,0,0,1,.506-1.368,15.931,15.931,0,0,1,1.1-1.956,4.121,4.121,0,0,1,.983-1.08c.247-.172.427-.226.545-.1a.271.271,0,0,1,.063.188,3.733,3.733,0,0,1-.14.851l-.759,2.985a5.678,5.678,0,0,0-.225,1.244.745.745,0,0,0,.162.5.565.565,0,0,0,.448.194,1.243,1.243,0,0,0,.728-.305,5.5,5.5,0,0,0,1.17-1.433l.04-.065-.334-.229Z" transform="translate(93.922 24.872)" fill="#fff"/>
          <path id="Path_54" data-name="Path 54" d="M322.467,77.543a3.2,3.2,0,0,0-1.9.7,5.227,5.227,0,0,0-2.1,4.085,2.434,2.434,0,0,0,.539,1.65,1.911,1.911,0,0,0,1.51.621,2.826,2.826,0,0,0,1.507-.445,5.312,5.312,0,0,0,1.393-1.386l.041-.054-.3-.3-.055.069a4.433,4.433,0,0,1-1.084,1.018,1.93,1.93,0,0,1-.958.275,1.213,1.213,0,0,1-.974-.416,1.706,1.706,0,0,1-.361-1.146,5.31,5.31,0,0,1,.528-2.253,4.01,4.01,0,0,1,1.053-1.428,1.927,1.927,0,0,1,1.216-.5.783.783,0,0,1,.486.131.248.248,0,0,1,.1.2.342.342,0,0,1-.025.123,1.022,1.022,0,0,1-.173.219,1.149,1.149,0,0,0-.218.31.766.766,0,0,0-.055.292.61.61,0,0,0,.154.424.524.524,0,0,0,.4.176.619.619,0,0,0,.512-.284,1.336,1.336,0,0,0,.267-.836,1.184,1.184,0,0,0-.379-.886,1.563,1.563,0,0,0-1.12-.359" transform="translate(102.175 24.878)" fill="#fff"/>
          <path id="Path_55" data-name="Path 55" d="M328.277,81.418a5.784,5.784,0,0,0,.894-.276,4.03,4.03,0,0,0,1.707-1.215,2,2,0,0,0,.448-1.23,1.1,1.1,0,0,0-.358-.814,1.522,1.522,0,0,0-1.08-.341,3.293,3.293,0,0,0-1.918.656,5.046,5.046,0,0,0-1.534,1.828,4.974,4.974,0,0,0-.61,2.3,2.654,2.654,0,0,0,.5,1.553,1.738,1.738,0,0,0,1.5.717,4.3,4.3,0,0,0,3.014-1.771l.04-.045-.219-.345-.07.061a7.2,7.2,0,0,1-1.273.958,1.9,1.9,0,0,1-.872.213,1.2,1.2,0,0,1-.939-.437,1.579,1.579,0,0,1-.392-1.074,5.19,5.19,0,0,1,.038-.547c.416-.054.794-.12,1.124-.2m-.626-1.588a3.71,3.71,0,0,1,.635-.977,2,2,0,0,1,1.356-.781.549.549,0,0,1,.435.165.654.654,0,0,1,.153.452,1.844,1.844,0,0,1-.386,1.037,3.162,3.162,0,0,1-1.179.951,4.726,4.726,0,0,1-1.436.407,6.633,6.633,0,0,1,.421-1.253" transform="translate(104.536 24.878)" fill="#fff"/>
          <path id="Path_56" data-name="Path 56" d="M325.79,77.647l.03-.12-2.379.439-.065.012v.452l.094-.017a3.892,3.892,0,0,1,.581-.082.288.288,0,0,1,.222.083.277.277,0,0,1,.079.209,6.236,6.236,0,0,1-.207,1.005l-.851,3.327a4.264,4.264,0,0,0-.166.934.732.732,0,0,0,.192.514.66.66,0,0,0,.5.2,1.394,1.394,0,0,0,.9-.412,5.2,5.2,0,0,0,1.063-1.321l.036-.062-.358-.264-.045.074a4.213,4.213,0,0,1-.736.932c-.1.082-.151.1-.182.1a.11.11,0,0,1-.086-.044.217.217,0,0,1-.045-.144,4.742,4.742,0,0,1,.129-.613Z" transform="translate(103.67 24.873)" fill="#fff"/>
          <path id="Path_57" data-name="Path 57" d="M315.08,74.832l-.022.042a1.547,1.547,0,0,1-.3.449.425.425,0,0,1-.276.1.747.747,0,0,1-.174-.018c-.025-.011-.162-.07-.415-.184a4.223,4.223,0,0,0-.753-.3,2.882,2.882,0,0,0-.712-.083,2.4,2.4,0,0,0-1.836.774,2.667,2.667,0,0,0-.716,1.858,2.875,2.875,0,0,0,.31,1.3,6.441,6.441,0,0,0,.841,1.124,13.574,13.574,0,0,1,1.629,2.15,2.008,2.008,0,0,1,.2.888,2.177,2.177,0,0,1-.429,1.33,1.437,1.437,0,0,1-1.238.567,1.842,1.842,0,0,1-1.433-.613,2.328,2.328,0,0,1-.553-1.6c0-.236.017-.536.048-.892l.008-.087h-.376l-.763,3.9h.4l.019-.052c.131-.361.308-.544.526-.544a1.038,1.038,0,0,1,.394.106,7.938,7.938,0,0,0,1.1.407,3.255,3.255,0,0,0,.75.083,2.921,2.921,0,0,0,1.5-.4,2.722,2.722,0,0,0,1.055-1.145,3.419,3.419,0,0,0,.363-1.519,2.946,2.946,0,0,0-.3-1.306,7.889,7.889,0,0,0-1.277-1.685,10.555,10.555,0,0,1-1.236-1.523,1.893,1.893,0,0,1-.263-.952,1.418,1.418,0,0,1,.406-.992,1.374,1.374,0,0,1,1.046-.428,1.68,1.68,0,0,1,1.319.547,2.016,2.016,0,0,1,.5,1.416c0,.174-.008.408-.024.716l-.005.085h.371l.712-3.5Z" transform="translate(98.853 24.008)" fill="#fff"/>
          <path id="Path_58" data-name="Path 58" d="M339.625,79.088a1.271,1.271,0,0,0-.219-.794.674.674,0,0,0-.555-.3.564.564,0,0,0-.45.214.808.808,0,0,0-.177.54.849.849,0,0,0,.14.481.733.733,0,0,0,.359.289.71.71,0,0,1,.208.1.111.111,0,0,1,.025.082.723.723,0,0,1-.036.222,5.189,5.189,0,0,1-.386.818c-.349.639-.646,1.156-.885,1.532-.429.667-.762,1.166-1.008,1.514l-.272-3.437a13.177,13.177,0,0,0-.17-1.487,3.644,3.644,0,0,0-.316-.823l-.029-.058-1.882.526.079-.333h-1.025l.485-1.922.026-.1H333.1l-.023.041a6.1,6.1,0,0,1-1.05,1.514,3.015,3.015,0,0,1-1.166.647l-.045.013-.1.433h.983L330.635,83a5.646,5.646,0,0,0-.211,1.244.834.834,0,0,0,.2.579.693.693,0,0,0,.53.229,1.278,1.278,0,0,0,.787-.3,5.179,5.179,0,0,0,1.16-1.427l.034-.058-.334-.287-.05.071a8.792,8.792,0,0,1-.691.9c-.2.2-.316.239-.377.239a.074.074,0,0,1-.061-.037.241.241,0,0,1-.037-.145,5.011,5.011,0,0,1,.181-.893l1.11-4.322h.976l.037.172.073-.009a4.234,4.234,0,0,1,.482-.045.638.638,0,0,1,.549.222,3.38,3.38,0,0,1,.259,1.379l.362,4.68a11.812,11.812,0,0,1-.9,1.158,4.739,4.739,0,0,1-.827.79.426.426,0,0,1-.087.057l-.018-.008a.8.8,0,0,1-.1-.206.522.522,0,0,0-.14-.25.412.412,0,0,0-.266-.083.683.683,0,0,0-.519.263.849.849,0,0,0-.232.58.675.675,0,0,0,.17.457.54.54,0,0,0,.417.2,1.589,1.589,0,0,0,.863-.345,8.582,8.582,0,0,0,1.484-1.618c.983-1.267,1.781-2.381,2.44-3.408a23,23,0,0,0,1.367-2.322,3.345,3.345,0,0,0,.359-1.375" transform="translate(106.011 24.43)" fill="#fff"/>
          <path id="Path_59" data-name="Path 59" d="M341.123,77.674a18.035,18.035,0,0,0-1.115-2.984l-.038-.083-.355.226.024.061a9.315,9.315,0,0,1,.733,3.268,15.653,15.653,0,0,1-.6,4.039,14.868,14.868,0,0,1-1.557,3.788,9.341,9.341,0,0,1-1.955,2.26l-.055.046.244.362.067-.055a14.966,14.966,0,0,0,3.9-4.549,9.319,9.319,0,0,0,.983-4.322,7.934,7.934,0,0,0-.27-2.057" transform="translate(107.864 23.936)" fill="#fff"/>
          <path id="Path_60" data-name="Path 60" d="M318.8,78.217a1.88,1.88,0,0,0-1.481-.674,3.269,3.269,0,0,0-1.836.654,4.66,4.66,0,0,0-1.5,1.766,4.961,4.961,0,0,0-.557,2.227,2.56,2.56,0,0,0,.583,1.736,1.931,1.931,0,0,0,1.521.676,3.285,3.285,0,0,0,1.851-.652,4.394,4.394,0,0,0,1.475-1.761,5.2,5.2,0,0,0,.526-2.24,3.028,3.028,0,0,0-.144-.963,2.227,2.227,0,0,0-.433-.769m-.725,1.733c-.015.09-.03.18-.042.271a6.931,6.931,0,0,1-.7,2.339c-.523,1-1.08,1.514-1.659,1.514a.9.9,0,0,1-.728-.354,1.606,1.606,0,0,1-.3-1.038,6.675,6.675,0,0,1,.8-3.072c.52-1.009,1.092-1.52,1.7-1.52a.858.858,0,0,1,.705.337,1.587,1.587,0,0,1,.28,1.008,3.065,3.065,0,0,1-.059.516" transform="translate(100.556 24.878)" fill="#fff"/>
          <path id="Path_61" data-name="Path 61" d="M347.676,15.9a9.657,9.657,0,0,0-.007-3.694,5.42,5.42,0,0,0-1.481-2.982,7.921,7.921,0,0,0-4.276-2.006,43.931,43.931,0,0,0-7.336-.481,35.641,35.641,0,0,0-5.441.4,15.45,15.45,0,0,0-4.121,1.128,11.54,11.54,0,0,0-3.5,2.374,12.544,12.544,0,0,0-2.36,3.759l9.638.959a5.531,5.531,0,0,1,2.041-2.2,8.579,8.579,0,0,1,3.94-.752,3.6,3.6,0,0,1,2.619.7,2.825,2.825,0,0,1,.283,2.462c-1.37.465-2.664.848-3.862,1.136s-3.812.792-7.823,1.511q-5.007.888-7.167,2.718A7.957,7.957,0,0,0,316.09,25.6a5.258,5.258,0,0,0,1.466,5.076q2.084,2.062,6.886,2.062a19.674,19.674,0,0,0,6.553-1.03,17.221,17.221,0,0,0,4.54-2.573,9.729,9.729,0,0,0,.037,1.581,7.392,7.392,0,0,0,.465,1.463H345.7a9.931,9.931,0,0,1-.542-2.541,12.6,12.6,0,0,1,.31-2.753Zm-11.272,6a7.013,7.013,0,0,1-1.194,2.9,6.67,6.67,0,0,1-2.477,1.887,7.854,7.854,0,0,1-3.358.767,3.245,3.245,0,0,1-2.352-.712,1.932,1.932,0,0,1-.474-1.839,2.949,2.949,0,0,1,1.216-1.759,13.074,13.074,0,0,1,4.276-1.52q2.4-.537,4.67-1.247Z" transform="translate(101.368 2.162)" fill="#fff" fill-rule="evenodd"/>
          <path id="Path_62" data-name="Path 62" d="M309.812,7.169h10.3l-5,24.874h-10.3Z" transform="translate(97.792 2.3)" fill="#fff" fill-rule="evenodd"/>
          <path id="Path_63" data-name="Path 63" d="M310.355,0h10.3l-1.306,6.493h-10.3Z" transform="translate(99.153 0)" fill="#fff" fill-rule="evenodd"/>
          <path id="Path_64" data-name="Path 64" d="M270.763,7.307h9.606l-.73,3.63a17.8,17.8,0,0,1,4.84-3.239,13.707,13.707,0,0,1,5.294-.96,9.126,9.126,0,0,1,4.865,1.055,6.072,6.072,0,0,1,2.432,3.144,20.164,20.164,0,0,1,5.1-3.318,13.586,13.586,0,0,1,5.1-.881q4.327,0,6.271,2.383c1.3,1.584,1.609,4.063.93,7.436l-3.142,15.624H301.012l2.85-14.167a3.355,3.355,0,0,0-.2-2.511,2.547,2.547,0,0,0-2.322-1.288,4.639,4.639,0,0,0-3.178,1.215,6.959,6.959,0,0,0-1.894,3.918l-2.582,12.833H283.361l2.757-13.7a8.227,8.227,0,0,0,.247-2.223,2.388,2.388,0,0,0-.835-1.511,2.712,2.712,0,0,0-1.783-.575,4.615,4.615,0,0,0-3.158,1.239,7.262,7.262,0,0,0-1.959,4.077l-2.556,12.7H265.758Z" transform="translate(85.264 2.162)" fill="#fff" fill-rule="evenodd"/>
          <path id="Path_65" data-name="Path 65" d="M259.818,0h10.325l-6.909,34.34H252.91Z" transform="translate(81.142 0)" fill="#fff" fill-rule="evenodd"/>
          <path id="Path_66" data-name="Path 66" d="M258.153,15.9a9.606,9.606,0,0,0-.007-3.694,5.4,5.4,0,0,0-1.481-2.982,7.912,7.912,0,0,0-4.274-2.006,43.949,43.949,0,0,0-7.337-.481,35.654,35.654,0,0,0-5.441.4,15.426,15.426,0,0,0-4.12,1.128,11.522,11.522,0,0,0-3.5,2.374,12.544,12.544,0,0,0-2.362,3.759l9.638.959a5.537,5.537,0,0,1,2.039-2.2,8.589,8.589,0,0,1,3.941-.752,3.6,3.6,0,0,1,2.621.7,2.839,2.839,0,0,1,.283,2.462c-1.371.465-2.667.848-3.863,1.136s-3.811.792-7.822,1.511c-3.339.592-5.722,1.5-7.168,2.718a7.964,7.964,0,0,0-2.734,4.663,5.258,5.258,0,0,0,1.466,5.076q2.084,2.062,6.885,2.062a19.668,19.668,0,0,0,6.553-1.03,17.228,17.228,0,0,0,4.541-2.573,9.782,9.782,0,0,0,.036,1.581,7.33,7.33,0,0,0,.466,1.463h9.658a10.038,10.038,0,0,1-.54-2.541,12.533,12.533,0,0,1,.312-2.753Zm-11.271,6a7.032,7.032,0,0,1-1.2,2.9,6.648,6.648,0,0,1-2.477,1.887,7.845,7.845,0,0,1-3.356.767,3.241,3.241,0,0,1-2.352-.712,1.93,1.93,0,0,1-.475-1.839,2.955,2.955,0,0,1,1.216-1.759,13.086,13.086,0,0,1,4.276-1.52q2.4-.537,4.672-1.247Z" transform="translate(72.646 2.162)" fill="#fff"/>
          <path id="Path_67" data-name="Path 67" d="M236.153,13.265Z" transform="translate(75.766 4.256)" fill="#fff"/>
          <path id="Path_68" data-name="Path 68" d="M236.995,10.4A11.9,11.9,0,0,0,235.169,4.9a9.933,9.933,0,0,0-4.389-3.631A19.954,19.954,0,0,0,222.9,0H205.88l-6.908,34.34h17.021a30.934,30.934,0,0,0,7.018-.935,15.878,15.878,0,0,0,5.7-2.734,18.739,18.739,0,0,0,4.776-5.077,24.865,24.865,0,0,0,3.074-8.54,23.259,23.259,0,0,0,.431-6.65m-11.979,6.859a17.473,17.473,0,0,1-2.055,5.965,6.919,6.919,0,0,1-2.9,2.576,13.786,13.786,0,0,1-5.257.736H212L215.77,7.782h2.857q4.456,0,5.974,2.014t.415,7.468" transform="translate(63.837 0)" fill="#fff" fill-rule="evenodd"/>
          <path id="Path_69" data-name="Path 69" d="M178.255,18.768h11.007l-1.922,9.554H176.335Z" transform="translate(56.574 6.021)" fill="#fff" fill-rule="evenodd"/>
          <path id="Path_70" data-name="Path 70" d="M155.826,0h11.462l-5.205,25.883H179.96l-1.7,8.457h-29.34Z" transform="translate(47.778 0)" fill="#fff" fill-rule="evenodd"/>
          <path id="Path_71" data-name="Path 71" d="M125.914,18.768h11.005L135,28.321H123.992Z" transform="translate(39.781 6.021)" fill="#fff" fill-rule="evenodd"/>
          <path id="Path_72" data-name="Path 72" d="M98.791,0h10.7l10.136,19,3.823-19h10.8l-6.909,34.34h-10.8l-10.1-18.854-3.792,18.854H91.883Z" transform="translate(29.479 0)" fill="#fff" fill-rule="evenodd"/>
          <path id="Path_73" data-name="Path 73" d="M348.208,11.747a5.617,5.617,0,1,1,5.616-5.619,5.622,5.622,0,0,1-5.616,5.619m0-10.19a4.573,4.573,0,1,0,4.571,4.571,4.576,4.576,0,0,0-4.571-4.571" transform="translate(109.915 0.164)" fill="#fff"/>
          <path id="Path_74" data-name="Path 74" d="M346.258,5.034h.873a4.6,4.6,0,0,0,1.063-.07.641.641,0,0,0,.331-.248.776.776,0,0,0,.119-.439.7.7,0,0,0-.159-.477.722.722,0,0,0-.445-.23c-.1-.013-.383-.02-.861-.02h-.922Zm-1.182,3.377V2.56h2.487a4.273,4.273,0,0,1,1.363.159,1.352,1.352,0,0,1,.68.56,1.686,1.686,0,0,1,.255.922,1.571,1.571,0,0,1-.387,1.09,1.867,1.867,0,0,1-1.157.539,2.715,2.715,0,0,1,.633.491,6.644,6.644,0,0,1,.672.948l.713,1.143h-1.411l-.855-1.273a8.33,8.33,0,0,0-.623-.86.913.913,0,0,0-.354-.244,2.016,2.016,0,0,0-.6-.065h-.239V8.411Z" transform="translate(110.711 0.821)" fill="#fff" fill-rule="evenodd"/>
          <path id="Path_75" data-name="Path 75" d="M101.223,33.114,97.781,49.187H92.747L96.19,33.114Z" transform="translate(29.756 10.624)" fill="#fff"/>
          <path id="Path_76" data-name="Path 76" d="M104.952,38.339a5.8,5.8,0,0,1,4.495-2.062,3.179,3.179,0,0,1,2.368.806,2.717,2.717,0,0,1,.79,1.979,16.732,16.732,0,0,1-.439,2.763l-1.349,6.348h-4.474l1.152-5.4a22.283,22.283,0,0,0,.416-2.271q0-.967-.877-.966a2.156,2.156,0,0,0-1.721.926,6.464,6.464,0,0,0-1.107,2.671l-1.1,5.043H98.615l2.5-11.631h4.176l-.383,1.754Z" transform="translate(31.639 11.639)" fill="#fff"/>
          <path id="Path_77" data-name="Path 77" d="M122.576,39.324l-4.178.45q-.186-1.052-1.568-1.053a2.116,2.116,0,0,0-1.227.3.844.844,0,0,0-.417.691.81.81,0,0,0,.367.675,5.666,5.666,0,0,0,1.968.5,6.906,6.906,0,0,1,3.426,1.156A2.657,2.657,0,0,1,121.8,44.1a3.761,3.761,0,0,1-1.667,3.07,8.321,8.321,0,0,1-5.076,1.272,7.912,7.912,0,0,1-4.079-.81,3.423,3.423,0,0,1-1.514-2.675l4.408-.384a1.671,1.671,0,0,0,1.864,1.413,2.61,2.61,0,0,0,1.3-.317,1,1,0,0,0,.564-.911.717.717,0,0,0-.405-.722,6.736,6.736,0,0,0-1.535-.362,7.2,7.2,0,0,1-3.519-1.228,2.66,2.66,0,0,1-.922-2.072,3.423,3.423,0,0,1,.691-1.994A4.566,4.566,0,0,1,114,36.841a9.214,9.214,0,0,1,3.438-.564,7.546,7.546,0,0,1,3.579.686,3.2,3.2,0,0,1,1.563,2.362" transform="translate(35.119 11.639)" fill="#fff"/>
          <path id="Path_78" data-name="Path 78" d="M129.31,37.524l-.68,3.19h-2.335l-.855,4.11a1.739,1.739,0,0,0-.088.56q0,.791,1.042.79a9.293,9.293,0,0,0,1.382-.209l-.668,3.191a24.667,24.667,0,0,1-2.961.273,3.376,3.376,0,0,1-2.657-.9,2.925,2.925,0,0,1-.785-1.963,13.778,13.778,0,0,1,.318-1.876l.832-3.98h-1.6l.658-3.19h1.633l.384-1.821,4.989-2.488L127,37.524Z" transform="translate(38.581 10.656)" fill="#fff"/>
          <path id="Path_79" data-name="Path 79" d="M133.787,37.555l-2.5,11.633H126.8l2.488-11.633Zm.921-4.441-.635,3.07h-4.463l.625-3.07Z" transform="translate(40.682 10.624)" fill="#fff"/>
          <path id="Path_80" data-name="Path 80" d="M141.735,37.524l-.68,3.19h-2.335l-.855,4.11a1.739,1.739,0,0,0-.089.56q0,.791,1.042.79a9.292,9.292,0,0,0,1.382-.209l-.668,3.191a24.668,24.668,0,0,1-2.961.273,3.376,3.376,0,0,1-2.658-.9,2.925,2.925,0,0,1-.785-1.963,13.777,13.777,0,0,1,.318-1.876l.832-3.98h-1.6l.658-3.19h1.633l.384-1.821,4.989-2.488-.921,4.31Z" transform="translate(42.568 10.656)" fill="#fff"/>
          <path id="Path_81" data-name="Path 81" d="M153.711,36.477,151.223,48.11h-4.2l.405-1.777-.056-.044a5.715,5.715,0,0,1-4.484,2.094,3.2,3.2,0,0,1-2.395-.816,2.72,2.72,0,0,1-.8-1.968,17,17,0,0,1,.46-2.894l1.36-6.228h4.462l-1.228,5.678q-.264,1.25-.3,1.453a2.791,2.791,0,0,0-.038.5v.033c0,.627.285.943.855.943a2.189,2.189,0,0,0,1.749-.922,6.324,6.324,0,0,0,1.113-2.642l1.086-5.043Z" transform="translate(44.82 11.703)" fill="#fff"/>
          <path id="Path_82" data-name="Path 82" d="M159.837,37.524l-.68,3.19h-2.335l-.855,4.11a1.739,1.739,0,0,0-.089.56q0,.791,1.042.79a9.294,9.294,0,0,0,1.382-.209l-.668,3.191a24.667,24.667,0,0,1-2.961.273,3.377,3.377,0,0,1-2.658-.9,2.925,2.925,0,0,1-.784-1.963,13.78,13.78,0,0,1,.318-1.876l.832-3.98h-1.6l.658-3.19h1.633l.384-1.821,4.989-2.488-.921,4.31Z" transform="translate(48.375 10.656)" fill="#fff"/>
          <path id="Path_83" data-name="Path 83" d="M170.59,45.19a5.856,5.856,0,0,1-2.548,2.5,9.039,9.039,0,0,1-3.943.761q-3.443,0-4.895-1.551a5.354,5.354,0,0,1-1.453-3.8,6.521,6.521,0,0,1,.68-2.932,6.752,6.752,0,0,1,1.841-2.307,6.643,6.643,0,0,1,2.292-1.256,9.663,9.663,0,0,1,2.643-.322q3.255,0,4.67,1.413a4.724,4.724,0,0,1,1.415,3.475A15.433,15.433,0,0,1,171,43.5h-8.869q.186,2.334,2.095,2.335a2.421,2.421,0,0,0,2.061-1.053Zm-3.727-3.849a2.277,2.277,0,0,0,.077-.668,1.664,1.664,0,0,0-.532-1.342,1.939,1.939,0,0,0-1.309-.456,2.221,2.221,0,0,0-1.514.619,3.9,3.9,0,0,0-1.053,1.847Z" transform="translate(50.612 11.639)" fill="#fff"/>
          <path id="Path_84" data-name="Path 84" d="M181.3,36.277a5.873,5.873,0,0,1,4.557,1.58,5.325,5.325,0,0,1,1.43,3.694,7.378,7.378,0,0,1-.823,3.278,6.212,6.212,0,0,1-2.473,2.642,7.864,7.864,0,0,1-4.062.975,6.036,6.036,0,0,1-4.517-1.506,5.19,5.19,0,0,1-1.458-3.756,7.187,7.187,0,0,1,.872-3.409,6.247,6.247,0,0,1,2.527-2.57,7.956,7.956,0,0,1,3.947-.927m-1.084,9.155a2.219,2.219,0,0,0,1.984-1.277,5.578,5.578,0,0,0,.736-2.833,1.941,1.941,0,0,0-.56-1.585,1.915,1.915,0,0,0-1.239-.456,2.283,2.283,0,0,0-2.121,1.283,5.37,5.37,0,0,0-.707,2.621,2.373,2.373,0,0,0,.553,1.607,1.724,1.724,0,0,0,1.354.641" transform="translate(55.81 11.639)" fill="#fff"/>
          <path id="Path_85" data-name="Path 85" d="M195.379,33.4l-.712,2.654a5.084,5.084,0,0,0-1.557-.3,1.248,1.248,0,0,0-.794.236,3.4,3.4,0,0,0-.6,1.629h2.116l-.68,3.19h-2.1l-1.777,8.443h-4.495l1.82-8.443h-1.656l.668-3.19h1.667a24.317,24.317,0,0,1,.62-2.631,3.009,3.009,0,0,1,.7-1.1,2.958,2.958,0,0,1,1.228-.738,5.774,5.774,0,0,1,1.782-.243,17.8,17.8,0,0,1,3.771.494" transform="translate(59.283 10.557)" fill="#fff"/>
          <path id="Path_86" data-name="Path 86" d="M220.467,33.114,217,49.187H212.87l2.971-12.28h-.066l-5.953,12.28H206.16l-.691-12.28h-.045l-2.313,12.28h-4.134l3.433-16.073h6.063l.6,10.186h.044l5.1-10.186Z" transform="translate(63.838 10.624)" fill="#fff"/>
          <path id="Path_87" data-name="Path 87" d="M216.131,39.731a4.036,4.036,0,0,1,1.848-2.556,8.667,8.667,0,0,1,4.468-.9q3.43,0,4.632.86a2.89,2.89,0,0,1,1.2,2.5,17.834,17.834,0,0,1-.6,3.609,17.167,17.167,0,0,0-.559,3.31,4.867,4.867,0,0,0,.285,1.611h-4.353a6.141,6.141,0,0,1-.153-1.326,5.665,5.665,0,0,1-3.914,1.6,4.185,4.185,0,0,1-3.17-1.029,3.4,3.4,0,0,1-.964-2.391,3.094,3.094,0,0,1,.86-2.358,4.517,4.517,0,0,1,2.123-1.1,29.03,29.03,0,0,1,3.442-.509,17.045,17.045,0,0,0,2.587-.407,3.5,3.5,0,0,0,.132-.79.8.8,0,0,0-.444-.7,2.3,2.3,0,0,0-1.179-.263,2.722,2.722,0,0,0-1.244.246,2.1,2.1,0,0,0-.839,1.038Zm7.237,3.233a12.371,12.371,0,0,0-3.618.91,1.141,1.141,0,0,0-.538.933,1.086,1.086,0,0,0,.384.882,1.471,1.471,0,0,0,.987.325,2.621,2.621,0,0,0,1.671-.687,3.793,3.793,0,0,0,1.113-2.363" transform="translate(68.93 11.639)" fill="#fff"/>
          <path id="Path_88" data-name="Path 88" d="M231.792,38.339a5.8,5.8,0,0,1,4.495-2.062,3.179,3.179,0,0,1,2.368.806,2.717,2.717,0,0,1,.79,1.979,16.589,16.589,0,0,1-.438,2.763l-1.349,6.348h-4.472l1.15-5.4a21.855,21.855,0,0,0,.416-2.271c0-.645-.291-.966-.877-.966a2.156,2.156,0,0,0-1.721.926,6.465,6.465,0,0,0-1.107,2.671l-1.1,5.043h-4.495l2.5-11.631h4.178l-.384,1.754Z" transform="translate(72.333 11.639)" fill="#fff"/>
          <path id="Path_89" data-name="Path 89" d="M238.025,39.731a4.038,4.038,0,0,1,1.849-2.556,8.662,8.662,0,0,1,4.467-.9q3.431,0,4.633.86a2.89,2.89,0,0,1,1.2,2.5,17.9,17.9,0,0,1-.6,3.609,17.2,17.2,0,0,0-.56,3.31,4.9,4.9,0,0,0,.285,1.611h-4.352a6.058,6.058,0,0,1-.153-1.326,5.668,5.668,0,0,1-3.915,1.6,4.18,4.18,0,0,1-3.169-1.029,3.391,3.391,0,0,1-.964-2.391,3.089,3.089,0,0,1,.86-2.358,4.51,4.51,0,0,1,2.123-1.1,28.944,28.944,0,0,1,3.442-.509,17.075,17.075,0,0,0,2.588-.407,3.505,3.505,0,0,0,.132-.79.8.8,0,0,0-.444-.7,2.305,2.305,0,0,0-1.18-.263,2.718,2.718,0,0,0-1.244.246,2.1,2.1,0,0,0-.839,1.038Zm7.237,3.233a12.4,12.4,0,0,0-3.618.91,1.144,1.144,0,0,0-.538.933,1.09,1.09,0,0,0,.384.882,1.476,1.476,0,0,0,.987.325,2.621,2.621,0,0,0,1.672-.687,3.792,3.792,0,0,0,1.112-2.363" transform="translate(75.955 11.639)" fill="#fff"/>
          <path id="Path_90" data-name="Path 90" d="M262.228,36.541l-2.313,10.94q-.689,3.247-2.181,4.327a7.327,7.327,0,0,1-4.33,1.079,11.324,11.324,0,0,1-3.1-.329,3.706,3.706,0,0,1-1.893-1.354,3.562,3.562,0,0,1-.788-2.22,4.73,4.73,0,0,1,.02-.538l4.256.6a1.133,1.133,0,0,0,1.292,1.183,1.788,1.788,0,0,0,1.35-.56,3.5,3.5,0,0,0,.788-1.687l.384-1.743-.045-.044a4.622,4.622,0,0,1-3.442,1.544,3.515,3.515,0,0,1-2.844-1.265,5.028,5.028,0,0,1-1.059-3.339,7.4,7.4,0,0,1,1.663-4.817,5.193,5.193,0,0,1,4.213-2.045,4.229,4.229,0,0,1,3.532,1.906l.362-1.643Zm-7.969,8.2a2,2,0,0,0,1.864-1.333,5.947,5.947,0,0,0,.623-2.516A1.653,1.653,0,0,0,256.3,39.7a1.432,1.432,0,0,0-1.079-.468,2.145,2.145,0,0,0-1.787,1.164,4.638,4.638,0,0,0-.757,2.588,1.79,1.79,0,0,0,.444,1.286,1.5,1.5,0,0,0,1.136.468" transform="translate(79.446 11.639)" fill="#fff"/>
          <path id="Path_91" data-name="Path 91" d="M271.652,45.19a5.863,5.863,0,0,1-2.548,2.5,9.039,9.039,0,0,1-3.943.761q-3.443,0-4.9-1.551a5.354,5.354,0,0,1-1.453-3.8,6.538,6.538,0,0,1,.679-2.932,6.773,6.773,0,0,1,1.843-2.307,6.642,6.642,0,0,1,2.292-1.256,9.646,9.646,0,0,1,2.642-.322q3.257,0,4.67,1.413a4.725,4.725,0,0,1,1.416,3.475,15.612,15.612,0,0,1-.3,2.337h-8.869q.186,2.334,2.094,2.335a2.421,2.421,0,0,0,2.062-1.053Zm-3.727-3.849a2.321,2.321,0,0,0,.077-.668,1.665,1.665,0,0,0-.532-1.342,1.94,1.94,0,0,0-1.31-.456,2.215,2.215,0,0,0-1.512.619,3.884,3.884,0,0,0-1.053,1.847Z" transform="translate(83.036 11.639)" fill="#fff"/>
          <path id="Path_92" data-name="Path 92" d="M283.013,38.251a8.079,8.079,0,0,1,2.3-1.559,5.913,5.913,0,0,1,2.215-.415,3.1,3.1,0,0,1,2.368.839,2.857,2.857,0,0,1,.79,2.033,6.621,6.621,0,0,1-.144,1.383l-1.655,7.641H284.4l1.074-4.966c.271-1.265.421-2.017.45-2.26s.044-.409.044-.5q0-.911-.855-.91a2.012,2.012,0,0,0-1.651.833A6.583,6.583,0,0,0,282.431,43l-1.107,5.175h-4.485l1.053-4.879q.418-1.963.466-2.323a4.459,4.459,0,0,0,.05-.549.79.79,0,0,0-.9-.888,2.174,2.174,0,0,0-1.432.7,4.475,4.475,0,0,0-1.112,2.363l-1.206,5.581h-4.495l2.5-11.633h4.155l-.362,1.667.045.044a5.877,5.877,0,0,1,4.307-1.973,3.655,3.655,0,0,1,1.942.515,2.643,2.643,0,0,1,1.162,1.458" transform="translate(86.389 11.639)" fill="#fff"/>
          <path id="Path_93" data-name="Path 93" d="M299.209,45.19a5.857,5.857,0,0,1-2.548,2.5,9.035,9.035,0,0,1-3.943.761q-3.441,0-4.895-1.551a5.353,5.353,0,0,1-1.452-3.8,6.52,6.52,0,0,1,.679-2.932,6.74,6.74,0,0,1,1.843-2.307,6.638,6.638,0,0,1,2.29-1.256,9.664,9.664,0,0,1,2.643-.322q3.257,0,4.67,1.413a4.724,4.724,0,0,1,1.415,3.475,15.558,15.558,0,0,1-.3,2.337h-8.871q.188,2.334,2.095,2.335a2.425,2.425,0,0,0,2.062-1.053Zm-3.727-3.849a2.27,2.27,0,0,0,.078-.668,1.666,1.666,0,0,0-.534-1.342,1.937,1.937,0,0,0-1.309-.456,2.215,2.215,0,0,0-1.512.619,3.883,3.883,0,0,0-1.053,1.847Z" transform="translate(91.877 11.639)" fill="#fff"/>
          <path id="Path_94" data-name="Path 94" d="M303.141,38.339a5.8,5.8,0,0,1,4.495-2.062,3.179,3.179,0,0,1,2.368.806,2.717,2.717,0,0,1,.79,1.979,16.588,16.588,0,0,1-.439,2.763l-1.349,6.348h-4.472l1.15-5.4A21.879,21.879,0,0,0,306.1,40.5c0-.645-.29-.966-.877-.966a2.156,2.156,0,0,0-1.721.926,6.464,6.464,0,0,0-1.107,2.671l-1.1,5.043H296.8l2.5-11.631h4.178L303.1,38.3Z" transform="translate(95.224 11.639)" fill="#fff"/>
          <path id="Path_95" data-name="Path 95" d="M317.506,37.524l-.68,3.19H314.49l-.856,4.11a1.776,1.776,0,0,0-.087.56q0,.791,1.042.79a9.3,9.3,0,0,0,1.382-.209l-.67,3.191a24.628,24.628,0,0,1-2.96.273,3.381,3.381,0,0,1-2.659-.9,2.931,2.931,0,0,1-.785-1.963,13.631,13.631,0,0,1,.32-1.876l.832-3.98h-1.6l.658-3.19h1.633l.384-1.821,4.988-2.488-.921,4.31Z" transform="translate(98.961 10.656)" fill="#fff"/>
          <path id="Path_96" data-name="Path 96" d="M107.221,58.643l-4.649.252a2.053,2.053,0,0,0-2.335-2.095,2.143,2.143,0,0,0-1.364.38,1.121,1.121,0,0,0-.477.9.988.988,0,0,0,.383.729,6.688,6.688,0,0,0,1.82.882,24.937,24.937,0,0,1,2.961,1.327,5.574,5.574,0,0,1,1.864,1.622,4.132,4.132,0,0,1,.724,2.488,4.725,4.725,0,0,1-.785,2.617,5.93,5.93,0,0,1-2.259,1.994,9.083,9.083,0,0,1-4.194.783q-3.826,0-5.427-1.467a4.892,4.892,0,0,1-1.6-3.772v-.374l4.67-.317a2.812,2.812,0,0,0,.664,2.121,2.581,2.581,0,0,0,1.836.619,2.759,2.759,0,0,0,1.8-.515,1.5,1.5,0,0,0,.618-1.173,1.3,1.3,0,0,0-.394-.911,5.739,5.739,0,0,0-1.942-.975q-3.541-1.272-4.479-2.346a3.809,3.809,0,0,1-.936-2.588,4.4,4.4,0,0,1,.773-2.523,5,5,0,0,1,2.247-1.77,8.955,8.955,0,0,1,3.537-.631q6.522,0,6.94,4.737" transform="translate(29.479 17.295)" fill="#fff"/>
          <path id="Path_97" data-name="Path 97" d="M112.875,58.524l-.68,3.19h-2.335L109,65.824a1.739,1.739,0,0,0-.089.56q0,.791,1.042.79a9.294,9.294,0,0,0,1.382-.209l-.668,3.191a24.665,24.665,0,0,1-2.961.273,3.376,3.376,0,0,1-2.657-.9,2.925,2.925,0,0,1-.785-1.963,13.775,13.775,0,0,1,.318-1.876l.832-3.98h-1.6l.658-3.19h1.633l.384-1.821,4.989-2.488-.921,4.31Z" transform="translate(33.308 17.393)" fill="#fff"/>
          <path id="Path_98" data-name="Path 98" d="M124.851,57.477,122.363,69.11h-4.2l.406-1.777-.055-.044a5.715,5.715,0,0,1-4.484,2.094,3.2,3.2,0,0,1-2.395-.816,2.72,2.72,0,0,1-.8-1.968,17,17,0,0,1,.46-2.894l1.36-6.228h4.462l-1.228,5.678q-.263,1.25-.3,1.453a2.79,2.79,0,0,0-.038.5v.033c0,.627.285.943.855.943a2.189,2.189,0,0,0,1.749-.922,6.325,6.325,0,0,0,1.113-2.642l1.086-5.043Z" transform="translate(35.561 18.44)" fill="#fff"/>
          <path id="Path_99" data-name="Path 99" d="M136.736,54.114l-3.453,16.073h-4.134l.219-1.162-.044-.055a5.83,5.83,0,0,1-1.705,1.183,4.814,4.814,0,0,1-1.815.308,3.641,3.641,0,0,1-3.021-1.309,5.494,5.494,0,0,1-1.046-3.525,8.635,8.635,0,0,1,1.573-5.159,4.725,4.725,0,0,1,3.974-2.2,4.2,4.2,0,0,1,3.706,1.832l1.272-5.986Zm-9.122,13.42a2.072,2.072,0,0,0,1.9-1.387,6.5,6.5,0,0,0,.663-2.835,2.051,2.051,0,0,0-.52-1.53,1.655,1.655,0,0,0-1.19-.509,2,2,0,0,0-1.677,1.243,6.019,6.019,0,0,0-.7,3,2.321,2.321,0,0,0,.423,1.5,1.356,1.356,0,0,0,1.1.515" transform="translate(39.057 17.361)" fill="#fff"/>
          <path id="Path_100" data-name="Path 100" d="M139.247,58.555l-2.5,11.633h-4.484l2.488-11.633Zm.921-4.441-.635,3.07h-4.463l.625-3.07Z" transform="translate(42.434 17.361)" fill="#fff"/>
          <path id="Path_101" data-name="Path 101" d="M150.795,66.19a5.856,5.856,0,0,1-2.548,2.5,9.039,9.039,0,0,1-3.943.761q-3.443,0-4.9-1.551a5.354,5.354,0,0,1-1.453-3.8,6.521,6.521,0,0,1,.68-2.932,6.753,6.753,0,0,1,1.841-2.307,6.642,6.642,0,0,1,2.292-1.256,9.663,9.663,0,0,1,2.643-.322q3.255,0,4.67,1.413a4.724,4.724,0,0,1,1.415,3.475,15.436,15.436,0,0,1-.3,2.337h-8.869q.186,2.334,2.095,2.335a2.421,2.421,0,0,0,2.06-1.053Zm-3.727-3.849a2.276,2.276,0,0,0,.077-.668,1.665,1.665,0,0,0-.532-1.342,1.939,1.939,0,0,0-1.309-.456,2.221,2.221,0,0,0-1.514.619,3.894,3.894,0,0,0-1.053,1.847Z" transform="translate(44.261 18.376)" fill="#fff"/>
          <path id="Path_102" data-name="Path 102" d="M161.4,60.324l-4.178.45q-.186-1.052-1.568-1.053a2.116,2.116,0,0,0-1.227.3.845.845,0,0,0-.417.691.81.81,0,0,0,.367.675,5.666,5.666,0,0,0,1.968.5,6.906,6.906,0,0,1,3.426,1.156,2.657,2.657,0,0,1,.851,2.066,3.761,3.761,0,0,1-1.667,3.07,8.321,8.321,0,0,1-5.076,1.272,7.912,7.912,0,0,1-4.079-.81,3.423,3.423,0,0,1-1.514-2.675l4.408-.384a1.671,1.671,0,0,0,1.864,1.413,2.609,2.609,0,0,0,1.3-.317,1,1,0,0,0,.564-.911.717.717,0,0,0-.406-.722,6.733,6.733,0,0,0-1.535-.362,7.2,7.2,0,0,1-3.519-1.228,2.66,2.66,0,0,1-.922-2.072,3.424,3.424,0,0,1,.691-1.994,4.566,4.566,0,0,1,2.088-1.541,9.214,9.214,0,0,1,3.438-.564,7.546,7.546,0,0,1,3.579.686,3.2,3.2,0,0,1,1.563,2.362" transform="translate(47.576 18.376)" fill="#fff"/>
          <path id="Path_103" data-name="Path 103" d="M165.276,60.731a4.036,4.036,0,0,1,1.848-2.556,8.67,8.67,0,0,1,4.468-.9q3.432,0,4.632.86a2.887,2.887,0,0,1,1.2,2.5,17.834,17.834,0,0,1-.6,3.609,17.274,17.274,0,0,0-.559,3.31,4.9,4.9,0,0,0,.285,1.611h-4.353a6.143,6.143,0,0,1-.153-1.326,5.665,5.665,0,0,1-3.914,1.6,4.18,4.18,0,0,1-3.169-1.029,3.392,3.392,0,0,1-.966-2.391,3.09,3.09,0,0,1,.861-2.358,4.506,4.506,0,0,1,2.121-1.1,29.014,29.014,0,0,1,3.443-.509,17.1,17.1,0,0,0,2.587-.407,3.486,3.486,0,0,0,.131-.79.792.792,0,0,0-.444-.7,2.3,2.3,0,0,0-1.178-.263,2.724,2.724,0,0,0-1.246.246,2.1,2.1,0,0,0-.839,1.038Zm7.237,3.233a12.4,12.4,0,0,0-3.618.91,1.144,1.144,0,0,0-.538.933,1.09,1.09,0,0,0,.384.882,1.471,1.471,0,0,0,.987.325,2.621,2.621,0,0,0,1.672-.687,3.792,3.792,0,0,0,1.112-2.363" transform="translate(52.614 18.376)" fill="#fff"/>
          <path id="Path_104" data-name="Path 104" d="M180.937,59.339a5.8,5.8,0,0,1,4.495-2.062,3.179,3.179,0,0,1,2.368.806,2.717,2.717,0,0,1,.79,1.979,16.729,16.729,0,0,1-.438,2.763l-1.35,6.348h-4.472l1.152-5.4A22.269,22.269,0,0,0,183.9,61.5q0-.967-.877-.966a2.16,2.16,0,0,0-1.722.926,6.464,6.464,0,0,0-1.105,2.671l-1.1,5.043H174.6l2.5-11.631h4.176l-.383,1.754Z" transform="translate(56.017 18.376)" fill="#fff"/>
          <path id="Path_105" data-name="Path 105" d="M201.06,54.114l-3.453,16.073h-4.134l.219-1.162-.042-.055a5.865,5.865,0,0,1-1.705,1.183,4.816,4.816,0,0,1-1.813.308,3.64,3.64,0,0,1-3.022-1.309,5.486,5.486,0,0,1-1.046-3.525,8.643,8.643,0,0,1,1.572-5.159,4.727,4.727,0,0,1,3.974-2.2,4.193,4.193,0,0,1,3.706,1.832l1.272-5.986Zm-9.12,13.42a2.07,2.07,0,0,0,1.9-1.387,6.5,6.5,0,0,0,.663-2.835,2.05,2.05,0,0,0-.518-1.53,1.665,1.665,0,0,0-1.193-.509,1.993,1.993,0,0,0-1.676,1.243,6.018,6.018,0,0,0-.7,3,2.32,2.32,0,0,0,.421,1.5,1.36,1.36,0,0,0,1.1.515" transform="translate(59.695 17.361)" fill="#fff"/>
          <path id="Path_106" data-name="Path 106" d="M205.366,54.115h9.145a4.4,4.4,0,0,1,3.464,1.239,4.351,4.351,0,0,1,1.1,2.982,5.032,5.032,0,0,1-1.162,3.294,5.751,5.751,0,0,1-3.717,1.8q1.512,1.23,3.618,6.755H212.56q-.658-1.743-1.552-3.811a7.386,7.386,0,0,0-1.343-2.4,1.785,1.785,0,0,0-1.084-.329h-.264l-1.37,6.535h-4.99Zm3.6,6.534h.942a13.012,13.012,0,0,0,3.063-.219,1.905,1.905,0,0,0,1.378-1.742,1.214,1.214,0,0,0-.4-.966,2.956,2.956,0,0,0-1.767-.35h-2.523Z" transform="translate(64.794 17.362)" fill="#fff"/>
          <path id="Path_107" data-name="Path 107" d="M227.369,66.19a5.85,5.85,0,0,1-2.548,2.5,9.032,9.032,0,0,1-3.943.761q-3.441,0-4.894-1.551a5.347,5.347,0,0,1-1.452-3.8,6.519,6.519,0,0,1,.678-2.932,6.74,6.74,0,0,1,1.843-2.307,6.637,6.637,0,0,1,2.29-1.256,9.662,9.662,0,0,1,2.643-.322q3.257,0,4.67,1.413a4.724,4.724,0,0,1,1.415,3.475,15.553,15.553,0,0,1-.3,2.337H218.9q.188,2.334,2.1,2.335a2.424,2.424,0,0,0,2.06-1.053Zm-3.726-3.849a2.321,2.321,0,0,0,.077-.668,1.664,1.664,0,0,0-.532-1.342,1.943,1.943,0,0,0-1.31-.456,2.21,2.21,0,0,0-1.511.619,3.885,3.885,0,0,0-1.054,1.847Z" transform="translate(68.829 18.376)" fill="#fff"/>
          <path id="Path_108" data-name="Path 108" d="M237.978,60.324l-4.176.45q-.188-1.052-1.569-1.053a2.119,2.119,0,0,0-1.227.3.848.848,0,0,0-.417.691.808.808,0,0,0,.368.675,5.647,5.647,0,0,0,1.968.5,6.912,6.912,0,0,1,3.426,1.156A2.661,2.661,0,0,1,237.2,65.1a3.761,3.761,0,0,1-1.667,3.07,8.321,8.321,0,0,1-5.076,1.272,7.912,7.912,0,0,1-4.079-.81,3.427,3.427,0,0,1-1.514-2.675l4.408-.384a1.672,1.672,0,0,0,1.864,1.413,2.615,2.615,0,0,0,1.3-.317,1,1,0,0,0,.563-.911.718.718,0,0,0-.4-.722,6.771,6.771,0,0,0-1.535-.362,7.2,7.2,0,0,1-3.52-1.228,2.659,2.659,0,0,1-.922-2.072,3.416,3.416,0,0,1,.692-1.994,4.559,4.559,0,0,1,2.088-1.541,9.206,9.206,0,0,1,3.437-.564,7.546,7.546,0,0,1,3.579.686,3.2,3.2,0,0,1,1.563,2.362" transform="translate(72.144 18.376)" fill="#fff"/>
          <path id="Path_109" data-name="Path 109" d="M248.311,66.19a5.863,5.863,0,0,1-2.548,2.5,9.039,9.039,0,0,1-3.943.761q-3.443,0-4.9-1.551a5.354,5.354,0,0,1-1.453-3.8,6.537,6.537,0,0,1,.679-2.932,6.772,6.772,0,0,1,1.843-2.307,6.642,6.642,0,0,1,2.292-1.256,9.646,9.646,0,0,1,2.642-.322q3.257,0,4.67,1.413a4.725,4.725,0,0,1,1.416,3.475,15.614,15.614,0,0,1-.3,2.337h-8.869q.186,2.334,2.094,2.335A2.421,2.421,0,0,0,244,65.784Zm-3.727-3.849a2.323,2.323,0,0,0,.077-.668,1.665,1.665,0,0,0-.532-1.342,1.94,1.94,0,0,0-1.31-.456,2.215,2.215,0,0,0-1.512.619,3.883,3.883,0,0,0-1.053,1.847Z" transform="translate(75.547 18.376)" fill="#fff"/>
          <path id="Path_110" data-name="Path 110" d="M247.528,60.731a4.038,4.038,0,0,1,1.849-2.556,8.662,8.662,0,0,1,4.467-.9q3.432,0,4.633.86a2.889,2.889,0,0,1,1.2,2.5,17.9,17.9,0,0,1-.6,3.609,17.2,17.2,0,0,0-.56,3.31,4.9,4.9,0,0,0,.285,1.611h-4.352a6.064,6.064,0,0,1-.153-1.326,5.668,5.668,0,0,1-3.915,1.6,4.18,4.18,0,0,1-3.169-1.029,3.391,3.391,0,0,1-.964-2.391,3.089,3.089,0,0,1,.86-2.358,4.51,4.51,0,0,1,2.123-1.1,28.943,28.943,0,0,1,3.442-.509,17.072,17.072,0,0,0,2.588-.407,3.5,3.5,0,0,0,.132-.79.8.8,0,0,0-.444-.7,2.305,2.305,0,0,0-1.18-.263,2.718,2.718,0,0,0-1.244.246,2.1,2.1,0,0,0-.839,1.038Zm7.237,3.233a12.4,12.4,0,0,0-3.618.91,1.144,1.144,0,0,0-.538.933,1.09,1.09,0,0,0,.384.882,1.475,1.475,0,0,0,.987.325,2.621,2.621,0,0,0,1.672-.687,3.792,3.792,0,0,0,1.112-2.363" transform="translate(79.004 18.376)" fill="#fff"/>
          <path id="Path_111" data-name="Path 111" d="M268.135,57.628l-1.644,3.441a4.14,4.14,0,0,0-.921-.119,2.632,2.632,0,0,0-2.084.921,6.692,6.692,0,0,0-1.238,2.949l-.921,4.352h-4.474l2.478-11.631h4.176l-.515,2.29.045.044a7.683,7.683,0,0,1,1.829-2.071,3.059,3.059,0,0,1,1.733-.527,3.907,3.907,0,0,1,1.535.351" transform="translate(82.407 18.376)" fill="#fff"/>
          <path id="Path_112" data-name="Path 112" d="M278.531,61.586,274.5,61.8a1.807,1.807,0,0,0-2.049-1.524,2.838,2.838,0,0,0-2.512,1.322,5.1,5.1,0,0,0-.877,2.877,1.752,1.752,0,0,0,.626,1.448,2.1,2.1,0,0,0,1.347.5,2.818,2.818,0,0,0,2.654-1.973l4.178.45q-1.545,4.539-7.007,4.537-6.15,0-6.15-5.031a7,7,0,0,1,2.027-5.032,7.569,7.569,0,0,1,5.714-2.105,7.357,7.357,0,0,1,4.22,1.08,4.4,4.4,0,0,1,1.864,3.228" transform="translate(84.926 18.376)" fill="#fff"/>
          <path id="Path_113" data-name="Path 113" d="M281.678,59.969a5.5,5.5,0,0,1,4.133-1.677,3.132,3.132,0,0,1,2.352.811,2.734,2.734,0,0,1,.783,1.973,16.589,16.589,0,0,1-.439,2.763l-1.349,6.348h-4.472l1.15-5.4a21.855,21.855,0,0,0,.416-2.271q0-.967-.877-.966a2.156,2.156,0,0,0-1.721.926,6.462,6.462,0,0,0-1.107,2.671l-1.1,5.043h-4.495l3.465-16.073h4.463l-1.25,5.812Z" transform="translate(88.215 17.361)" fill="#fff"/>
        </g>
      </g>
    </g>
  </g>
</svg>
